<svg width="1484" height="301" viewBox="0 0 1484 301" fill="none" xmlns="http://www.w3.org/2000/svg">
<rect width="1484" height="301" fill="#DCDCD9"/>
<g clip-path="url(#clip0)">
<rect width="1484" height="301" fill="#FBE739"/>
<path d="M1063.93 33.6405C1052.66 -23.8225 1146.43 -65.3961 1194.73 -79L1617 -19.6869L1555.55 369.385C1425.5 376.641 1157.41 386.798 1125.38 369.385C1085.36 347.619 1063.93 251.847 1078.03 197.432C1092.12 143.016 1149.63 174.033 1165.41 133.221C1181.2 92.4094 1078.03 105.469 1063.93 33.6405Z" fill="#54DD62"/>
<path d="M1033.93 32.6405C1022.66 -24.8225 1116.43 -66.3961 1164.73 -80L1587 -20.6869L1525.55 368.385C1395.5 375.641 1127.41 385.798 1095.38 368.385C1055.36 346.619 1033.93 250.847 1048.03 196.432C1062.12 142.016 1119.63 173.033 1135.41 132.221C1151.2 91.4094 1048.03 104.469 1033.93 32.6405Z" fill="#54DD62" fill-opacity="0.62"/>
<path d="M433.521 -36.8822C425.976 -104.813 351.778 -125.746 315.623 -127.721L2.35103 -158C11.3337 -124.649 20.8105 -48.4673 -13.1441 -10.5522C-47.0988 27.363 -103.196 19.2884 -127 10.5118V354.118H366.151C393.773 326.91 445.917 266.176 433.521 240.899C418.026 209.303 397.141 223.785 366.151 202.721C335.16 181.657 315.623 152.035 335.16 104.641C354.698 57.2475 442.953 48.032 433.521 -36.8822Z" fill="#FBE739"/>
<path d="M433.521 -36.8822C425.976 -104.813 351.778 -125.746 315.623 -127.721L2.35103 -158C11.3337 -124.649 20.8105 -48.4673 -13.1441 -10.5522C-47.0988 27.363 -103.196 19.2884 -127 10.5118V354.118H366.151C393.773 326.91 445.917 266.176 433.521 240.899C418.026 209.303 397.141 223.785 366.151 202.721C335.16 181.657 315.623 152.035 335.16 104.641C354.698 57.2475 442.953 48.032 433.521 -36.8822Z" fill="#FF5C00"/>
<path d="M492.521 -44.8822C484.976 -112.813 410.778 -133.746 374.623 -135.721L61.351 -166C70.3337 -132.649 79.8105 -56.4673 45.8559 -18.5522C11.9012 19.363 -44.1958 11.2884 -68 2.51178V346.118H425.151C452.773 318.91 504.917 258.176 492.521 232.899C477.026 201.303 456.141 215.785 425.151 194.721C394.16 173.657 374.623 144.035 394.16 96.6414C413.698 49.2475 501.953 40.032 492.521 -44.8822Z" fill="#FFB800" fill-opacity="0.46"/>
<path d="M463.521 -36.8822C455.976 -104.813 381.778 -125.746 345.623 -127.721L32.351 -158C41.3337 -124.649 50.8105 -48.4673 16.8559 -10.5522C-17.0988 27.363 -73.1958 19.2884 -97 10.5118V354.118H396.151C423.773 326.91 475.917 266.176 463.521 240.899C448.026 209.303 427.141 223.785 396.151 202.721C365.16 181.657 345.623 152.035 365.16 104.641C384.698 57.2475 472.953 48.032 463.521 -36.8822Z" fill="#FFB800" fill-opacity="0.81"/>
<ellipse cx="347" cy="301.5" rx="115" ry="99.5" fill="#DD06AE" fill-opacity="0.88"/>
<ellipse cx="347" cy="301.5" rx="115" ry="99.5" fill="#23C550" fill-opacity="0.88"/>
<path d="M394.288 239.053C393.2 230.289 387.778 221.653 379.435 218.801C382.725 227.822 382.725 237.718 379.433 246.739C378.151 250.214 376.364 253.944 377.57 257.446C378.32 259.625 380.156 261.291 382.208 262.334C384.259 263.376 386.537 263.873 388.785 264.36L389.228 264.726C392.798 256.651 395.376 247.818 394.288 239.053Z" fill="#F0F0F0"/>
<path d="M379.352 218.966C384.211 224.42 387.231 231.27 387.983 238.541C388.173 240.104 388.115 241.687 387.813 243.231C387.47 244.726 386.734 246.102 385.68 247.216C384.719 248.274 383.613 249.245 382.926 250.518C382.583 251.176 382.383 251.898 382.339 252.638C382.295 253.378 382.407 254.119 382.669 254.813C383.276 256.557 384.473 257.98 385.692 259.33C387.045 260.829 388.474 262.364 389.049 264.351C389.119 264.592 389.488 264.47 389.418 264.229C388.418 260.772 385.067 258.808 383.47 255.694C382.724 254.241 382.411 252.554 383.11 251.02C383.721 249.679 384.861 248.676 385.843 247.614C386.886 246.542 387.652 245.231 388.073 243.795C388.453 242.271 388.571 240.693 388.423 239.129C388.144 235.603 387.314 232.143 385.963 228.875C384.441 225.137 382.292 221.687 379.609 218.674C379.443 218.488 379.187 218.781 379.352 218.966Z" fill="white"/>
<path d="M387.878 236.186C389.079 235.894 390.137 235.184 390.863 234.182C391.59 233.181 391.937 231.954 391.843 230.719C391.824 230.47 391.435 230.489 391.455 230.739C391.545 231.888 391.221 233.031 390.543 233.962C389.864 234.893 388.876 235.551 387.757 235.816C387.513 235.874 387.637 236.243 387.878 236.186Z" fill="white"/>
<path d="M386.238 246.744C384.07 245.447 382.469 243.378 381.755 240.951C381.684 240.71 381.315 240.833 381.386 241.073C382.134 243.597 383.804 245.746 386.063 247.091C386.279 247.219 386.452 246.871 386.238 246.744Z" fill="white"/>
<path d="M384.081 225.505C383.639 225.715 383.153 225.812 382.666 225.787C382.178 225.763 381.704 225.617 381.286 225.363C381.073 225.232 380.899 225.581 381.112 225.711C381.574 225.989 382.098 226.149 382.637 226.178C383.175 226.206 383.713 226.102 384.202 225.875C384.25 225.857 384.29 225.822 384.313 225.776C384.336 225.731 384.34 225.678 384.326 225.629C384.31 225.58 384.275 225.54 384.229 225.517C384.183 225.493 384.129 225.489 384.081 225.505Z" fill="white"/>
<path d="M354.003 234.455C354.134 234.541 354.265 234.626 354.396 234.715C356.153 235.872 357.814 237.171 359.361 238.598C359.482 238.706 359.604 238.818 359.722 238.93C363.413 242.408 366.427 246.542 368.612 251.122C369.48 252.945 370.208 254.832 370.79 256.766C371.593 259.437 372.252 262.397 373.843 264.582C374.006 264.812 374.183 265.031 374.374 265.239H388.747C388.78 265.222 388.813 265.209 388.845 265.193L389.419 265.219C389.396 265.117 389.37 265.012 389.347 264.91C389.334 264.851 389.318 264.792 389.305 264.733C389.295 264.693 389.285 264.654 389.278 264.618C389.275 264.605 389.272 264.592 389.269 264.582C389.262 264.546 389.252 264.513 389.245 264.48C389.101 263.892 388.953 263.304 388.8 262.716C388.8 262.712 388.8 262.712 388.796 262.709C387.619 258.231 386.058 253.812 383.877 249.772C383.812 249.65 383.746 249.525 383.674 249.404C382.681 247.588 381.541 245.856 380.267 244.226C379.566 243.336 378.821 242.481 378.033 241.667C375.996 239.565 373.641 237.798 371.055 236.43C365.9 233.703 359.932 232.658 354.422 234.324C354.281 234.367 354.144 234.409 354.003 234.455Z" fill="#F0F0F0"/>
<path d="M354.035 234.638C361.192 236.062 367.72 239.709 372.69 245.062C373.781 246.195 374.686 247.493 375.373 248.909C375.998 250.31 376.236 251.852 376.065 253.377C375.933 254.801 375.634 256.243 375.85 257.675C375.972 258.407 376.246 259.104 376.656 259.721C377.065 260.339 377.6 260.863 378.226 261.259C379.759 262.285 381.57 262.699 383.354 263.042C385.335 263.423 387.399 263.787 389.053 265.027C389.253 265.177 389.474 264.857 389.274 264.707C386.397 262.55 382.542 263.002 379.395 261.479C377.926 260.769 376.662 259.611 376.299 257.964C375.981 256.525 376.288 255.038 376.434 253.596C376.623 252.112 376.447 250.603 375.92 249.202C375.307 247.756 374.453 246.425 373.395 245.266C371.053 242.619 368.311 240.356 365.268 238.562C361.806 236.495 358.017 235.037 354.065 234.25C353.82 234.201 353.792 234.59 354.035 234.638Z" fill="white"/>
<path d="M371.191 243.244C371.974 242.287 372.392 241.082 372.37 239.844C372.348 238.606 371.888 237.417 371.072 236.488C370.906 236.3 370.607 236.55 370.773 236.737C371.535 237.601 371.964 238.709 371.982 239.862C372 241.014 371.606 242.135 370.872 243.022C370.712 243.215 371.033 243.436 371.191 243.244H371.191Z" fill="white"/>
<path d="M376.226 252.663C373.715 252.936 371.194 252.25 369.166 250.742C368.965 250.593 368.744 250.913 368.944 251.062C371.058 252.627 373.683 253.335 376.296 253.046C376.545 253.019 376.474 252.636 376.226 252.663V252.663Z" fill="white"/>
<path d="M361.74 237.007C361.514 237.441 361.184 237.811 360.78 238.086C360.376 238.36 359.91 238.53 359.424 238.579C359.174 238.603 359.246 238.986 359.493 238.962C360.03 238.905 360.544 238.717 360.991 238.415C361.439 238.113 361.805 237.706 362.059 237.229C362.087 237.186 362.098 237.134 362.088 237.084C362.079 237.033 362.051 236.988 362.01 236.958C361.968 236.929 361.916 236.918 361.865 236.927C361.815 236.936 361.77 236.965 361.74 237.007Z" fill="white"/>
<path d="M251.783 82.819H250.471V46.8297C250.471 44.0943 249.934 41.3857 248.889 38.8585C247.844 36.3313 246.312 34.0351 244.382 32.1009C242.451 30.1667 240.159 28.6324 237.636 27.5856C235.114 26.5388 232.41 26 229.68 26H153.571C148.057 26 142.768 28.1945 138.869 32.1008C134.97 36.0071 132.78 41.3052 132.78 46.8296V244.27C132.78 249.794 134.97 255.092 138.869 258.999C142.768 262.905 148.057 265.1 153.571 265.1H229.68C235.194 265.1 240.482 262.905 244.382 258.999C248.281 255.092 250.471 249.794 250.471 244.27V108.437H251.783L251.783 82.819Z" fill="#3F3D56"/>
<path d="M230.519 31.4192H220.584C221.041 32.5413 221.215 33.7588 221.092 34.9644C220.968 36.17 220.551 37.3267 219.876 38.3325C219.201 39.3384 218.29 40.1626 217.222 40.7325C216.155 41.3024 214.964 41.6005 213.754 41.6006H170.152C168.943 41.6005 167.752 41.3024 166.684 40.7325C165.616 40.1626 164.705 39.3384 164.03 38.3325C163.356 37.3267 162.938 36.17 162.815 34.9644C162.691 33.7588 162.866 32.5413 163.323 31.4192H154.044C152.004 31.4192 149.985 31.8215 148.102 32.6032C146.218 33.385 144.506 34.5308 143.064 35.9752C141.623 37.4196 140.479 39.1345 139.699 41.0217C138.918 42.909 138.517 44.9317 138.517 46.9745V244.125C138.517 246.168 138.918 248.191 139.699 250.078C140.479 251.965 141.623 253.68 143.064 255.124C144.506 256.569 146.218 257.715 148.102 258.496C149.985 259.278 152.004 259.68 154.043 259.68H230.519C232.558 259.68 234.577 259.278 236.461 258.496C238.344 257.715 240.056 256.569 241.498 255.124C242.94 253.68 244.083 251.965 244.864 250.078C245.644 248.191 246.046 246.168 246.046 244.125V46.9745C246.046 44.9317 245.644 42.909 244.864 41.0217C244.083 39.1345 242.94 37.4197 241.498 35.9752C240.056 34.5308 238.344 33.385 236.461 32.6032C234.577 31.8215 232.558 31.4192 230.519 31.4192Z" fill="white"/>
<path d="M202.913 84.3818H175.807V86.9037H202.913V84.3818Z" fill="#F9C526"/>
<path d="M223.051 93.1058H175.807V95.6277H223.051V93.1058Z" fill="#E6E6E6"/>
<path d="M223.005 101.83H175.807V104.352H223.005V101.83Z" fill="#E6E6E6"/>
<path d="M170.189 84.4193H150.051V104.594H170.189V84.4193Z" fill="#F9C526"/>
<path d="M202.913 137.341H175.807V139.863H202.913V137.341Z" fill="#F9C526"/>
<path d="M223.051 146.065H175.807V148.587H223.051V146.065Z" fill="#E6E6E6"/>
<path d="M223.005 154.789H175.807V157.311H223.005V154.789Z" fill="#E6E6E6"/>
<path d="M170.189 137.379H150.051V157.554H170.189V137.379Z" fill="#F9C526"/>
<path d="M202.913 190.301H175.807V192.823H202.913V190.301Z" fill="#F9C526"/>
<path d="M223.051 199.025H175.807V201.547H223.051V199.025Z" fill="#E6E6E6"/>
<path d="M223.005 207.749H175.807V210.271H223.005V207.749Z" fill="#E6E6E6"/>
<path d="M170.189 190.338H150.051V210.513H170.189V190.338Z" fill="#F9C526"/>
<path d="M338.925 261.199L334.911 261.42L332.148 246.013L338.072 245.687L338.925 261.199Z" fill="#FFB6B6"/>
<path d="M340.163 265.041L327.219 265.755L327.21 265.591C327.137 264.252 327.597 262.939 328.49 261.94C329.382 260.942 330.635 260.339 331.971 260.265L331.971 260.265L339.877 259.829L340.163 265.041Z" fill="#2F2E41"/>
<path d="M254.762 199.234L254.243 195.24L269.373 191.332L270.14 197.226L254.762 199.234Z" fill="#FFB6B6"/>
<path d="M251.031 200.757L249.355 187.879L249.518 187.858C250.845 187.685 252.186 188.047 253.247 188.864C254.308 189.681 255.001 190.888 255.174 192.217L255.174 192.217L256.197 200.083L251.031 200.757Z" fill="#2F2E41"/>
<path d="M305.511 173.992C305.686 174.039 305.858 174.1 306.023 174.174L319.781 165.485L319.634 161.53L325.564 160.527L326.503 167.504C326.579 168.068 326.471 168.641 326.194 169.138C325.917 169.634 325.487 170.027 324.968 170.258L308.057 177.778C307.966 178.473 307.666 179.123 307.197 179.642C306.728 180.162 306.112 180.526 305.432 180.686C304.752 180.847 304.038 180.796 303.388 180.54C302.737 180.285 302.179 179.837 301.788 179.256C301.398 178.675 301.193 177.989 301.201 177.288C301.21 176.588 301.431 175.907 301.835 175.336C302.239 174.764 302.807 174.329 303.464 174.089C304.12 173.849 304.834 173.815 305.511 173.992Z" fill="#FFB6B6"/>
<path d="M319.153 164.934C318.989 164.8 318.856 164.631 318.763 164.44C318.67 164.249 318.619 164.041 318.614 163.828L318.43 156.41C318.245 155.34 318.49 154.239 319.114 153.349C319.737 152.46 320.687 151.854 321.755 151.665C322.823 151.475 323.923 151.718 324.812 152.34C325.702 152.962 326.31 153.911 326.502 154.981L328.833 162.049C328.9 162.251 328.922 162.465 328.899 162.676C328.875 162.887 328.807 163.091 328.698 163.273C328.589 163.455 328.442 163.612 328.267 163.732C328.092 163.852 327.894 163.933 327.685 163.969L320.342 165.248C320.133 165.284 319.918 165.275 319.713 165.221C319.508 165.167 319.317 165.069 319.153 164.934Z" fill="#E4E4E4"/>
<path d="M330.592 144.434C336.107 144.434 340.577 139.955 340.577 134.43C340.577 128.905 336.107 124.426 330.592 124.426C325.077 124.426 320.607 128.905 320.607 134.43C320.607 139.955 325.077 144.434 330.592 144.434Z" fill="#2F2E41"/>
<path d="M334.085 128.041C336.367 128.041 338.217 126.187 338.217 123.901C338.217 121.615 336.367 119.762 334.085 119.762C331.803 119.762 329.953 121.615 329.953 123.901C329.953 126.187 331.803 128.041 334.085 128.041Z" fill="#2F2E41"/>
<path d="M339.594 121.659C339.594 120.636 339.216 119.649 338.532 118.889C337.849 118.128 336.908 117.649 335.893 117.542C336.036 117.527 336.179 117.52 336.323 117.52C337.419 117.52 338.47 117.956 339.245 118.732C340.02 119.508 340.455 120.561 340.455 121.659C340.455 122.757 340.02 123.81 339.245 124.586C338.47 125.362 337.419 125.799 336.323 125.799C336.179 125.799 336.036 125.791 335.893 125.776C336.908 125.67 337.849 125.19 338.532 124.43C339.216 123.669 339.594 122.682 339.594 121.659Z" fill="#2F2E41"/>
<path d="M330.588 145.307C334.075 145.307 336.902 142.475 336.902 138.981C336.902 135.488 334.075 132.656 330.588 132.656C327.1 132.656 324.274 135.488 324.274 138.981C324.274 142.475 327.1 145.307 330.588 145.307Z" fill="#FFB8B8"/>
<path d="M341.098 182.631C341.098 182.631 340.797 190.161 339.594 194.077C338.392 197.993 340.496 253.417 339.444 254.773C338.392 256.128 333.431 255.676 333.431 255.676L328.829 226.8C328.829 226.8 328.019 196.186 316.894 195.433C305.769 194.68 262.323 198.897 262.323 198.897L261.421 192.722L284.723 187.601C284.723 187.601 306.07 180.221 317.796 182.179C329.522 184.137 341.098 182.631 341.098 182.631Z" fill="#2F2E41"/>
<path d="M339.745 146.183C340.947 145.28 343.954 146.485 343.954 146.485L347.261 156.274C347.261 156.274 345.608 164.708 344.104 169.377C342.601 174.046 339.705 194.686 340.306 195.59C340.908 196.493 330.574 189.107 324.411 186.848C318.247 184.589 316.894 182.028 316.894 182.028C316.894 182.028 323.659 172.389 321.404 167.871C319.149 163.353 320.953 158.232 320.953 158.232L320.051 153.111L325.162 150.25C325.162 150.25 338.542 147.087 339.745 146.183Z" fill="#E4E4E4"/>
<path d="M329.43 136.449C333.234 136.449 336.317 134.595 336.317 132.309C336.317 130.023 333.234 128.17 329.43 128.17C325.627 128.17 322.544 130.023 322.544 132.309C322.544 134.595 325.627 136.449 329.43 136.449Z" fill="#2F2E41"/>
<path d="M369.003 148.818C368.928 148.983 368.867 149.155 368.819 149.33L353.392 154.487L350.431 151.866L345.899 155.826L350.691 160.975C351.078 161.392 351.589 161.67 352.148 161.771C352.707 161.871 353.283 161.786 353.79 161.53L370.314 153.19C370.908 153.559 371.6 153.739 372.298 153.705C372.996 153.671 373.667 153.424 374.222 152.999C374.777 152.573 375.19 151.988 375.405 151.322C375.62 150.655 375.628 149.939 375.427 149.268C375.226 148.598 374.826 148.004 374.28 147.567C373.734 147.129 373.068 146.869 372.37 146.82C371.673 146.771 370.977 146.936 370.376 147.293C369.774 147.65 369.296 148.181 369.003 148.818V148.818Z" fill="#FFB6B6"/>
<path d="M352.853 154.77L347.213 159.651C347.052 159.79 346.864 159.892 346.66 159.952C346.457 160.011 346.243 160.025 346.033 159.994C345.823 159.963 345.622 159.888 345.444 159.772C345.267 159.656 345.116 159.503 345.002 159.324L341.022 153.038C340.317 152.211 339.968 151.139 340.052 150.055C340.136 148.971 340.645 147.965 341.468 147.256C342.291 146.548 343.361 146.196 344.444 146.277C345.526 146.358 346.531 146.866 347.24 147.689L352.852 152.531C353.013 152.67 353.142 152.842 353.23 153.035C353.318 153.228 353.364 153.438 353.364 153.65C353.364 153.863 353.319 154.073 353.231 154.266C353.142 154.459 353.014 154.631 352.853 154.77L352.853 154.77Z" fill="#E4E4E4"/>
<path d="M524.949 91.72C524.949 89.64 525.317 87.592 526.053 85.576C526.821 83.56 527.925 81.736 529.365 80.104C530.805 78.472 532.565 77.176 534.645 76.216C536.725 75.224 539.093 74.728 541.749 74.728C544.853 74.728 547.557 75.416 549.861 76.792C552.165 78.168 553.877 79.96 554.997 82.168L549.909 85.672C549.333 84.392 548.581 83.384 547.653 82.648C546.725 81.912 545.717 81.384 544.629 81.064C543.573 80.744 542.549 80.584 541.557 80.584C539.893 80.584 538.437 80.92 537.189 81.592C535.973 82.264 534.949 83.144 534.117 84.232C533.285 85.32 532.661 86.536 532.245 87.88C531.861 89.224 531.669 90.568 531.669 91.912C531.669 93.928 532.085 95.816 532.917 97.576C533.749 99.304 534.917 100.712 536.421 101.8C537.925 102.888 539.669 103.432 541.653 103.432C542.677 103.432 543.733 103.256 544.821 102.904C545.941 102.552 546.965 101.992 547.893 101.224C548.821 100.456 549.541 99.464 550.053 98.248L555.477 101.368C554.773 103.064 553.669 104.504 552.165 105.688C550.661 106.84 548.965 107.736 547.077 108.376C545.189 108.984 543.317 109.288 541.461 109.288C539.029 109.288 536.805 108.792 534.789 107.8C532.805 106.776 531.077 105.432 529.605 103.768C528.133 102.072 526.981 100.184 526.149 98.104C525.349 95.992 524.949 93.864 524.949 91.72ZM557.665 96.424C557.665 94.024 558.145 91.832 559.105 89.848C560.065 87.864 561.393 86.296 563.089 85.144C564.785 83.992 566.721 83.416 568.897 83.416C570.753 83.416 572.417 83.88 573.889 84.808C575.393 85.704 576.561 86.856 577.393 88.264V73.96H583.825V101.8C583.825 102.504 583.937 103 584.161 103.288C584.385 103.544 584.769 103.704 585.313 103.768V109C584.161 109.224 583.249 109.336 582.577 109.336C581.425 109.336 580.465 109.048 579.697 108.472C578.961 107.896 578.545 107.144 578.449 106.216L578.353 104.632C577.425 106.2 576.161 107.4 574.561 108.232C572.993 109.064 571.345 109.48 569.617 109.48C567.281 109.48 565.217 108.904 563.425 107.752C561.633 106.568 560.225 105 559.201 103.048C558.177 101.064 557.665 98.856 557.665 96.424ZM577.393 99.784V93.784C576.881 92.376 576.001 91.208 574.753 90.28C573.505 89.352 572.225 88.888 570.913 88.888C569.601 88.888 568.449 89.256 567.457 89.992C566.465 90.696 565.697 91.64 565.153 92.824C564.609 93.976 564.337 95.224 564.337 96.568C564.337 97.944 564.641 99.208 565.249 100.36C565.857 101.48 566.673 102.376 567.697 103.048C568.753 103.688 569.953 104.008 571.297 104.008C572.513 104.008 573.713 103.608 574.897 102.808C576.113 102.008 576.945 101 577.393 99.784ZM601.755 109.48C599.003 109.48 596.635 108.888 594.651 107.704C592.699 106.488 591.195 104.888 590.139 102.904C589.083 100.92 588.555 98.776 588.555 96.472C588.555 94.136 589.083 91.976 590.139 89.992C591.227 88.008 592.747 86.424 594.699 85.24C596.683 84.024 599.035 83.416 601.755 83.416C604.475 83.416 606.811 84.024 608.763 85.24C610.747 86.424 612.267 88.008 613.323 89.992C614.379 91.976 614.907 94.136 614.907 96.472C614.907 98.776 614.379 100.92 613.323 102.904C612.267 104.888 610.747 106.488 608.763 107.704C606.811 108.888 604.475 109.48 601.755 109.48ZM595.179 96.472C595.179 97.944 595.467 99.256 596.043 100.408C596.619 101.528 597.403 102.408 598.395 103.048C599.387 103.688 600.507 104.008 601.755 104.008C602.971 104.008 604.075 103.688 605.067 103.048C606.059 102.376 606.843 101.48 607.419 100.36C608.027 99.208 608.331 97.896 608.331 96.424C608.331 94.984 608.027 93.704 607.419 92.584C606.843 91.432 606.059 90.536 605.067 89.896C604.075 89.224 602.971 88.888 601.755 88.888C600.507 88.888 599.387 89.224 598.395 89.896C597.403 90.536 596.619 91.432 596.043 92.584C595.467 93.704 595.179 95 595.179 96.472ZM634.032 109.24C631.792 109.24 629.696 108.792 627.744 107.896C625.792 107 624.064 105.768 622.56 104.2C621.088 102.6 619.936 100.744 619.104 98.632C618.272 96.52 617.856 94.232 617.856 91.768C617.856 89.432 618.272 87.24 619.104 85.192C619.936 83.112 621.104 81.288 622.608 79.72C624.112 78.152 625.872 76.92 627.888 76.024C629.904 75.128 632.096 74.68 634.464 74.68C637.632 74.68 640.368 75.368 642.672 76.744C644.976 78.088 646.704 79.88 647.856 82.12L642.912 85.768C642.048 84.104 640.832 82.824 639.264 81.928C637.728 81 636.048 80.536 634.224 80.536C632.304 80.536 630.608 81.064 629.136 82.12C627.696 83.176 626.56 84.568 625.728 86.296C624.928 88.024 624.528 89.912 624.528 91.96C624.528 94.104 624.96 96.04 625.824 97.768C626.688 99.496 627.872 100.872 629.376 101.896C630.912 102.888 632.656 103.384 634.608 103.384C637.904 103.384 640.88 101.832 643.536 98.728V96.328H636.672V91.48H649.008V109H643.536V105.16C640.784 107.88 637.616 109.24 634.032 109.24ZM668.814 109.24C666.574 109.24 664.478 108.792 662.526 107.896C660.574 107 658.846 105.768 657.342 104.2C655.87 102.6 654.718 100.744 653.886 98.632C653.054 96.52 652.638 94.232 652.638 91.768C652.638 89.432 653.054 87.24 653.886 85.192C654.718 83.112 655.886 81.288 657.39 79.72C658.894 78.152 660.654 76.92 662.67 76.024C664.686 75.128 666.878 74.68 669.246 74.68C672.414 74.68 675.15 75.368 677.454 76.744C679.758 78.088 681.486 79.88 682.638 82.12L677.694 85.768C676.83 84.104 675.614 82.824 674.046 81.928C672.51 81 670.83 80.536 669.006 80.536C667.086 80.536 665.39 81.064 663.918 82.12C662.478 83.176 661.342 84.568 660.51 86.296C659.71 88.024 659.31 89.912 659.31 91.96C659.31 94.104 659.742 96.04 660.606 97.768C661.47 99.496 662.654 100.872 664.158 101.896C665.694 102.888 667.438 103.384 669.39 103.384C672.686 103.384 675.662 101.832 678.318 98.728V96.328H671.454V91.48H683.79V109H678.318V105.16C675.566 107.88 672.398 109.24 668.814 109.24ZM700.427 109.48C697.675 109.48 695.307 108.888 693.323 107.704C691.371 106.488 689.867 104.888 688.811 102.904C687.755 100.92 687.227 98.776 687.227 96.472C687.227 94.136 687.755 91.976 688.811 89.992C689.899 88.008 691.419 86.424 693.371 85.24C695.355 84.024 697.707 83.416 700.427 83.416C703.147 83.416 705.483 84.024 707.435 85.24C709.419 86.424 710.939 88.008 711.995 89.992C713.051 91.976 713.579 94.136 713.579 96.472C713.579 98.776 713.051 100.92 711.995 102.904C710.939 104.888 709.419 106.488 707.435 107.704C705.483 108.888 703.147 109.48 700.427 109.48ZM693.851 96.472C693.851 97.944 694.139 99.256 694.715 100.408C695.291 101.528 696.075 102.408 697.067 103.048C698.059 103.688 699.179 104.008 700.427 104.008C701.643 104.008 702.747 103.688 703.739 103.048C704.731 102.376 705.515 101.48 706.091 100.36C706.699 99.208 707.003 97.896 707.003 96.424C707.003 94.984 706.699 93.704 706.091 92.584C705.515 91.432 704.731 90.536 703.739 89.896C702.747 89.224 701.643 88.888 700.427 88.888C699.179 88.888 698.059 89.224 697.067 89.896C696.075 90.536 695.291 91.432 694.715 92.584C694.139 93.704 693.851 95 693.851 96.472ZM753.067 80.488H743.995V74.824H753.067V80.488ZM737.707 80.488H732.379V85.192H764.635V80.488H759.355V74.824H764.971V70.12H732.091V74.824H737.707V80.488ZM739.483 105.832H763.675V94.888H733.147V99.448H757.435V101.608H733.195V112.792H764.827V108.232H739.483V105.832ZM728.587 87.448V92.44H768.523V87.448H728.587ZM800.872 84.664H804.424V98.632H810.424V68.92H804.424V79.624H800.872V69.688H794.968V94.984H800.872V84.664ZM792.856 88.6C788.872 89.368 785.32 89.608 780.616 89.704V85.528H791.224V71.992H774.472V76.936H785.128V80.92H774.52V94.696H777.592C784.168 94.696 788.44 94.552 793.432 93.544L792.856 88.6ZM798.376 96.76H792.04V97.528C792.04 102.088 787.48 106.888 777.976 108.088L780.424 112.984C787.432 111.976 792.472 109.048 795.208 104.968C797.848 109.048 802.936 111.976 809.944 112.984L812.44 108.088C802.888 106.888 798.376 102.088 798.376 97.528V96.76ZM827.748 103.192H845.844V107.656H827.748V103.192ZM821.556 112.6H852.084V98.2H821.556V112.6ZM832.308 75.16H841.38V81.832H832.308V75.16ZM839.988 90.328V86.872H852.9V81.832H847.668V75.16H853.284V70.12H820.404V75.16H826.02V81.832H820.692V86.872H833.652V90.328H816.9V95.32H856.836V90.328H839.988ZM871.28 99.448C867.824 99.448 865.664 95.08 865.664 88.024C865.664 81.112 867.824 76.744 871.28 76.744C874.64 76.744 876.848 81.112 876.848 88.024C876.848 95.08 874.64 99.448 871.28 99.448ZM885.824 86.248H880.4C879.92 78.136 876.464 73.096 871.28 73.096C865.664 73.096 862.064 78.856 862.064 88.024C862.064 97.336 865.664 103.096 871.28 103.096C876.56 103.096 880.064 97.912 880.4 89.464H885.824V110.44H889.568V70.456H885.824V86.248ZM894.368 69.496V112.552H898.112V69.496H894.368ZM920.764 73.192H916.828V80.92C916.828 88.888 911.932 97.192 905.692 100.312L908.092 103.432C912.94 100.84 916.924 95.416 918.796 89.032C920.764 95.08 924.7 100.216 929.596 102.664L931.9 99.544C925.66 96.568 920.764 88.744 920.764 80.92V73.192ZM937.228 69.496V84.088H927.244V87.304H937.228V112.6H941.164V69.496H937.228ZM505.745 160.936V163.864H514.481V168.28H518.417V135.496H514.481V160.936H505.745ZM496.961 140.152C501.041 140.152 503.825 141.976 503.825 144.712C503.825 147.496 501.041 149.32 496.961 149.32C492.881 149.32 490.097 147.496 490.097 144.712C490.097 141.976 492.881 140.152 496.961 140.152ZM496.961 152.248C503.249 152.248 507.569 149.32 507.569 144.712C507.569 140.2 503.249 137.224 496.961 137.224C490.673 137.224 486.353 140.2 486.353 144.712C486.353 149.32 490.673 152.248 496.961 152.248ZM495.425 166.744H499.361V158.248C503.249 158.008 507.233 157.576 511.025 157L510.689 154.168C501.569 155.32 490.913 155.416 482.945 155.416L483.473 158.68C487.025 158.68 491.153 158.632 495.425 158.44V166.744ZM493.025 174.376V165.064H489.089V177.592H519.521V174.376H493.025ZM539.965 165.688C536.077 165.688 533.245 162.904 533.245 159.064C533.245 155.176 536.077 152.392 539.965 152.392C543.901 152.392 546.733 155.176 546.733 159.064C546.733 162.904 543.901 165.688 539.965 165.688ZM539.965 149.128C533.917 149.128 529.549 153.256 529.549 159.064C529.549 164.92 533.917 168.952 539.965 168.952C546.109 168.952 550.477 164.92 550.477 159.064C550.477 153.256 546.109 149.128 539.965 149.128ZM541.885 136.024H537.949V142.408H527.101V145.576H552.493V142.408H541.885V136.024ZM567.565 153.208H560.509V135.544H556.573V178.552H560.509V156.52H567.565V153.208ZM606.009 148.456H580.665V137.08H576.729V151.672H606.009V148.456ZM580.377 164.92H576.441V177.496H606.249V174.28H580.377V164.92ZM571.449 157.432V160.6H610.473V157.432H571.449ZM629.489 140.104V143.368H645.281C644.369 153.544 638.465 161.8 627.473 167.32L629.633 170.392C643.553 163.432 649.169 152.344 649.169 140.104H629.489ZM667.217 152.968H660.305V135.496H656.369V178.552H660.305V156.232H667.217V152.968ZM678.013 166.264H702.829V178.456H706.813V163.096H678.013V166.264ZM702.829 135.496V143.176H693.325C693.709 141.64 693.901 140.008 693.901 138.376H674.221V141.592H689.677C688.909 148.936 682.381 154.648 671.965 157.48L673.549 160.648C682.765 158.056 689.437 153.16 692.317 146.392H702.829V152.296H691.693V155.512H702.829V161.176H706.813V135.496H702.829ZM725.241 165.448C721.785 165.448 719.625 161.08 719.625 154.024C719.625 147.112 721.785 142.744 725.241 142.744C728.601 142.744 730.809 147.112 730.809 154.024C730.809 161.08 728.601 165.448 725.241 165.448ZM739.785 152.248H734.361C733.881 144.136 730.425 139.096 725.241 139.096C719.625 139.096 716.025 144.856 716.025 154.024C716.025 163.336 719.625 169.096 725.241 169.096C730.521 169.096 734.025 163.912 734.361 155.464H739.785V176.44H743.529V136.456H739.785V152.248ZM748.329 135.496V178.552H752.073V135.496H748.329ZM794.736 147.4V150.616H803.376V167.08H807.36V135.544H803.376V147.4H794.736ZM797.28 157.528C791.04 155.32 786.816 149.944 786.816 144.328V142.216H796.272V139H773.28V142.216H782.88V144.376C782.88 150.472 778.416 156.184 772.032 158.488L774.096 161.56C779.136 159.736 783.072 155.752 784.944 150.856C786.816 155.272 790.512 158.872 795.312 160.6L797.28 157.528ZM783.792 174.376V164.296H779.808V177.592H808.56V174.376H783.792ZM830.54 143.176H840.092V139.912H816.812V143.176H826.652V148.648C826.652 155.944 821.468 164.104 815.324 167.176L817.628 170.296C822.476 167.8 826.652 162.328 828.62 156.04C830.588 161.8 834.62 166.84 839.42 169.24L841.676 166.072C835.436 163.144 830.54 155.512 830.54 148.648V143.176ZM856.268 152.872H849.164V135.544H845.228V178.552H849.164V156.184H856.268V152.872ZM862.744 140.152V143.32H878.92C878.104 153.544 872.344 161.8 860.776 167.32L862.888 170.536C877.192 163.528 882.904 152.584 882.904 140.152H862.744ZM891.592 135.496V178.552H895.528V135.496H891.592ZM906.901 140.152V143.32H923.077C922.261 153.544 916.501 161.8 904.933 167.32L907.045 170.536C921.349 163.528 927.061 152.584 927.061 140.152H906.901ZM935.749 135.496V178.552H939.685V135.496H935.749ZM978.657 143.032H953.505V152.248H983.313V149.416H957.393V145.72H982.545V136.744H953.409V139.528H978.657V143.032ZM957.153 171.16H982.689V161.992H953.169V164.824H978.801V168.424H953.265V177.976H984.033V175.144H957.153V171.16ZM948.513 155.512V158.488H987.537V155.512H948.513ZM621.559 209.608H626.023V222.136C624.535 222.232 623.047 222.28 621.559 222.328V209.608ZM637.111 221.272C635.479 221.464 633.799 221.656 632.071 221.752V209.608H635.575V204.568H612.007V209.608H615.463V222.424L610.855 222.472L611.527 227.608C618.871 227.608 628.855 227.416 637.543 225.88L637.111 221.272ZM623.719 230.44H617.383V244.36H647.479V239.32H623.719V230.44ZM645.895 213.4V200.92H639.559V233.464H645.895V218.632H651.751V213.4H645.895ZM662.404 210.424H668.068V229.144H662.404V210.424ZM656.5 234.088H673.924V205.432H656.5V234.088ZM687.172 200.872V217.768H683.476V201.592H677.572V243.112H683.476V222.856H687.172V245.08H693.172V200.872H687.172ZM710.544 231.304C707.184 231.304 704.832 228.568 704.832 224.728C704.832 220.984 707.184 218.248 710.544 218.248C713.856 218.248 716.256 220.984 716.256 224.728C716.256 228.568 713.856 231.304 710.544 231.304ZM710.544 214.936C705.216 214.936 701.328 218.968 701.328 224.728C701.328 230.584 705.216 234.568 710.544 234.568C715.872 234.568 719.76 230.584 719.76 224.728C719.76 218.968 715.872 214.936 710.544 214.936ZM712.464 202.744H708.576V208.84H699.84V212.056H721.2V208.84H712.464V202.744ZM732.576 201.448V219.64H727.056V202.456H723.36V242.44H727.056V222.856H732.576V244.504H736.368V201.448H732.576ZM752.54 215.464H774.524V223.384H752.54V215.464ZM765.5 235.816V226.552H778.364V204.568H774.524V212.248H752.54V204.568H748.652V226.552H761.516V235.816H744.044V239.032H783.068V235.816H765.5ZM800.968 205.576H797.176V213.784C797.176 221.176 793.624 228.904 787.72 232.36L790.168 235.288C794.44 232.648 797.56 227.8 799.096 222.088C800.632 227.32 803.512 231.88 807.592 234.376L809.848 231.304C804.184 227.848 800.968 220.552 800.968 213.64V205.576ZM812.296 216.952H805.192V220.216H812.296V242.44H815.992V202.456H812.296V216.952ZM821.032 201.496V244.552H824.776V201.496H821.032ZM845.845 225.64C847.621 226.072 849.685 226.312 851.797 226.312C853.957 226.312 856.021 226.072 857.845 225.64V235.768H845.845V225.64ZM851.797 207.304C858.709 207.304 863.701 210.472 863.701 215.272C863.701 220.072 858.709 223.24 851.797 223.24C844.885 223.24 839.941 220.072 839.941 215.272C839.941 210.472 844.885 207.304 851.797 207.304ZM861.781 235.768V224.104C865.333 222.232 867.445 219.16 867.445 215.272C867.445 208.552 860.965 204.232 851.797 204.232C842.677 204.232 836.148 208.552 836.148 215.272C836.148 219.16 838.309 222.28 841.909 224.152V235.768H832.309V239.032H871.429V235.768H861.781Z" fill="#383838"/>
<g clip-path="url(#clip1)">
<path d="M1444.29 250.265L1441.31 251.696L1434.98 239.425L1439.39 237.313L1444.29 250.265Z" fill="#FFB6B6"/>
<path d="M1419.64 253.443L1416.4 253.442L1414.86 239.364H1419.64L1419.64 253.443Z" fill="#FFB6B6"/>
<path d="M1419.76 257.25L1409.79 257.25V257.108C1409.79 255.949 1410.2 254.838 1410.92 254.019C1411.65 253.2 1412.64 252.739 1413.67 252.739H1413.67L1415.49 251.184L1418.89 252.739L1419.76 252.739L1419.76 257.25Z" fill="#2F2E41"/>
<path d="M1446.1 252.703L1436.93 257.103L1436.88 256.972C1436.48 255.906 1436.47 254.704 1436.85 253.629C1437.23 252.554 1437.98 251.695 1438.93 251.24L1438.93 251.24L1440.06 249.006L1443.73 248.937L1444.53 248.553L1446.1 252.703Z" fill="#2F2E41"/>
<path d="M1416.46 170.119L1411.53 203.897L1412.88 208.93L1411.12 212.495L1413.7 243.803L1412.65 246.403L1415.58 248.438H1421.54L1421.86 220.095L1423.33 215.933V213.64L1426.33 196.357L1426.88 216.126L1427.76 220.294L1427.02 223.262L1427.98 225.341L1436.19 245.176H1442.87L1442.36 240.69C1443.55 240.007 1440.56 238.011 1440.27 236.535L1441.25 234.04L1440.27 229.329L1439.37 220.123L1440.32 200.691L1439.87 174.523C1437.63 171.134 1435.13 168.521 1432.05 167.789L1416.46 170.119Z" fill="#2F2E41"/>
<path d="M1428.46 125.635C1432.19 125.635 1435.22 122.229 1435.22 118.027C1435.22 113.825 1432.19 110.419 1428.46 110.419C1424.73 110.419 1421.7 113.825 1421.7 118.027C1421.7 122.229 1424.73 125.635 1428.46 125.635Z" fill="#FFB6B6"/>
<path d="M1400.6 178.1C1400.52 177.672 1400.52 177.229 1400.6 176.802C1400.68 176.375 1400.85 175.974 1401.09 175.627C1401.32 175.28 1401.63 174.995 1401.97 174.794C1402.32 174.592 1402.7 174.478 1403.08 174.46L1405.81 164.271L1408.95 168.516L1405.89 177.54C1405.87 178.277 1405.61 178.981 1405.17 179.52C1404.72 180.059 1404.12 180.394 1403.46 180.463C1402.81 180.532 1402.16 180.33 1401.63 179.894C1401.1 179.459 1400.74 178.82 1400.6 178.1Z" fill="#FFB6B6"/>
<path d="M1418.26 136.222L1417.04 133.713L1415.47 134.303C1415.47 134.303 1413.73 135.564 1411.3 140.324C1410.18 142.525 1407.75 156.642 1407.75 156.642L1402.07 173.571L1407.86 174.673L1412.69 160.721L1418.29 147.37L1418.26 136.222Z" fill="#EFCB00"/>
<path d="M1428.21 170.012C1432.97 170.012 1437.77 171.067 1439.73 174.837C1439.68 174.017 1439.55 172.596 1439.42 171.292L1438.93 167.787L1439.43 164.574L1440.09 163.832L1438.91 162.504L1439.71 155.797L1442.37 139.996C1442.58 138.753 1442.41 137.468 1441.9 136.339C1441.4 135.211 1440.57 134.303 1439.56 133.757L1437.01 132.375L1432.87 128.054L1425.38 127.991L1422.94 131.565L1416.51 134.023L1417.59 159.155L1416.89 161.013C1417.04 161.177 1417.38 161.527 1417.56 161.752C1417.82 162.072 1417.49 163.715 1417.27 164.666L1416.97 167.199L1417.91 167.955L1416.69 169.581L1416.45 171.645C1417.66 171.322 1422.91 170.012 1428.21 170.012Z" fill="#EFCB00"/>
<path d="M1430.19 125.263C1430.22 125.191 1430.25 125.119 1430.27 125.047C1430.26 125.048 1430.25 125.049 1430.24 125.05L1430.19 125.263Z" fill="#2F2E41"/>
<path d="M1435.41 110.765C1435.08 110.424 1434.67 110.221 1434.23 110.191C1433.79 110.207 1433.35 110.652 1433.44 111.133C1432.64 109.533 1431.36 108.303 1429.83 107.658C1428.3 107.012 1426.62 106.994 1425.08 107.605C1423.99 108.037 1422.93 108.9 1422.68 110.165C1422.66 110.498 1422.57 110.82 1422.42 111.111C1422.3 111.266 1422.13 111.376 1421.95 111.428C1421.77 111.479 1421.58 111.47 1421.4 111.401L1421.39 111.398C1421.33 111.375 1421.27 111.372 1421.2 111.391C1421.14 111.41 1421.09 111.45 1421.05 111.504C1421 111.559 1420.98 111.626 1420.97 111.698C1420.96 111.769 1420.98 111.842 1421.01 111.905L1421.31 112.551C1420.93 112.648 1420.52 112.638 1420.14 112.523C1420.08 112.504 1420.01 112.508 1419.95 112.534C1419.89 112.559 1419.83 112.606 1419.8 112.667C1419.76 112.729 1419.74 112.801 1419.74 112.875C1419.74 112.95 1419.76 113.022 1419.8 113.081C1420.31 113.868 1420.98 114.51 1421.75 114.955C1422.52 115.4 1423.37 115.637 1424.23 115.647C1425.46 115.639 1426.7 115.162 1427.9 115.48C1428.36 115.603 1428.79 115.841 1429.16 116.177C1429.53 116.512 1429.83 116.936 1430.04 117.419C1430.24 117.901 1430.35 118.429 1430.35 118.964C1430.35 119.499 1430.24 120.027 1430.04 120.509C1430.41 120.057 1431.11 120.164 1431.49 120.608C1431.66 120.845 1431.79 121.119 1431.87 121.415C1431.94 121.71 1431.96 122.019 1431.93 122.323C1431.83 123.255 1431.58 124.16 1431.2 124.996C1432.65 124.945 1434.05 124.394 1435.22 123.418C1436.38 122.441 1437.26 121.085 1437.71 119.533C1438.17 117.981 1438.2 116.308 1437.78 114.74C1437.37 113.172 1436.54 111.785 1435.41 110.765H1435.41Z" fill="#2F2E41"/>
<path d="M1222.01 125.405C1227.31 122.591 1231.48 117.63 1233.68 111.511C1233.9 110.904 1234.72 111.316 1234.5 111.922C1232.2 118.284 1227.86 123.437 1222.34 126.352C1221.81 126.63 1221.49 125.681 1222.01 125.405L1222.01 125.405Z" fill="white"/>
<path d="M1363.66 102.41C1368.96 99.5961 1373.13 94.6349 1375.33 88.516C1375.54 87.9096 1376.37 88.3213 1376.15 88.927C1373.85 95.2896 1369.51 100.443 1363.99 103.358C1363.46 103.635 1363.14 102.686 1363.66 102.41L1363.66 102.41Z" fill="white"/>
<path d="M1204 252.409L1207.12 255.123L1219.21 257.486L1232.66 219.849C1232.66 219.849 1240.9 190.843 1263.96 196.777L1338.08 195.294C1338.08 195.294 1360.83 192.668 1364.59 204.751C1365.31 207.04 1384.52 257.602 1384.52 257.602L1398 255.461L1396.38 212.354L1364.38 128.72L1308.76 124.81L1251.44 129.277L1204 252.409Z" fill="#3F3D56"/>
<path d="M1265.6 199.373C1277.43 199.373 1287.02 188.58 1287.02 175.266C1287.02 161.952 1277.43 151.159 1265.6 151.159C1253.78 151.159 1244.19 161.952 1244.19 175.266C1244.19 188.58 1253.78 199.373 1265.6 199.373Z" fill="#2F2E41"/>
<path d="M1337.42 199.373C1349.24 199.373 1358.83 188.58 1358.83 175.266C1358.83 161.952 1349.24 151.159 1337.42 151.159C1325.59 151.159 1316 161.952 1316 175.266C1316 188.58 1325.59 199.373 1337.42 199.373Z" fill="#2F2E41"/>
<path d="M1240.57 96.2681L1249.38 94.3218C1249.38 94.3218 1315.76 83.6582 1357.72 96.2681L1354.55 106.282L1243.53 105.54L1240.57 96.2681Z" fill="#E6E6E6"/>
<path d="M1330.07 148.006H1273.73C1266.89 148.006 1260.98 142.674 1259.68 135.327L1253.51 100.611C1253.38 99.8534 1253.38 99.0721 1253.53 98.317C1253.68 97.5619 1253.96 96.8496 1254.37 96.2256C1254.79 95.5709 1255.33 95.0213 1255.95 94.611C1256.57 94.2006 1257.26 93.9382 1257.97 93.84C1287.68 89.6879 1317.1 89.6809 1345.42 93.8185C1346.12 93.9156 1346.8 94.1749 1347.41 94.5801C1348.02 94.9854 1348.55 95.528 1348.97 96.1742C1349.37 96.7892 1349.66 97.4909 1349.81 98.2357C1349.96 98.9804 1349.98 99.7523 1349.85 100.503L1344.16 135.113C1342.93 142.584 1337 148.006 1330.07 148.006Z" fill="#EFCB00"/>
<path d="M1215.51 101.92L1215.75 96.9521C1215.79 96.1782 1216 95.4262 1216.35 94.7605C1216.7 94.0948 1217.19 93.5353 1217.78 93.1298C1221.34 90.6731 1230.93 85.2641 1243.18 88.0995C1244.04 88.2999 1244.82 88.7935 1245.42 89.5132C1246.02 90.2329 1246.41 91.1438 1246.54 92.1222L1246.87 94.7071L1215.51 101.92Z" fill="#3F3D56"/>
<path d="M1388.17 101.92L1356.81 94.7071L1357.34 90.5543C1357.4 90.0639 1357.59 89.6051 1357.88 89.2371C1358.18 88.869 1358.56 88.6084 1358.99 88.4887C1373.11 84.499 1383.92 91.5842 1386.89 93.8508C1387.18 94.0667 1387.41 94.3528 1387.58 94.687C1387.75 95.0212 1387.85 95.3946 1387.87 95.7783L1388.17 101.92Z" fill="#3F3D56"/>
<path d="M1205.55 255.649C1204.8 255.658 1204.06 255.423 1203.41 254.972C1195.02 249.452 1189.78 239.336 1187.87 224.913C1186.29 213 1186.95 198.047 1189.83 180.47C1194.95 149.306 1205.67 118.155 1210.04 106.209C1210.62 104.633 1211.52 103.231 1212.67 102.118C1213.82 101.004 1215.18 100.21 1216.65 99.799C1225.67 97.3029 1241.4 93.1157 1245.51 93.1157C1251.14 93.1157 1254.19 99.084 1254.22 99.1443L1254.24 99.1936L1259.18 123.338V123.687C1261.91 134.08 1259.88 141.587 1257.7 146.056C1255.33 150.906 1252.27 153.327 1252.23 153.351C1247.42 157.476 1239.58 170.766 1231.78 188.029C1223.67 205.97 1217.65 223.672 1215.69 235.383C1213.3 249.718 1209.78 254.106 1207.25 255.263C1206.71 255.515 1206.14 255.646 1205.55 255.649V255.649Z" fill="#E6E6E6"/>
<path d="M1328.21 145.039H1274.98C1271.84 145.034 1268.8 143.802 1266.38 141.552C1263.95 139.302 1262.3 136.174 1261.69 132.703L1255.87 98.9391C1255.74 98.1917 1255.75 97.4225 1255.89 96.6788C1256.04 95.935 1256.32 95.2327 1256.71 94.6151C1257.11 93.9975 1257.61 93.4778 1258.19 93.0881C1258.77 92.6983 1259.42 92.4468 1260.09 92.3491C1288.16 88.3109 1315.96 88.304 1342.71 92.3281C1343.38 92.4294 1344.01 92.6805 1344.59 93.0662C1345.16 93.4518 1345.66 93.9641 1346.05 94.5721C1346.44 95.18 1346.72 95.8711 1346.87 96.6037C1347.02 97.3363 1347.03 98.0951 1346.91 98.8345L1341.53 132.494C1340.97 136.014 1339.33 139.199 1336.9 141.493C1334.46 143.786 1331.39 145.042 1328.21 145.039V145.039Z" fill="#E6E6E6"/>
<path d="M1398.13 255.65C1397.54 255.646 1396.97 255.515 1396.43 255.263C1393.9 254.106 1390.38 249.718 1387.98 235.383C1386.03 223.672 1380.01 205.97 1371.9 188.029C1364.1 170.766 1356.26 157.476 1351.44 153.346C1351.41 153.327 1348.35 150.906 1345.98 146.056C1343.8 141.587 1341.77 134.08 1344.5 123.687L1344.5 123.297L1349.45 99.1675L1349.46 99.1443C1349.49 99.084 1352.54 93.1157 1358.17 93.1157C1362.28 93.1157 1378.01 97.3029 1387.03 99.799C1388.5 100.21 1389.86 101.004 1391.01 102.118C1392.16 103.231 1393.06 104.633 1393.64 106.209V106.209C1398.01 118.155 1408.73 149.305 1413.85 180.47C1416.73 198.047 1417.39 213 1415.81 224.913C1413.9 239.336 1408.66 249.452 1400.25 254.98C1399.62 255.427 1398.88 255.659 1398.13 255.65V255.65Z" fill="#E6E6E6"/>
<path d="M1265.6 185.651C1272.7 185.651 1278.45 179.175 1278.45 171.186C1278.45 163.198 1272.7 156.722 1265.6 156.722C1258.51 156.722 1252.76 163.198 1252.76 171.186C1252.76 179.175 1258.51 185.651 1265.6 185.651Z" fill="#3F3D56"/>
<path d="M1265.6 180.829C1270.33 180.829 1274.17 176.512 1274.17 171.186C1274.17 165.861 1270.33 161.543 1265.6 161.543C1260.87 161.543 1257.04 165.861 1257.04 171.186C1257.04 176.512 1260.87 180.829 1265.6 180.829Z" fill="#2F2E41"/>
<path d="M1337.42 185.651C1344.51 185.651 1350.26 179.175 1350.26 171.186C1350.26 163.198 1344.51 156.722 1337.42 156.722C1330.32 156.722 1324.57 163.198 1324.57 171.186C1324.57 179.175 1330.32 185.651 1337.42 185.651Z" fill="#3F3D56"/>
<path d="M1337.42 180.829C1342.15 180.829 1345.98 176.512 1345.98 171.186C1345.98 165.861 1342.15 161.543 1337.42 161.543C1332.69 161.543 1328.85 165.861 1328.85 171.186C1328.85 176.512 1332.69 180.829 1337.42 180.829Z" fill="#2F2E41"/>
<path d="M1293.6 153.755C1294.15 153.755 1294.59 153.257 1294.59 152.642C1294.59 152.028 1294.15 151.53 1293.6 151.53C1293.06 151.53 1292.62 152.028 1292.62 152.642C1292.62 153.257 1293.06 153.755 1293.6 153.755Z" fill="#2F2E41"/>
<path d="M1297.89 153.755C1298.43 153.755 1298.88 153.257 1298.88 152.642C1298.88 152.028 1298.43 151.53 1297.89 151.53C1297.34 151.53 1296.9 152.028 1296.9 152.642C1296.9 153.257 1297.34 153.755 1297.89 153.755Z" fill="#2F2E41"/>
<path d="M1295.91 157.835C1296.46 157.835 1296.9 157.336 1296.9 156.722C1296.9 156.107 1296.46 155.609 1295.91 155.609C1295.36 155.609 1294.92 156.107 1294.92 156.722C1294.92 157.336 1295.36 157.835 1295.91 157.835Z" fill="#2F2E41"/>
<path d="M1299.86 157.835C1300.41 157.835 1300.85 157.336 1300.85 156.722C1300.85 156.107 1300.41 155.609 1299.86 155.609C1299.32 155.609 1298.88 156.107 1298.88 156.722C1298.88 157.336 1299.32 157.835 1299.86 157.835Z" fill="#2F2E41"/>
<path d="M1303.82 157.835C1304.36 157.835 1304.8 157.336 1304.8 156.722C1304.8 156.107 1304.36 155.609 1303.82 155.609C1303.27 155.609 1302.83 156.107 1302.83 156.722C1302.83 157.336 1303.27 157.835 1303.82 157.835Z" fill="#2F2E41"/>
<path d="M1307.77 157.835C1308.32 157.835 1308.76 157.336 1308.76 156.722C1308.76 156.107 1308.32 155.609 1307.77 155.609C1307.22 155.609 1306.78 156.107 1306.78 156.722C1306.78 157.336 1307.22 157.835 1307.77 157.835Z" fill="#2F2E41"/>
<path d="M1302.17 153.755C1302.71 153.755 1303.16 153.257 1303.16 152.642C1303.16 152.028 1302.71 151.53 1302.17 151.53C1301.62 151.53 1301.18 152.028 1301.18 152.642C1301.18 153.257 1301.62 153.755 1302.17 153.755Z" fill="#2F2E41"/>
<path d="M1306.45 153.755C1307 153.755 1307.44 153.257 1307.44 152.642C1307.44 152.028 1307 151.53 1306.45 151.53C1305.91 151.53 1305.46 152.028 1305.46 152.642C1305.46 153.257 1305.91 153.755 1306.45 153.755Z" fill="#2F2E41"/>
<path d="M1310.73 153.755C1311.28 153.755 1311.72 153.257 1311.72 152.642C1311.72 152.028 1311.28 151.53 1310.73 151.53C1310.19 151.53 1309.75 152.028 1309.75 152.642C1309.75 153.257 1310.19 153.755 1310.73 153.755Z" fill="#2F2E41"/>
<path d="M1306.12 186.949H1297.56C1297.16 186.949 1296.79 186.773 1296.51 186.46C1296.23 186.147 1296.07 185.722 1296.07 185.28C1296.07 184.837 1296.23 184.413 1296.51 184.1C1296.79 183.787 1297.16 183.611 1297.56 183.611H1306.12C1306.52 183.611 1306.89 183.787 1307.17 184.1C1307.45 184.413 1307.6 184.837 1307.6 185.28C1307.6 185.722 1307.45 186.147 1307.17 186.46C1306.89 186.773 1306.52 186.949 1306.12 186.949Z" fill="#2F2E41"/>
<path d="M1249.41 114.399C1248.86 114.397 1248.32 114.186 1247.89 113.799C1247.46 113.412 1247.15 112.872 1247.02 112.267L1245.71 105.988C1245.56 105.275 1245.67 104.524 1246.01 103.901C1246.36 103.278 1246.91 102.833 1247.54 102.665C1248.17 102.497 1248.84 102.619 1249.39 103.004C1249.95 103.39 1250.34 104.007 1250.49 104.72L1251.81 110.999C1251.89 111.405 1251.89 111.828 1251.81 112.235C1251.73 112.642 1251.57 113.024 1251.34 113.351C1251.11 113.678 1250.82 113.942 1250.48 114.123C1250.15 114.305 1249.78 114.399 1249.41 114.399V114.399Z" fill="#3F3D56"/>
<path d="M1354.6 114.028C1354.23 114.028 1353.86 113.934 1353.53 113.753C1353.19 113.571 1352.9 113.307 1352.67 112.98C1352.44 112.653 1352.28 112.271 1352.2 111.864C1352.12 111.457 1352.12 111.034 1352.2 110.628L1353.52 104.349C1353.67 103.636 1354.06 103.019 1354.61 102.634C1355.17 102.248 1355.84 102.126 1356.47 102.294C1357.1 102.462 1357.65 102.907 1357.99 103.53C1358.34 104.153 1358.45 104.904 1358.3 105.618L1356.98 111.896C1356.86 112.502 1356.55 113.041 1356.12 113.428C1355.69 113.815 1355.15 114.027 1354.6 114.028V114.028Z" fill="#3F3D56"/>
<path d="M1231.29 132.931C1230.48 132.931 1229.69 132.651 1229.03 132.129L1226.27 129.956C1225.75 129.547 1225.33 129.003 1225.04 128.37C1224.74 127.738 1224.59 127.035 1224.59 126.322V119.667C1224.59 118.331 1225.07 117.05 1225.9 116.105C1226.74 115.16 1227.88 114.628 1229.07 114.627H1233.29C1234.48 114.628 1235.62 115.16 1236.46 116.105C1237.29 117.05 1237.77 118.331 1237.77 119.667V126.387C1237.77 127.082 1237.62 127.767 1237.34 128.387C1237.07 129.007 1236.66 129.545 1236.17 129.958L1233.63 132.066C1232.95 132.628 1232.13 132.931 1231.29 132.931V132.931Z" fill="#3F3D56"/>
<path d="M1233.29 157.278H1229.07C1227.88 157.277 1226.74 156.745 1225.9 155.8C1225.07 154.855 1224.59 153.574 1224.59 152.238V145.583C1224.59 144.87 1224.74 144.167 1225.04 143.535C1225.33 142.902 1225.75 142.358 1226.27 141.949L1229.03 139.776C1229.7 139.243 1230.51 138.963 1231.34 138.974C1232.16 138.986 1232.96 139.288 1233.63 139.839L1236.17 141.947C1236.66 142.36 1237.07 142.898 1237.34 143.518C1237.62 144.138 1237.77 144.823 1237.77 145.518V152.238C1237.77 153.574 1237.29 154.855 1236.46 155.8C1235.62 156.745 1234.48 157.277 1233.29 157.278V157.278Z" fill="#3F3D56"/>
<path d="M1246.47 143.37H1240.56C1239.92 143.37 1239.3 143.198 1238.74 142.868C1238.18 142.539 1237.69 142.062 1237.33 141.478L1235.4 138.374C1234.93 137.614 1234.68 136.705 1234.69 135.777C1234.7 134.848 1234.97 133.947 1235.46 133.2L1237.33 130.339C1237.69 129.781 1238.17 129.327 1238.72 129.013C1239.27 128.7 1239.88 128.536 1240.5 128.535H1246.47C1247.66 128.536 1248.79 129.068 1249.63 130.013C1250.47 130.958 1250.94 132.239 1250.95 133.575V138.33C1250.94 139.666 1250.47 140.947 1249.63 141.892C1248.79 142.837 1247.66 143.369 1246.47 143.37V143.37Z" fill="#3F3D56"/>
<path d="M1221.47 143.37H1215.56C1214.38 143.369 1213.24 142.837 1212.4 141.892C1211.56 140.947 1211.09 139.666 1211.09 138.33V133.575C1211.09 132.239 1211.56 130.958 1212.4 130.013C1213.24 129.068 1214.38 128.536 1215.56 128.535H1221.53C1222.15 128.536 1222.76 128.7 1223.31 129.013C1223.86 129.327 1224.34 129.781 1224.7 130.339L1226.57 133.2C1227.06 133.947 1227.33 134.848 1227.34 135.777C1227.35 136.705 1227.1 137.614 1226.63 138.374L1224.7 141.478C1224.34 142.062 1223.85 142.539 1223.29 142.868C1222.73 143.198 1222.11 143.37 1221.47 143.37V143.37Z" fill="#3F3D56"/>
<path d="M1372.66 125.568C1376.85 125.568 1380.24 121.749 1380.24 117.038C1380.24 112.326 1376.85 108.507 1372.66 108.507C1368.48 108.507 1365.09 112.326 1365.09 117.038C1365.09 121.749 1368.48 125.568 1372.66 125.568Z" fill="#3F3D56"/>
<path d="M1389.46 145.225C1393.65 145.225 1397.04 141.405 1397.04 136.694C1397.04 131.983 1393.65 128.164 1389.46 128.164C1385.28 128.164 1381.89 131.983 1381.89 136.694C1381.89 141.405 1385.28 145.225 1389.46 145.225Z" fill="#3F3D56"/>
<path d="M1372.66 163.769C1376.85 163.769 1380.24 159.949 1380.24 155.238C1380.24 150.527 1376.85 146.708 1372.66 146.708C1368.48 146.708 1365.09 150.527 1365.09 155.238C1365.09 159.949 1368.48 163.769 1372.66 163.769Z" fill="#3F3D56"/>
<path d="M1355.86 144.854C1360.05 144.854 1363.44 141.035 1363.44 136.323C1363.44 131.612 1360.05 127.793 1355.86 127.793C1351.68 127.793 1348.29 131.612 1348.29 136.323C1348.29 141.035 1351.68 144.854 1355.86 144.854Z" fill="#3F3D56"/>
<path d="M1389.46 142.257C1388.49 142.257 1387.53 141.931 1386.72 141.32C1385.91 140.709 1385.27 139.84 1384.9 138.823C1384.53 137.807 1384.43 136.688 1384.62 135.609C1384.81 134.53 1385.28 133.538 1385.97 132.76C1386.66 131.982 1387.54 131.453 1388.5 131.238C1389.46 131.023 1390.45 131.133 1391.36 131.554C1392.26 131.976 1393.03 132.689 1393.57 133.603C1394.12 134.518 1394.41 135.594 1394.41 136.694C1394.4 138.169 1393.88 139.583 1392.96 140.626C1392.03 141.669 1390.77 142.256 1389.46 142.257V142.257ZM1389.46 131.873C1388.62 131.873 1387.79 132.156 1387.09 132.685C1386.38 133.215 1385.83 133.968 1385.51 134.849C1385.18 135.73 1385.1 136.7 1385.26 137.635C1385.43 138.57 1385.84 139.429 1386.44 140.104C1387.04 140.778 1387.8 141.237 1388.63 141.423C1389.46 141.609 1390.32 141.514 1391.1 141.149C1391.89 140.784 1392.55 140.166 1393.03 139.373C1393.5 138.58 1393.75 137.648 1393.75 136.694C1393.75 135.416 1393.29 134.19 1392.49 133.287C1391.69 132.383 1390.6 131.874 1389.46 131.873V131.873Z" fill="#E6E6E6"/>
<path d="M1377.96 121.176L1368.03 121.018L1373.12 111.415L1377.96 121.176ZM1369.18 120.295L1376.83 120.417L1373.1 112.899L1369.18 120.295Z" fill="#E6E6E6"/>
<path d="M1359.82 140.774H1351.91V131.873H1359.82V140.774ZM1352.57 140.032H1359.16V132.615H1352.57V140.032Z" fill="#E6E6E6"/>
<path d="M1376.75 159.068L1373.13 154.998L1376.32 151.409L1375.86 150.883L1372.66 154.474L1369.47 150.883L1369 151.409L1372.2 154.998L1368.58 159.068L1369.04 159.593L1372.66 155.522L1376.29 159.593L1376.75 159.068Z" fill="#E6E6E6"/>
<path opacity="0.2" d="M1435.75 158.762L1422.96 169.596L1437.39 162.471L1435.75 158.762Z" fill="black"/>
<path d="M1411.85 172.079C1411.93 171.651 1412.09 171.247 1412.32 170.896C1412.56 170.545 1412.85 170.256 1413.2 170.049C1413.54 169.842 1413.92 169.722 1414.31 169.697C1414.69 169.673 1415.08 169.744 1415.44 169.907L1421.64 161.871L1422.96 167.195L1416.88 174.009C1416.59 174.674 1416.1 175.199 1415.5 175.484C1414.9 175.769 1414.22 175.796 1413.6 175.558C1412.98 175.32 1412.46 174.834 1412.14 174.193C1411.82 173.552 1411.71 172.8 1411.85 172.079H1411.85Z" fill="#FFB6B6"/>
<path d="M1439.49 136.75L1442.02 136.595L1442.41 138.411C1442.41 138.411 1442.37 140.736 1440.05 145.568C1437.74 150.401 1419.82 171.918 1419.82 171.918L1415.94 166.958L1425.53 155.831L1431.34 144.169L1439.49 136.75Z" fill="#EFCB00"/>
<path d="M1150.41 258H1451.59C1451.7 258 1451.8 257.951 1451.88 257.865C1451.96 257.778 1452 257.66 1452 257.538C1452 257.415 1451.96 257.297 1451.88 257.211C1451.8 257.124 1451.7 257.075 1451.59 257.075H1150.41C1150.3 257.075 1150.2 257.124 1150.12 257.211C1150.04 257.297 1150 257.415 1150 257.538C1150 257.66 1150.04 257.778 1150.12 257.865C1150.2 257.951 1150.3 258 1150.41 258Z" fill="#CCCCCC"/>
</g>
<ellipse cx="6.5" cy="-6" rx="98.5" ry="90" fill="#FF4D00" fill-opacity="0.8"/>
<ellipse cx="6.5" cy="20" rx="98.5" ry="90" fill="#FF4D00" fill-opacity="0.5"/>
</g>
<defs>
<clipPath id="clip0">
<rect width="1484" height="301" fill="white"/>
</clipPath>
<clipPath id="clip1">
<rect width="302" height="227" fill="white" transform="translate(1150 31)"/>
</clipPath>
</defs>
</svg>
