<svg width="1917" height="869" viewBox="0 0 1917 869" fill="none" xmlns="http://www.w3.org/2000/svg">
<rect width="1917" height="869" fill="white"/>
<path d="M730.596 58.432V63.568H745.044C743.892 73.36 738.42 80.368 728.148 85.648L731.7 90.496C746.388 83.056 751.428 71.68 751.428 58.432H730.596ZM769.38 70.768H763.188V53.872H756.852V98.032H763.188V76H769.38V70.768ZM779.552 86.992H803.36V97.936H809.696V82H779.552V86.992ZM803.36 53.92V61.024H795.824C796.064 59.632 796.208 58.192 796.208 56.704H775.712V61.744H789.392C788.432 67.744 782.96 72.688 773.168 75.184L775.616 80.128C784.928 77.632 791.36 72.928 794.336 66.112H803.36V70.432H793.616V75.52H803.36V80.128H809.696V53.968L803.36 53.92ZM868.217 58.528H853.481V53.872H847.145V58.528H832.265V63.472H868.217V58.528ZM858.905 72.832C858.905 74.8 856.073 75.712 850.313 75.712C844.553 75.712 841.769 74.8 841.769 72.832C841.769 70.768 844.553 69.904 850.313 69.904C856.073 69.904 858.905 70.768 858.905 72.832ZM835.193 72.832C835.193 77.68 840.857 80.416 850.313 80.416C859.769 80.416 865.481 77.68 865.481 72.832C865.481 67.936 859.769 65.2 850.313 65.2C840.857 65.2 835.193 67.936 835.193 72.832ZM870.377 82.528H830.345V87.616H847.145V98.176H853.481V87.616H870.377V82.528ZM882.278 74.704H895.67V57.616H875.942V62.656H889.43V69.712H876.038V88.384H879.59C886.214 88.384 891.83 88.24 898.358 87.232L897.878 82.048C892.358 82.864 887.606 83.104 882.278 83.152V74.704ZM905.126 53.872V63.28H897.878V68.368H905.126V75.28H897.781V80.368H905.126V98.224H911.51V53.872H905.126ZM935.89 66.16H944.914V61.12H935.89V54.976H929.554V61.12H920.338V66.16H929.554V67.696C929.554 74.416 926.098 81.904 918.85 85.168L922.258 90.016C927.298 87.76 930.85 83.248 932.818 77.92C934.786 82.96 938.29 87.184 943.282 89.248L946.642 84.4C939.394 81.28 935.89 74.08 935.89 67.696V66.16ZM948.994 53.92V98.128H955.33V53.92H948.994ZM965.262 58.48V63.52H979.998C979.086 73.312 974.19 80.224 962.91 85.648L966.222 90.64C981.918 83.056 986.478 72.016 986.478 58.48H965.262ZM993.246 53.872V98.08H999.63V53.872H993.246ZM1042.59 65.872H1018.25V55.504H1011.91V70.912H1042.59V65.872ZM1017.87 84.016H1011.48V97.168H1042.83V92.128H1017.87V84.016ZM1006.97 75.424V80.512H1047V75.424H1006.97ZM1093.33 63.232C1093.33 69.232 1093.33 75.52 1091.75 83.968L1098.04 84.544C1099.67 75.472 1099.67 69.424 1099.67 63.232V58H1068.71V63.04H1093.33V63.232ZM1064.58 87.184V92.368H1104.56V87.184H1064.58ZM1124.86 73.888H1116.22V62.56H1124.86V73.888ZM1131.1 57.568H1110.03V78.88H1131.1V57.568ZM1121.36 83.008H1115.02V97.36H1145.12V92.32H1121.36V83.008ZM1143.54 66.688V53.92H1137.2V86.176H1143.54V71.872H1149.39V66.688H1143.54ZM1168.36 60.4H1174.51L1173.64 83.536H1169.23L1168.36 60.4ZM1171.43 94.576C1170.38 94.576 1169.48 94.224 1168.75 93.52C1168.01 92.784 1167.64 91.904 1167.64 90.88C1167.64 89.856 1168.01 88.976 1168.75 88.24C1169.48 87.472 1170.38 87.088 1171.43 87.088C1172.43 87.088 1173.29 87.472 1174.03 88.24C1174.76 88.976 1175.13 89.856 1175.13 90.88C1175.13 91.904 1174.76 92.784 1174.03 93.52C1173.32 94.224 1172.46 94.576 1171.43 94.576ZM502.629 218.576C498.117 218.576 494.677 217.552 492.309 215.504C489.941 213.424 488.757 210.368 488.757 206.336V196.064C488.757 192.032 489.941 188.992 492.309 186.944C494.677 184.864 498.117 183.824 502.629 183.824C505.765 183.824 508.325 184.352 510.309 185.408C512.325 186.432 513.925 187.984 515.109 190.064L510.261 193.424C509.269 191.888 508.229 190.784 507.141 190.112C506.085 189.44 504.581 189.104 502.629 189.104C500.165 189.104 498.357 189.696 497.205 190.88C496.085 192.032 495.525 193.76 495.525 196.064V206.336C495.525 208.64 496.085 210.384 497.205 211.568C498.357 212.72 500.165 213.296 502.629 213.296C504.741 213.296 506.373 212.944 507.525 212.24C508.709 211.504 509.765 210.336 510.693 208.736L515.493 212.288C514.469 213.76 513.413 214.944 512.325 215.84C511.237 216.736 509.909 217.424 508.341 217.904C506.805 218.352 504.901 218.576 502.629 218.576ZM540.702 211.04C540.702 211.904 540.862 212.608 541.182 213.152C541.534 213.696 542.142 214.288 543.006 214.928L538.83 218.576C536.974 217.648 535.71 216.4 535.038 214.832C534.238 216.08 533.23 217.024 532.014 217.664C530.798 218.272 529.294 218.576 527.502 218.576C524.494 218.576 522.094 217.584 520.302 215.6C518.542 213.584 517.662 210.88 517.662 207.488V205.952C517.662 203.936 518.03 202.096 518.766 200.432C519.502 198.736 520.606 197.392 522.078 196.4C523.582 195.376 525.39 194.864 527.502 194.864C530.51 194.864 532.83 195.792 534.462 197.648V189.536C534.462 188.672 534.286 187.968 533.934 187.424C533.614 186.88 533.022 186.288 532.158 185.648L536.334 182C537.966 182.832 539.102 183.792 539.742 184.88C540.382 185.936 540.702 187.424 540.702 189.344V211.04ZM534.462 203.6C533.726 200.976 532.014 199.664 529.326 199.664C527.598 199.664 526.254 200.288 525.294 201.536C524.366 202.752 523.902 204.224 523.902 205.952V207.488C523.902 209.248 524.366 210.736 525.294 211.952C526.222 213.168 527.566 213.776 529.326 213.776C532.014 213.776 533.726 212.464 534.462 209.84V203.6ZM556.255 218.576C552.927 218.576 550.367 217.808 548.575 216.272C546.783 214.736 545.887 212.544 545.887 209.696V203.744C545.887 200.896 546.783 198.704 548.575 197.168C550.367 195.632 552.927 194.864 556.255 194.864C559.583 194.864 562.143 195.632 563.935 197.168C565.727 198.704 566.623 200.896 566.623 203.744V209.696C566.623 212.544 565.727 214.736 563.935 216.272C562.143 217.808 559.583 218.576 556.255 218.576ZM556.255 213.776C557.567 213.776 558.575 213.424 559.279 212.72C560.015 212.016 560.383 211.008 560.383 209.696V203.744C560.383 202.432 560.015 201.424 559.279 200.72C558.575 200.016 557.567 199.664 556.255 199.664C554.943 199.664 553.919 200.016 553.183 200.72C552.479 201.424 552.127 202.432 552.127 203.744V209.696C552.127 211.008 552.479 212.016 553.183 212.72C553.919 213.424 554.943 213.776 556.255 213.776ZM585.557 218.576C580.981 218.576 577.477 217.552 575.045 215.504C572.645 213.424 571.445 210.368 571.445 206.336V196.064C571.445 192.032 572.645 188.992 575.045 186.944C577.477 184.864 580.981 183.824 585.557 183.824C588.853 183.824 591.541 184.352 593.621 185.408C595.733 186.464 597.397 188.032 598.613 190.112L593.477 193.616C592.485 192.016 591.429 190.864 590.309 190.16C589.189 189.456 587.605 189.104 585.557 189.104C582.997 189.104 581.125 189.696 579.941 190.88C578.789 192.032 578.213 193.76 578.213 196.064V206.336C578.213 208.64 578.789 210.384 579.941 211.568C581.125 212.72 582.997 213.296 585.557 213.296C587.797 213.296 589.493 212.928 590.645 212.192C591.829 211.424 592.421 210.32 592.421 208.88V207.392C592.421 205.408 591.509 204.416 589.685 204.416H584.213V199.136H591.605C594.165 199.136 596.053 199.728 597.269 200.912C598.485 202.096 599.093 203.936 599.093 206.432V209.36C599.093 212.24 597.877 214.496 595.445 216.128C593.013 217.76 589.717 218.576 585.557 218.576ZM617.9 218.576C613.324 218.576 609.82 217.552 607.388 215.504C604.988 213.424 603.788 210.368 603.788 206.336V196.064C603.788 192.032 604.988 188.992 607.388 186.944C609.82 184.864 613.324 183.824 617.9 183.824C621.196 183.824 623.884 184.352 625.964 185.408C628.076 186.464 629.74 188.032 630.956 190.112L625.82 193.616C624.828 192.016 623.772 190.864 622.652 190.16C621.532 189.456 619.948 189.104 617.9 189.104C615.34 189.104 613.468 189.696 612.284 190.88C611.132 192.032 610.556 193.76 610.556 196.064V206.336C610.556 208.64 611.132 210.384 612.284 211.568C613.468 212.72 615.34 213.296 617.9 213.296C620.14 213.296 621.836 212.928 622.988 212.192C624.172 211.424 624.764 210.32 624.764 208.88V207.392C624.764 205.408 623.852 204.416 622.028 204.416H616.556V199.136H623.948C626.508 199.136 628.396 199.728 629.612 200.912C630.828 202.096 631.436 203.936 631.436 206.432V209.36C631.436 212.24 630.22 214.496 627.788 216.128C625.356 217.76 622.06 218.576 617.9 218.576ZM646.02 218.576C642.692 218.576 640.132 217.808 638.34 216.272C636.548 214.736 635.652 212.544 635.652 209.696V203.744C635.652 200.896 636.548 198.704 638.34 197.168C640.132 195.632 642.692 194.864 646.02 194.864C649.348 194.864 651.908 195.632 653.7 197.168C655.492 198.704 656.388 200.896 656.388 203.744V209.696C656.388 212.544 655.492 214.736 653.7 216.272C651.908 217.808 649.348 218.576 646.02 218.576ZM646.02 213.776C647.332 213.776 648.34 213.424 649.044 212.72C649.78 212.016 650.148 211.008 650.148 209.696V203.744C650.148 202.432 649.78 201.424 649.044 200.72C648.34 200.016 647.332 199.664 646.02 199.664C644.708 199.664 643.684 200.016 642.948 200.72C642.244 201.424 641.892 202.432 641.892 203.744V209.696C641.892 211.008 642.244 212.016 642.948 212.72C643.684 213.424 644.708 213.776 646.02 213.776ZM698.567 189.488H689.495V183.824H698.567V189.488ZM683.207 189.488H677.879V194.192H710.135V189.488H704.855V183.824H710.471V179.12H677.591V183.824H683.207V189.488ZM684.983 214.832H709.175V203.888H678.647V208.448H702.935V210.608H678.695V221.792H710.327V217.232H684.983V214.832ZM674.087 196.448V201.44H714.023V196.448H674.087ZM746.372 193.664H749.924V207.632H755.924V177.92H749.924V188.624H746.372V178.688H740.468V203.984H746.372V193.664ZM738.356 197.6C734.372 198.368 730.82 198.608 726.116 198.704V194.528H736.724V180.992H719.972V185.936H730.628V189.92H720.02V203.696H723.092C729.668 203.696 733.94 203.552 738.932 202.544L738.356 197.6ZM743.876 205.76H737.54V206.528C737.54 211.088 732.98 215.888 723.476 217.088L725.924 221.984C732.932 220.976 737.972 218.048 740.708 213.968C743.348 218.048 748.436 220.976 755.444 221.984L757.94 217.088C748.388 215.888 743.876 211.088 743.876 206.528V205.76ZM773.248 212.192H791.344V216.656H773.248V212.192ZM767.056 221.6H797.584V207.2H767.056V221.6ZM777.808 184.16H786.88V190.832H777.808V184.16ZM785.488 199.328V195.872H798.4V190.832H793.168V184.16H798.784V179.12H765.904V184.16H771.52V190.832H766.192V195.872H779.152V199.328H762.4V204.32H802.336V199.328H785.488ZM816.492 207.2C814.092 207.2 812.652 203.888 812.652 197.072C812.652 190.304 814.092 186.992 816.492 186.992C818.94 186.992 820.332 190.304 820.332 197.072C820.332 203.888 818.94 207.2 816.492 207.2ZM829.5 194.192H825.996C825.276 185.936 821.724 181.04 816.492 181.04C810.636 181.04 806.94 187.088 806.94 197.072C806.94 207.104 810.636 213.152 816.492 213.152C821.868 213.152 825.468 207.968 826.044 199.328H829.5V220.16H835.404V178.64H829.5V194.192ZM838.476 177.872V222.08H844.476V177.872H838.476ZM867.32 181.328H860.936V187.712C860.936 196.112 857.576 204.704 850.088 208.16L854.024 213.248C858.968 210.752 862.28 206.144 864.2 200.48C866.024 205.808 869.24 210.128 874.088 212.48L877.832 207.44C870.536 204.176 867.32 196.064 867.32 187.712V181.328ZM881.48 177.872V191.744H872.984V196.832H881.48V222.224H887.816V177.872H881.48ZM930.882 203.6V207.92H939.186V211.424H945.522V177.92H939.186V203.6H930.882ZM922.386 184.016C925.314 184.016 927.378 185.168 927.378 187.328C927.378 189.488 925.314 190.592 922.386 190.592C919.41 190.592 917.346 189.488 917.346 187.328C917.346 185.168 919.41 184.016 922.386 184.016ZM922.386 195.2C928.818 195.2 933.378 192.032 933.378 187.328C933.378 182.624 928.818 179.408 922.386 179.408C915.906 179.408 911.394 182.624 911.394 187.328C911.394 192.032 915.906 195.2 922.386 195.2ZM920.034 216.32V210.272H926.13V201.92C929.682 201.632 933.234 201.248 936.69 200.672L936.258 196.16C926.946 197.36 916.194 197.456 908.13 197.504L908.946 202.544C912.258 202.544 915.954 202.496 919.842 202.304V208.208H913.698V221.36H946.482V216.32H920.034ZM965.246 207.92C962.27 207.92 960.062 205.904 960.062 202.544C960.062 199.184 962.27 197.12 965.246 197.12C968.222 197.12 970.382 199.184 970.382 202.496C970.382 205.904 968.222 207.92 965.246 207.92ZM965.246 191.984C958.814 191.984 954.014 196.352 954.014 202.496C954.014 208.736 958.814 213.104 965.246 213.104C971.63 213.104 976.382 208.736 976.382 202.496C976.382 196.352 971.63 191.984 965.246 191.984ZM968.366 178.688H962.03V184.448H952.238V189.488H977.966V184.448H968.366V178.688ZM993.518 195.2H987.182V177.92H980.846V222.128H987.182V200.432H993.518V195.2ZM1032.25 189.872H1007.91V179.504H1001.58V194.912H1032.25V189.872ZM1007.53 208.016H1001.15V221.168H1032.49V216.128H1007.53V208.016ZM996.634 199.424V204.512H1036.67V199.424H996.634ZM1056.26 182.432V187.568H1070.71C1069.56 197.36 1064.08 204.368 1053.81 209.648L1057.36 214.496C1072.05 207.056 1077.09 195.68 1077.09 182.432H1056.26ZM1095.04 194.768H1088.85V177.872H1082.52V222.032H1088.85V200H1095.04V194.768ZM1105.22 210.992H1129.02V221.936H1135.36V206H1105.22V210.992ZM1129.02 177.92V185.024H1121.49C1121.73 183.632 1121.87 182.192 1121.87 180.704H1101.38V185.744H1115.06C1114.1 191.744 1108.62 196.688 1098.83 199.184L1101.28 204.128C1110.59 201.632 1117.02 196.928 1120 190.112H1129.02V194.432H1119.28V199.52H1129.02V204.128H1135.36V177.968L1129.02 177.92ZM1152.49 207.2C1150.09 207.2 1148.65 203.888 1148.65 197.072C1148.65 190.304 1150.09 186.992 1152.49 186.992C1154.94 186.992 1156.33 190.304 1156.33 197.072C1156.33 203.888 1154.94 207.2 1152.49 207.2ZM1165.5 194.192H1162C1161.28 185.936 1157.72 181.04 1152.49 181.04C1146.64 181.04 1142.94 187.088 1142.94 197.072C1142.94 207.104 1146.64 213.152 1152.49 213.152C1157.87 213.152 1161.47 207.968 1162.04 199.328H1165.5V220.16H1171.4V178.64H1165.5V194.192ZM1174.48 177.872V222.08H1180.48V177.872H1174.48ZM1210.63 186.608H1215.09V199.136C1213.61 199.232 1212.12 199.28 1210.63 199.328V186.608ZM1226.18 198.272C1224.55 198.464 1222.87 198.656 1221.14 198.752V186.608H1224.65V181.568H1201.08V186.608H1204.53V199.424L1199.93 199.472L1200.6 204.608C1207.94 204.608 1217.93 204.416 1226.61 202.88L1226.18 198.272ZM1212.79 207.44H1206.45V221.36H1236.55V216.32H1212.79V207.44ZM1234.97 190.4V177.92H1228.63V210.464H1234.97V195.632H1240.82V190.4H1234.97ZM1251.47 187.424H1257.14V206.144H1251.47V187.424ZM1245.57 211.088H1262.99V182.432H1245.57V211.088ZM1276.24 177.872V194.768H1272.55V178.592H1266.64V220.112H1272.55V199.856H1276.24V222.08H1282.24V177.872H1276.24ZM1301.25 207.92C1298.27 207.92 1296.06 205.904 1296.06 202.544C1296.06 199.184 1298.27 197.12 1301.25 197.12C1304.22 197.12 1306.38 199.184 1306.38 202.496C1306.38 205.904 1304.22 207.92 1301.25 207.92ZM1301.25 191.984C1294.81 191.984 1290.01 196.352 1290.01 202.496C1290.01 208.736 1294.81 213.104 1301.25 213.104C1307.63 213.104 1312.38 208.736 1312.38 202.496C1312.38 196.352 1307.63 191.984 1301.25 191.984ZM1304.37 178.688H1298.03V184.448H1288.24V189.488H1313.97V184.448H1304.37V178.688ZM1329.52 195.2H1323.18V177.92H1316.85V222.128H1323.18V200.432H1329.52V195.2ZM1346.75 181.76H1340.65V189.2C1340.65 196.736 1338.3 204.656 1331.82 208.592L1335.61 213.344C1339.59 210.944 1342.19 206.72 1343.72 201.824C1345.11 206.288 1347.47 210.032 1351.21 212.336L1354.67 207.44C1348.67 203.456 1346.75 196.112 1346.75 188.96V181.76ZM1355.58 192.848H1350.01V197.984H1355.58V220.16H1361.48V178.64H1355.58V192.848ZM1364.55 177.92V222.128H1370.55V177.92H1364.55ZM1391.91 203.408C1393.45 203.696 1395.03 203.84 1396.76 203.84C1398.49 203.84 1400.12 203.696 1401.65 203.408V211.856H1391.91V203.408ZM1396.76 185.072C1402.9 185.072 1407.03 187.568 1407.03 191.984C1407.03 196.352 1402.9 198.896 1396.76 198.896C1390.61 198.896 1386.53 196.352 1386.53 191.984C1386.53 187.568 1390.61 185.072 1396.76 185.072ZM1407.94 211.856V201.056C1411.25 198.992 1413.27 195.824 1413.27 191.984C1413.27 184.736 1406.31 180.08 1396.76 180.08C1387.25 180.08 1380.29 184.736 1380.29 191.984C1380.25 195.824 1382.26 198.992 1385.62 201.056V211.856H1376.79V216.992H1416.82V211.856H1407.94ZM583.148 243.52H568.364V239.728H562.028V243.52H547.148V248.272H583.148V243.52ZM556.412 272.416H550.076V283.36H580.748V278.464H556.412V272.416ZM556.892 256.24C556.892 254.608 559.484 253.936 565.196 253.936C570.956 253.936 573.548 254.608 573.548 256.24C573.548 257.824 570.956 258.544 565.196 258.544C559.484 258.544 556.892 257.824 556.892 256.24ZM568.364 265.408V262.864C575.852 262.336 580.028 260.08 580.028 256.24C580.028 251.872 574.604 249.52 565.196 249.52C555.836 249.52 550.412 251.872 550.412 256.24C550.412 260.08 554.588 262.336 562.028 262.864V265.408H545.18V270.304H585.212V265.408H568.364ZM605.608 249.376H614.392V244.144H590.104V249.376H599.272V251.824C599.272 259.12 595.672 267.424 588.424 270.784L591.976 275.824C597.016 273.424 600.568 268.576 602.536 262.816C604.504 268.048 607.96 272.464 612.856 274.72L616.36 269.728C609.112 266.368 605.608 258.544 605.608 251.824V249.376ZM630.424 256.768H623.992V239.92H617.656V284.128H623.992V262H630.424V256.768ZM683.714 239.92H677.33V271.888H683.714V239.92ZM674.546 261.568C667.394 259.216 664.178 253.792 664.178 248.608V248.08H672.914V243.088H648.866V248.08H657.746V248.608C657.746 254.128 654.53 259.936 647.186 262.24L650.402 267.184C655.538 265.504 659.09 262.096 661.058 257.776C663.074 261.712 666.434 264.88 671.33 266.416L674.546 261.568ZM660.626 278.32V269.008H654.29V283.36H684.818V278.32H660.626ZM719.566 255.952H722.83V267.568H728.83V239.92H722.83V250.816H719.566V240.736H713.662V266.176H719.566V255.952ZM712.414 244.432H704.782V240.4H698.542V244.432H690.91V249.328H712.414V244.432ZM697.822 258.448C697.822 256.384 699.406 255.28 701.758 255.28C704.11 255.28 705.646 256.384 705.646 258.448C705.646 260.512 704.11 261.664 701.758 261.664C699.406 261.664 697.822 260.512 697.822 258.448ZM711.262 258.448C711.262 253.888 707.326 250.768 701.758 250.768C696.142 250.768 692.206 253.888 692.206 258.448C692.206 263.008 696.142 266.176 701.758 266.176C707.326 266.176 711.262 263.008 711.262 258.448ZM713.854 279.424C707.95 279.424 704.974 278.416 704.974 276.112C704.974 273.808 707.95 272.8 713.854 272.8C719.758 272.8 722.734 273.808 722.734 276.112C722.734 278.416 719.758 279.424 713.854 279.424ZM713.854 268.048C704.35 268.048 698.638 270.976 698.638 276.112C698.638 281.248 704.35 284.128 713.854 284.128C723.358 284.128 729.07 281.248 729.07 276.112C729.07 270.976 723.358 268.048 713.854 268.048ZM748.074 269.92C745.098 269.92 742.89 267.904 742.89 264.544C742.89 261.184 745.098 259.12 748.074 259.12C751.05 259.12 753.21 261.184 753.21 264.496C753.21 267.904 751.05 269.92 748.074 269.92ZM748.074 253.984C741.642 253.984 736.842 258.352 736.842 264.496C736.842 270.736 741.642 275.104 748.074 275.104C754.458 275.104 759.21 270.736 759.21 264.496C759.21 258.352 754.458 253.984 748.074 253.984ZM751.194 240.688H744.858V246.448H735.066V251.488H760.794V246.448H751.194V240.688ZM776.346 257.2H770.01V239.92H763.674V284.128H770.01V262.432H776.346V257.2ZM815.078 251.872H790.742V241.504H784.406V256.912H815.078V251.872ZM790.358 270.016H783.974V283.168H815.318V278.128H790.358V270.016ZM779.462 261.424V266.512H819.494V261.424H779.462ZM840.912 258.256C849.264 257.536 854.688 254.416 857.04 250.24C859.392 254.416 864.816 257.536 873.12 258.256L875.328 253.36C867.072 252.64 862.752 249.76 861.648 246.784H873.408V241.744H840.72V246.784H852.432C851.328 249.76 847.008 252.64 838.8 253.36L840.912 258.256ZM865.872 276.16C865.872 278.368 862.848 279.328 856.944 279.328C851.04 279.328 848.016 278.368 848.016 276.16C848.016 273.904 851.04 272.944 856.944 272.944C862.848 272.944 865.872 273.904 865.872 276.16ZM877.008 265.024V259.984H837.072V265.024H853.872V268.24C846.192 268.864 841.632 271.6 841.632 276.16C841.632 281.248 847.392 284.128 856.944 284.128C866.496 284.128 872.304 281.248 872.304 276.16C872.304 271.648 867.792 268.912 860.208 268.288V265.024H877.008ZM915.644 269.104C917.42 259.696 917.42 253.456 917.42 247.936V243.712H885.308V248.752H911.084C911.084 253.888 910.988 260.032 909.308 268.384L915.644 269.104ZM901.724 273.712V258.496H895.388V273.712H881.276V278.8H921.26V273.712H901.724ZM926.968 244.48V249.52H941.32C940.456 259.168 935.896 266.032 924.856 271.6L928.216 276.496C943.48 268.864 947.752 257.824 947.752 244.48H926.968ZM956.008 239.92V256.864H947.464V262H956.008V284.128H962.344V239.92H956.008ZM976.885 261.328H987.397V244.192H970.693V249.28H981.301V256.336H970.741V274.336H973.861C979.189 274.336 983.989 274.192 989.653 273.28L989.173 268.144C984.757 268.816 980.917 269.056 976.885 269.152V261.328ZM1001.46 239.872V256.576H997.477V240.688H991.573V282.016H997.477V261.664H1001.46V284.08H1007.46V239.872H1001.46ZM1024.21 254.512H1043.12V260.704H1024.21V254.512ZM1036.83 273.856V265.744H1049.36V242.656H1043.12V249.52H1024.21V242.656H1017.92V265.744H1030.5V273.856H1013.7V278.992H1053.73V273.856H1036.83ZM1065.87 249.136H1080.17V244H1059.58V273.616H1063.33C1071.01 273.616 1077.05 273.376 1083.73 272.176L1083.1 266.944C1077.39 267.904 1072.16 268.24 1065.87 268.336V249.136ZM1098.89 256.24H1092.46V239.92H1086.13V284.224H1092.46V261.472H1098.89V256.24ZM1117.05 243.232V248.272H1131.45C1130.44 254.464 1124.97 259.6 1115.13 262.288L1117.77 267.328C1130.92 263.536 1138.31 255.232 1138.31 243.232H1117.05ZM1128.04 268.384H1121.7V283.36H1151.75V278.32H1128.04V268.384ZM1150.21 252.256V239.92H1143.88V271.552H1150.21V257.44H1156.12V252.256H1150.21ZM1190.24 272.512H1196.58V239.92H1190.24V247.648H1184.87V252.736H1190.24V256.576H1184.87V261.664H1190.24V272.512ZM1170.32 248.128H1174.45V261.76C1173.06 261.856 1171.67 261.904 1170.32 261.904V248.128ZM1184.58 261.04C1183.28 261.184 1181.94 261.328 1180.55 261.424V248.128H1184.05V243.088H1160.72V248.128H1164.23V262.048C1162.59 262.048 1161.06 262.048 1159.62 262.048L1160.29 267.184C1167.25 267.184 1176.75 267.04 1184.96 265.648L1184.58 261.04ZM1173.78 278.32V270.064H1167.44V283.36H1197.59V278.32H1173.78ZM1229.84 243.808H1219.95V239.584H1213.57V243.808H1203.73V248.752H1229.79L1229.84 243.808ZM1211.98 257.776C1211.98 255.664 1213.95 254.56 1216.78 254.56C1219.61 254.56 1221.58 255.664 1221.58 257.776C1221.58 259.888 1219.61 260.992 1216.78 260.992C1213.95 260.992 1211.98 259.888 1211.98 257.776ZM1227.63 257.776C1227.63 253.072 1223.17 249.952 1216.78 249.952C1210.4 249.952 1205.93 253.072 1205.93 257.776C1205.93 262.432 1210.4 265.6 1216.78 265.6C1223.17 265.6 1227.63 262.432 1227.63 257.776ZM1232.29 278.704H1216.11V275.584H1232.29V278.704ZM1232.29 270.832H1216.11V267.472H1209.82V283.6H1238.57V267.472H1232.29V270.832ZM1244.43 250.528H1238.57V239.968H1232.24V265.84H1238.57V255.712H1244.43V250.528ZM1256.52 244.096H1250.24V273.232H1254.17C1260.89 273.232 1268.24 272.752 1275.77 271.168L1275.1 265.888C1268.62 267.184 1262.33 267.664 1256.52 267.808V244.096ZM1278.51 239.872V284.08H1284.84V239.872H1278.51ZM1300.1 249.136H1314.41V244H1293.82V273.616H1297.56C1305.24 273.616 1311.29 273.376 1317.96 272.176L1317.34 266.944C1311.62 267.904 1306.39 268.24 1300.1 268.336V249.136ZM1333.13 256.24H1326.7V239.92H1320.36V284.224H1326.7V261.472H1333.13V256.24ZM1351.71 246.4H1357.86L1356.99 269.536H1352.58L1351.71 246.4ZM1354.78 280.576C1353.73 280.576 1352.83 280.224 1352.1 279.52C1351.36 278.784 1350.99 277.904 1350.99 276.88C1350.99 275.856 1351.36 274.976 1352.1 274.24C1352.83 273.472 1353.73 273.088 1354.78 273.088C1355.78 273.088 1356.64 273.472 1357.38 274.24C1358.11 274.976 1358.48 275.856 1358.48 276.88C1358.48 277.904 1358.11 278.784 1357.38 279.52C1356.67 280.224 1355.81 280.576 1354.78 280.576Z" fill="black"/>
<g filter="url(#filter0_d_0:1)">
<rect x="463" y="338" width="282" height="297" rx="25" fill="#406AFF"/>
</g>
<g filter="url(#filter1_d_0:1)">
<rect x="821" y="338" width="282" height="297" rx="25" fill="#406AFF"/>
</g>
<g filter="url(#filter2_d_0:1)">
<rect x="1161" y="338" width="282" height="297" rx="25" fill="#406AFF"/>
</g>
<path d="M550.61 379.772C549.65 380.732 548.546 381.476 547.298 382.004C546.074 382.508 544.79 382.76 543.446 382.76L542.006 377.36C543.47 377.36 544.706 376.832 545.714 375.776C546.722 374.696 547.226 373.1 547.226 370.988V367.64H553.958V370.988C553.958 373.1 554.462 374.696 555.47 375.776C556.478 376.832 557.714 377.36 559.178 377.36L557.738 382.76C556.394 382.76 555.098 382.508 553.85 382.004C552.626 381.476 551.546 380.732 550.61 379.772ZM570.626 372.536V377.576H567.926V382.58H561.158V367.64H567.926V372.536H570.626ZM562.274 383.912C563.906 383.912 565.25 384.44 566.306 385.496C567.386 386.528 567.926 387.848 567.926 389.456C567.926 391.064 567.386 392.396 566.306 393.452C565.25 394.484 563.906 395 562.274 395H549.098C547.466 395 546.11 394.484 545.03 393.452C543.974 392.396 543.446 391.064 543.446 389.456C543.446 387.848 543.974 386.528 545.03 385.496C546.11 384.44 547.466 383.912 549.098 383.912H562.274ZM560.474 390.14C560.666 390.14 560.822 390.08 560.942 389.96C561.086 389.816 561.158 389.648 561.158 389.456C561.158 389.264 561.086 389.108 560.942 388.988C560.822 388.844 560.666 388.772 560.474 388.772H550.898C550.706 388.772 550.538 388.844 550.394 388.988C550.274 389.108 550.214 389.264 550.214 389.456C550.214 389.648 550.274 389.816 550.394 389.96C550.538 390.08 550.706 390.14 550.898 390.14H560.474ZM597.985 373.76V378.224H573.505V373.76H576.925L576.709 372.392H573.505V367.928H597.985V372.392H594.745L594.565 373.76H597.985ZM587.797 373.76L587.977 372.392H583.477L583.693 373.76H587.797ZM598.705 383.768H589.129V384.992H597.985V395H573.505V384.992H582.361V383.768H572.785V379.448H598.705V383.768ZM591.253 390.68V389.312H580.237V390.68H591.253ZM628.327 367.928H603.739V378.08H628.327V373.544H610.507V372.428H628.327V367.928ZM629.047 379.196H603.019V383.732H629.047V379.196ZM628.579 389.924C628.579 388.388 628.063 387.164 627.031 386.252C625.999 385.316 624.631 384.848 622.927 384.848H609.751C608.047 384.848 606.679 385.316 605.647 386.252C604.615 387.164 604.099 388.388 604.099 389.924C604.099 391.46 604.615 392.696 605.647 393.632C606.679 394.544 608.047 395 609.751 395H622.927C624.631 395 625.999 394.544 627.031 393.632C628.063 392.696 628.579 391.46 628.579 389.924ZM621.127 389.24C621.319 389.24 621.475 389.288 621.595 389.384C621.739 389.48 621.811 389.612 621.811 389.78C621.811 389.948 621.739 390.08 621.595 390.176C621.475 390.272 621.319 390.32 621.127 390.32H611.551C611.359 390.32 611.191 390.272 611.047 390.176C610.927 390.08 610.867 389.948 610.867 389.78C610.867 389.612 610.927 389.48 611.047 389.384C611.191 389.288 611.359 389.24 611.551 389.24H621.127ZM640.487 377H658.559V368.072H634.079V371.924H651.791V373.184H634.079V382.112H643.223V383.336H633.359V387.296H659.279V383.336H649.991V382.112H658.919V378.296H640.487V377ZM651.791 394.856H658.559V388.484H634.079V392.516H651.791V394.856Z" fill="white"/>
<path d="M956.214 367.28H950.166V378.44H949.086V367.64H943.038V394.64H949.086V383.84H950.166V395H956.214V367.28ZM941.598 393.92V368H936.306V376.1H934.866V368H929.574V393.92H941.598ZM936.306 381.14V388.88H934.866V381.14H936.306ZM973.507 374.3C972.187 375.404 970.531 376.256 968.539 376.856C966.571 377.456 964.387 377.756 961.987 377.756L960.907 373.436C962.635 373.436 964.171 373.196 965.515 372.716C966.883 372.236 967.963 371.564 968.755 370.7C969.571 369.812 970.027 368.804 970.123 367.676H976.891C976.987 368.804 977.431 369.812 978.223 370.7C979.039 371.564 980.119 372.236 981.463 372.716C982.831 373.196 984.379 373.436 986.107 373.436L985.027 377.756C982.627 377.756 980.431 377.456 978.439 376.856C976.471 376.256 974.827 375.404 973.507 374.3ZM976.891 378.98H986.431V383.66H960.547V378.98H970.123V377.036H976.891V378.98ZM980.095 384.632C981.751 384.632 983.107 385.1 984.163 386.036C985.219 386.972 985.747 388.232 985.747 389.816C985.747 391.4 985.219 392.66 984.163 393.596C983.107 394.532 981.751 395 980.095 395H966.919C965.263 395 963.907 394.532 962.851 393.596C961.795 392.66 961.267 391.4 961.267 389.816C961.267 388.232 961.795 386.972 962.851 386.036C963.907 385.1 965.263 384.632 966.919 384.632H980.095ZM978.295 390.5C978.487 390.5 978.643 390.44 978.763 390.32C978.907 390.176 978.979 390.008 978.979 389.816C978.979 389.624 978.907 389.468 978.763 389.348C978.643 389.204 978.487 389.132 978.295 389.132H968.719C968.527 389.132 968.359 389.204 968.215 389.348C968.095 389.468 968.035 389.624 968.035 389.816C968.035 390.008 968.095 390.176 968.215 390.32C968.359 390.44 968.527 390.5 968.719 390.5H978.295Z" fill="white"/>
<path d="M1273.87 367.64H1280.28V395H1273.87V383.84H1272.75V394.64H1266.35V367.64H1272.75V378.44H1273.87V367.64ZM1260.37 373.4V388.16H1265.05V393.56H1253.64V368H1264.37V373.4H1260.37ZM1303.08 373.076V375.488H1309.45L1309.81 368.036H1285.33V373.076H1303.08ZM1284.61 377.036V382.04H1310.53V377.036H1284.61ZM1309.81 383.732H1285.33V395H1309.81V383.732ZM1303.04 388.592V390.14H1292.1V388.592H1303.04ZM1327.81 376.388C1326.51 377.804 1324.88 378.932 1322.91 379.772C1320.97 380.588 1318.76 381.092 1316.29 381.284L1314.85 376.244C1317.61 376.052 1319.85 375.272 1321.58 373.904C1323.33 372.536 1324.28 370.448 1324.42 367.64H1331.19C1331.33 370.448 1332.27 372.536 1334 373.904C1335.75 375.272 1338.01 376.052 1340.77 376.244L1339.33 381.284C1336.85 381.092 1334.63 380.588 1332.67 379.772C1330.72 378.932 1329.1 377.804 1327.81 376.388ZM1314.85 389.24V383.84H1340.77V389.24H1331.23V395H1324.39V389.24H1314.85ZM1363.62 367.64V369.944H1361.46V374.624H1363.62V376.532H1361.46V381.212H1363.62V383.552H1370.35V367.64H1363.62ZM1360.38 377.612V368H1345.08V372.284H1354.33V373.508H1345.08V383.12H1360.74V378.836H1351.81V377.612H1360.38ZM1370.28 389.6C1370.28 388.016 1369.75 386.72 1368.7 385.712C1367.64 384.704 1366.28 384.2 1364.63 384.2H1351.45C1349.8 384.2 1348.44 384.704 1347.38 385.712C1346.33 386.72 1345.8 388.016 1345.8 389.6C1345.8 391.184 1346.33 392.48 1347.38 393.488C1348.44 394.496 1349.8 395 1351.45 395H1364.63C1366.28 395 1367.64 394.496 1368.7 393.488C1369.75 392.48 1370.28 391.184 1370.28 389.6ZM1362.83 388.916C1363.02 388.916 1363.18 388.988 1363.3 389.132C1363.44 389.252 1363.51 389.408 1363.51 389.6C1363.51 389.792 1363.44 389.96 1363.3 390.104C1363.18 390.224 1363.02 390.284 1362.83 390.284H1353.25C1353.06 390.284 1352.89 390.224 1352.75 390.104C1352.63 389.96 1352.57 389.792 1352.57 389.6C1352.57 389.408 1352.63 389.252 1352.75 389.132C1352.89 388.988 1353.06 388.916 1353.25 388.916H1362.83Z" fill="white"/>
<path d="M536.181 443.34H531.981V441.36H529.341V443.34H525.121V445.4H536.181V443.34ZM528.601 449.58C528.601 448.64 529.441 448.12 530.661 448.12C531.901 448.12 532.721 448.64 532.721 449.58C532.721 450.54 531.901 451.06 530.661 451.06C529.441 451.06 528.601 450.54 528.601 449.58ZM531.981 452.92C533.941 452.54 535.221 451.3 535.221 449.58C535.221 447.52 533.341 446.12 530.661 446.12C527.961 446.12 526.081 447.52 526.081 449.58C526.081 451.3 527.361 452.54 529.341 452.92V454.48C527.701 454.52 526.141 454.52 524.761 454.52L525.081 456.66C528.341 456.66 532.601 456.64 536.621 455.9L536.421 453.98C534.981 454.18 533.481 454.28 531.981 454.38V452.92ZM537.381 441.3V459.72H540.021V441.3H537.381ZM552.459 452V453.8H555.919V455.26H558.559V441.3H555.919V452H552.459ZM548.919 443.84C550.139 443.84 550.999 444.32 550.999 445.22C550.999 446.12 550.139 446.58 548.919 446.58C547.679 446.58 546.819 446.12 546.819 445.22C546.819 444.32 547.679 443.84 548.919 443.84ZM548.919 448.5C551.599 448.5 553.499 447.18 553.499 445.22C553.499 443.26 551.599 441.92 548.919 441.92C546.219 441.92 544.339 443.26 544.339 445.22C544.339 447.18 546.219 448.5 548.919 448.5ZM547.939 457.3V454.78H550.479V451.3C551.959 451.18 553.439 451.02 554.879 450.78L554.699 448.9C550.819 449.4 546.339 449.44 542.979 449.46L543.319 451.56C544.699 451.56 546.239 451.54 547.859 451.46V453.92H545.299V459.4H558.959V457.3H547.939ZM562.298 443.18V445.32H568.318C567.838 449.4 565.558 452.32 561.278 454.52L562.758 456.54C568.878 453.44 570.978 448.7 570.978 443.18H562.298ZM578.458 448.32H575.878V441.28H573.238V459.68H575.878V450.5H578.458V448.32ZM592.496 441.3V451.2H595.156V441.3H592.496ZM582.916 452V459.5H595.156V452H592.536V453.72H585.536V452H582.916ZM585.536 455.74H592.536V457.4H585.536V455.74ZM585.136 442.06C582.276 442.06 580.116 443.88 580.116 446.4C580.116 448.94 582.276 450.76 585.136 450.76C587.996 450.76 590.136 448.94 590.136 446.4C590.136 443.88 587.996 442.06 585.136 442.06ZM585.136 444.24C586.536 444.24 587.556 445.06 587.556 446.4C587.556 447.78 586.536 448.58 585.136 448.58C583.736 448.58 582.696 447.78 582.696 446.4C582.696 445.06 583.736 444.24 585.136 444.24ZM606.575 443.5C609.255 443.5 610.515 443.88 610.515 444.7C610.515 445.56 609.255 445.92 606.575 445.92C603.915 445.92 602.655 445.56 602.655 444.7C602.655 443.88 603.915 443.5 606.575 443.5ZM606.575 447.84C610.795 447.84 613.255 446.74 613.255 444.7C613.255 442.68 610.795 441.56 606.575 441.56C602.375 441.56 599.915 442.68 599.915 444.7C599.915 446.74 602.375 447.84 606.575 447.84ZM602.795 456.56H612.875V451.82H600.155V453.76H610.275V454.74H600.175V459.58H613.355V457.6H602.795V456.56ZM598.255 448.72V450.78H614.895V448.72H598.255ZM627.578 453.8C626.338 453.8 625.418 452.96 625.418 451.56C625.418 450.16 626.338 449.3 627.578 449.3C628.818 449.3 629.718 450.16 629.718 451.54C629.718 452.96 628.818 453.8 627.578 453.8ZM627.578 447.16C624.898 447.16 622.898 448.98 622.898 451.54C622.898 454.14 624.898 455.96 627.578 455.96C630.238 455.96 632.218 454.14 632.218 451.54C632.218 448.98 630.238 447.16 627.578 447.16ZM628.878 441.62H626.238V444.02H622.158V446.12H632.878V444.02H628.878V441.62ZM639.358 448.5H636.718V441.3H634.078V459.72H636.718V450.68H639.358V448.5ZM647.797 442.72H645.157V445.4C645.157 448.98 643.637 452.54 640.417 453.92L641.997 456.1C644.197 455.06 645.697 453.08 646.517 450.62C647.337 452.88 648.757 454.7 650.877 455.66L652.377 453.52C649.257 452.18 647.797 448.82 647.797 445.4V442.72ZM653.277 441.28V459.76H655.917V441.28H653.277ZM673.395 453.46C674.135 449.54 674.135 446.94 674.135 444.64V442.88H660.755V444.98H671.495C671.495 447.12 671.455 449.68 670.755 453.16L673.395 453.46ZM667.595 455.38V449.04H664.955V455.38H659.075V457.5H675.735V455.38H667.595ZM679.134 455.18C679.627 455.18 680.007 455.347 680.274 455.68C680.554 456 680.694 456.46 680.694 457.06C680.694 457.833 680.52 458.527 680.174 459.14C679.827 459.753 679.314 460.347 678.634 460.92L677.854 460.18C678.667 459.513 679.127 458.833 679.234 458.14C679.06 458.22 678.854 458.26 678.614 458.26C678.267 458.26 677.994 458.147 677.794 457.92C677.594 457.68 677.494 457.353 677.494 456.94C677.494 456.5 677.647 456.1 677.954 455.74C678.274 455.367 678.667 455.18 679.134 455.18ZM503.923 470.92H505.783V476.14C505.163 476.18 504.543 476.2 503.923 476.22V470.92ZM510.403 475.78C509.723 475.86 509.023 475.94 508.303 475.98V470.92H509.763V468.82H499.943V470.92H501.383V476.26L499.463 476.28L499.743 478.42C502.803 478.42 506.963 478.34 510.583 477.7L510.403 475.78ZM504.823 479.6H502.183V485.4H514.723V483.3H504.823V479.6ZM514.063 472.5V467.3H511.423V480.86H514.063V474.68H516.503V472.5H514.063ZM520.942 471.26H523.302V479.06H520.942V471.26ZM518.482 481.12H525.742V469.18H518.482V481.12ZM531.262 467.28V474.32H529.722V467.58H527.262V484.88H529.722V476.44H531.262V485.7H533.762V467.28H531.262ZM541.68 479.8C540.44 479.8 539.52 478.96 539.52 477.56C539.52 476.16 540.44 475.3 541.68 475.3C542.92 475.3 543.82 476.16 543.82 477.54C543.82 478.96 542.92 479.8 541.68 479.8ZM541.68 473.16C539 473.16 537 474.98 537 477.54C537 480.14 539 481.96 541.68 481.96C544.34 481.96 546.32 480.14 546.32 477.54C546.32 474.98 544.34 473.16 541.68 473.16ZM542.98 467.62H540.34V470.02H536.26V472.12H546.98V470.02H542.98V467.62ZM553.46 474.5H550.82V467.3H548.18V485.72H550.82V476.68H553.46V474.5ZM569.098 479.46C569.838 475.54 569.838 472.94 569.838 470.64V468.88H556.458V470.98H567.198C567.198 473.12 567.158 475.68 566.458 479.16L569.098 479.46ZM563.298 481.38V475.04H560.658V481.38H554.778V483.5H571.438V481.38H563.298ZM594.062 467.3H591.402V477.5H594.062V467.3ZM590.062 474.88C587.082 474.04 585.762 471.9 585.762 469.7V467.94H583.082V469.7C583.082 471.96 581.742 474.24 578.662 475.2L579.942 477.28C582.122 476.6 583.622 475.2 584.462 473.46C585.282 475.06 586.702 476.32 588.802 476.94L590.062 474.88ZM586.382 480.42H589.382V483.44H586.382V480.42ZM591.982 483.44V480.42H594.122V478.34H581.602V480.42H583.782V483.44H581.442V485.5H594.342V483.44H591.982ZM605.481 469.92C607.961 469.92 609.441 470.52 609.441 471.64C609.441 472.78 607.961 473.34 605.481 473.34C603.021 473.34 601.541 472.78 601.541 471.64C601.541 470.52 603.021 469.92 605.481 469.92ZM605.481 475.44C609.501 475.44 612.161 473.98 612.161 471.64C612.161 469.3 609.501 467.84 605.481 467.84C601.481 467.84 598.821 469.3 598.821 471.64C598.821 473.98 601.481 475.44 605.481 475.44ZM601.821 480.04H599.181V485.4H611.941V483.3H601.821V480.04ZM597.161 476.7V478.8H613.801V476.7H597.161ZM631.045 472.06V474.2H633.925V480.74H636.565V467.3H633.925V472.06H631.045ZM632.265 476.3C629.365 475.32 628.105 473.06 628.105 470.88V470.64H631.685V468.54H621.785V470.64H625.405V470.9C625.405 473.22 624.085 475.64 621.065 476.62L622.405 478.72C624.545 478 625.985 476.54 626.805 474.72C627.605 476.38 628.965 477.7 630.985 478.36L632.265 476.3ZM627.065 483.3V479.62H624.425V485.4H636.985V483.3H627.065ZM646.323 471.24H649.983V469.06H639.863V471.24H643.683V472.26C643.683 475.3 642.183 478.76 639.163 480.16L640.643 482.26C642.743 481.26 644.223 479.24 645.043 476.84C645.863 479.02 647.303 480.86 649.343 481.8L650.803 479.72C647.783 478.32 646.323 475.06 646.323 472.26V471.24ZM656.663 474.32H653.983V467.3H651.343V485.72H653.983V476.5H656.663V474.32ZM658.982 469.2V471.3H665.122C664.742 475.38 662.702 478.26 658.002 480.52L659.382 482.6C665.922 479.44 667.822 474.84 667.822 469.2H658.982ZM670.642 467.28V485.7H673.302V467.28H670.642ZM677.38 469.2V471.3H683.52C683.14 475.38 681.1 478.26 676.4 480.52L677.78 482.6C684.32 479.44 686.22 474.84 686.22 469.2H677.38ZM689.04 467.28V485.7H691.7V467.28H689.04ZM706.798 470.3H696.838V474.7H709.718V472.92H699.438V471.96H709.398V467.62H696.798V469.4H706.798V470.3ZM699.278 482.78H709.458V478.4H696.638V480.18H706.838V481.12H696.658V485.56H709.958V483.78H699.278V482.78ZM694.758 475.58V477.48H711.438V475.58H694.758ZM528.388 509.4H521.428V507.76H528.388V509.4ZM528.388 505.76H521.428V504H518.808V511.5H531.008V504H528.388V505.76ZM520.688 500.66C519.348 500.66 518.368 499.84 518.368 498.46C518.368 497.08 519.348 496.26 520.688 496.26C522.048 496.26 523.028 497.08 523.028 498.46C523.028 499.84 522.048 500.66 520.688 500.66ZM528.368 493.3V497.36H525.428C524.908 495.4 523.028 494.06 520.688 494.06C517.928 494.06 515.848 495.9 515.848 498.46C515.848 501.02 517.928 502.86 520.688 502.86C523.068 502.86 524.948 501.5 525.448 499.5H528.368V503.2H531.008V493.3H528.368ZM543.646 507.54V504.8H549.226V502.68H538.546V500.62H548.806V494.48H535.906V496.58H546.206V498.56H535.926V504.8H541.006V507.54H534.006V509.7H550.686V507.54H543.646ZM567.305 501.8H556.985V496.96H567.165V494.82H554.345V503.9H567.305V501.8ZM552.405 507.36V509.52H569.085V507.36H552.405ZM581.663 494.92H577.543V493.16H574.883V494.92H570.783V496.98H581.643L581.663 494.92ZM574.223 500.74C574.223 499.86 575.043 499.4 576.223 499.4C577.403 499.4 578.223 499.86 578.223 500.74C578.223 501.62 577.403 502.08 576.223 502.08C575.043 502.08 574.223 501.62 574.223 500.74ZM580.743 500.74C580.743 498.78 578.883 497.48 576.223 497.48C573.563 497.48 571.703 498.78 571.703 500.74C571.703 502.68 573.563 504 576.223 504C578.883 504 580.743 502.68 580.743 500.74ZM582.683 509.46H575.943V508.16H582.683V509.46ZM582.683 506.18H575.943V504.78H573.323V511.5H585.303V504.78H582.683V506.18ZM587.743 497.72H585.303V493.32H582.663V504.1H585.303V499.88H587.743V497.72ZM592.782 495.04H590.162V507.18H591.802C594.602 507.18 597.662 506.98 600.802 506.32L600.522 504.12C597.822 504.66 595.202 504.86 592.782 504.92V495.04ZM601.942 493.28V511.7H604.582V493.28H601.942ZM610.94 497.14H616.9V495H608.32V507.34H609.88C613.08 507.34 615.6 507.24 618.38 506.74L618.12 504.56C615.74 504.96 613.56 505.1 610.94 505.14V497.14ZM624.7 500.1H622.02V493.3H619.38V511.76H622.02V502.28H624.7V500.1ZM627.819 510.24C627.379 510.24 627.005 510.093 626.699 509.8C626.392 509.493 626.239 509.127 626.239 508.7C626.239 508.273 626.392 507.907 626.699 507.6C627.005 507.28 627.379 507.12 627.819 507.12C628.232 507.12 628.592 507.28 628.899 507.6C629.205 507.907 629.359 508.273 629.359 508.7C629.359 509.127 629.205 509.493 628.899 509.8C628.605 510.093 628.245 510.24 627.819 510.24ZM647.777 501.46C644.877 500.56 643.637 498.4 643.637 496.18V494.3H640.957V495.96C640.957 498.46 639.717 500.92 636.637 501.94L638.017 504.02C640.117 503.28 641.537 501.86 642.337 500.06C643.117 501.62 644.457 502.86 646.397 503.5L647.777 501.46ZM645.397 509.68C643.037 509.68 641.777 509.2 641.777 508.16C641.777 507.14 643.037 506.66 645.397 506.66C647.737 506.66 648.997 507.14 648.997 508.16C648.997 509.2 647.737 509.68 645.397 509.68ZM645.397 504.62C641.557 504.62 639.157 505.94 639.157 508.16C639.157 510.4 641.557 511.72 645.397 511.72C649.217 511.72 651.617 510.4 651.617 508.16C651.617 505.94 649.217 504.62 645.397 504.62ZM651.417 497.58V493.32H648.777V504.2H651.417V499.76H653.857V497.58H651.417ZM665.515 498.68H661.735V495.9H665.515V498.68ZM659.115 498.68H656.895V500.78H670.335V498.68H668.135V495.9H670.475V493.8H656.775V495.9H659.115V498.68ZM667.375 509.44H659.835V507.58H667.375V509.44ZM671.955 504.02V501.92H655.315V504.02H662.315V505.52H657.255V511.5H669.975V505.52H664.955V504.02H671.955ZM680.574 501.02H677.074V496.72H680.574V501.02ZM686.474 498.06V499.64H683.154V498.06H686.474ZM683.154 501.74H686.474V504.1H689.114V493.3H686.474V495.96H683.154V494.62H674.474V503.1H683.154V501.74ZM682.874 509.7C680.474 509.7 679.214 509.2 679.214 508.14C679.214 507.08 680.474 506.58 682.874 506.58C685.294 506.58 686.554 507.08 686.554 508.14C686.554 509.2 685.294 509.7 682.874 509.7ZM682.874 504.56C678.974 504.56 676.574 505.88 676.574 508.14C676.574 510.4 678.974 511.72 682.874 511.72C686.794 511.72 689.194 510.4 689.194 508.14C689.194 505.88 686.794 504.56 682.874 504.56ZM693.792 507.18C694.285 507.18 694.665 507.347 694.932 507.68C695.212 508 695.352 508.46 695.352 509.06C695.352 509.833 695.179 510.527 694.832 511.14C694.485 511.753 693.972 512.347 693.292 512.92L692.512 512.18C693.325 511.513 693.785 510.833 693.892 510.14C693.719 510.22 693.512 510.26 693.272 510.26C692.925 510.26 692.652 510.147 692.452 509.92C692.252 509.68 692.152 509.353 692.152 508.94C692.152 508.5 692.305 508.1 692.612 507.74C692.932 507.367 693.325 507.18 693.792 507.18ZM514.622 527.46C511.722 526.56 510.482 524.4 510.482 522.18V520.3H507.802V521.96C507.802 524.46 506.562 526.92 503.482 527.94L504.862 530.02C506.962 529.28 508.382 527.86 509.182 526.06C509.962 527.62 511.302 528.86 513.242 529.5L514.622 527.46ZM512.242 535.68C509.882 535.68 508.622 535.2 508.622 534.16C508.622 533.14 509.882 532.66 512.242 532.66C514.582 532.66 515.842 533.14 515.842 534.16C515.842 535.2 514.582 535.68 512.242 535.68ZM512.242 530.62C508.402 530.62 506.002 531.94 506.002 534.16C506.002 536.4 508.402 537.72 512.242 537.72C516.062 537.72 518.462 536.4 518.462 534.16C518.462 531.94 516.062 530.62 512.242 530.62ZM518.262 523.58V519.32H515.622V530.2H518.262V525.76H520.702V523.58H518.262ZM532.361 524.68H528.581V521.9H532.361V524.68ZM525.961 524.68H523.741V526.78H537.181V524.68H534.981V521.9H537.321V519.8H523.621V521.9H525.961V524.68ZM534.221 535.44H526.681V533.58H534.221V535.44ZM538.801 530.02V527.92H522.161V530.02H529.161V531.52H524.101V537.5H536.821V531.52H531.801V530.02H538.801ZM553.179 519.28V537.76H555.819V519.28H553.179ZM545.919 520.58C543.139 520.58 541.079 523.1 541.079 527.14C541.079 531.2 543.139 533.74 545.919 533.74C548.699 533.74 550.759 531.2 550.759 527.14C550.759 523.1 548.699 520.58 545.919 520.58ZM545.919 522.96C547.279 522.96 548.219 524.42 548.219 527.14C548.219 529.88 547.279 531.34 545.919 531.34C544.559 531.34 543.619 529.88 543.619 527.14C543.619 524.42 544.559 522.96 545.919 522.96ZM559.858 520.96V533.34H568.718V520.96H559.858ZM566.118 523.04V531.26H562.458V523.04H566.118ZM571.578 519.3V537.76H574.218V519.3H571.578ZM584.476 523.24H588.276V521.06H577.956V523.24H581.796V524.26C581.796 527.4 580.296 530.78 577.216 532.16L578.716 534.26C580.876 533.28 582.356 531.26 583.176 528.86C583.996 531.08 585.456 532.88 587.596 533.8L589.036 531.72C585.956 530.44 584.476 527.26 584.476 524.26V523.24ZM589.976 519.3V537.72H592.616V519.3H589.976ZM597.435 533.18C597.928 533.18 598.308 533.347 598.575 533.68C598.855 534 598.995 534.46 598.995 535.06C598.995 535.833 598.821 536.527 598.475 537.14C598.128 537.753 597.615 538.347 596.935 538.92L596.155 538.18C596.968 537.513 597.428 536.833 597.535 536.14C597.361 536.22 597.155 536.26 596.915 536.26C596.568 536.26 596.295 536.147 596.095 535.92C595.895 535.68 595.795 535.353 595.795 534.94C595.795 534.5 595.948 534.1 596.255 533.74C596.575 533.367 596.968 533.18 597.435 533.18ZM607.2 521.18V523.32H613.22C612.74 527.4 610.46 530.32 606.18 532.52L607.66 534.54C613.78 531.44 615.88 526.7 615.88 521.18H607.2ZM623.36 526.32H620.78V519.28H618.14V537.68H620.78V528.5H623.36V526.32ZM627.598 533.08H637.518V537.64H640.158V531H627.598V533.08ZM637.518 519.3V522.26H634.378C634.478 521.68 634.538 521.08 634.538 520.46H625.998V522.56H631.698C631.298 525.06 629.018 527.12 624.938 528.16L625.958 530.22C629.838 529.18 632.518 527.22 633.758 524.38H637.518V526.18H633.458V528.3H637.518V530.22H640.158V519.32L637.518 519.3ZM644.837 533.18C645.33 533.18 645.71 533.347 645.977 533.68C646.257 534 646.397 534.46 646.397 535.06C646.397 535.833 646.224 536.527 645.877 537.14C645.53 537.753 645.017 538.347 644.337 538.92L643.557 538.18C644.37 537.513 644.83 536.833 644.937 536.14C644.764 536.22 644.557 536.26 644.317 536.26C643.97 536.26 643.697 536.147 643.497 535.92C643.297 535.68 643.197 535.353 643.197 534.94C643.197 534.5 643.35 534.1 643.657 533.74C643.977 533.367 644.37 533.18 644.837 533.18ZM666.522 528.66H669.162V519.3H666.522V522H663.162V524.1H666.522V528.66ZM664.762 526.42C661.882 525.54 660.622 523.4 660.622 521.22V519.9H657.962V521.22C657.962 523.56 656.682 525.82 653.622 526.74L654.982 528.8C657.082 528.14 658.522 526.78 659.342 525.06C660.122 526.6 661.482 527.82 663.422 528.44L664.762 526.42ZM659.642 535.46V534.38H669.162V529.44H657.022V531.46H666.562V532.48H657.042V537.5H669.682V535.46H659.642ZM679.021 527.02H675.521V522.72H679.021V527.02ZM684.921 524.06V525.64H681.601V524.06H684.921ZM681.601 527.74H684.921V530.1H687.561V519.3H684.921V521.96H681.601V520.62H672.921V529.1H681.601V527.74ZM681.321 535.7C678.921 535.7 677.661 535.2 677.661 534.14C677.661 533.08 678.921 532.58 681.321 532.58C683.741 532.58 685.001 533.08 685.001 534.14C685.001 535.2 683.741 535.7 681.321 535.7ZM681.321 530.56C677.421 530.56 675.021 531.88 675.021 534.14C675.021 536.4 677.421 537.72 681.321 537.72C685.241 537.72 687.641 536.4 687.641 534.14C687.641 531.88 685.241 530.56 681.321 530.56ZM698.879 521.5C701.559 521.5 702.819 521.88 702.819 522.7C702.819 523.56 701.559 523.92 698.879 523.92C696.219 523.92 694.959 523.56 694.959 522.7C694.959 521.88 696.219 521.5 698.879 521.5ZM698.879 525.84C703.099 525.84 705.559 524.74 705.559 522.7C705.559 520.68 703.099 519.56 698.879 519.56C694.679 519.56 692.219 520.68 692.219 522.7C692.219 524.74 694.679 525.84 698.879 525.84ZM695.099 534.56H705.179V529.82H692.459V531.76H702.579V532.74H692.479V537.58H705.659V535.6H695.099V534.56ZM690.559 526.72V528.78H707.199V526.72H690.559ZM497.624 547.2V549.3H503.764C503.384 553.38 501.344 556.26 496.644 558.52L498.024 560.6C504.564 557.44 506.464 552.84 506.464 547.2H497.624ZM509.284 545.28V563.7H511.944V545.28H509.284ZM528.443 545.28V552.34H526.943V545.58H524.483V557.5C521.763 556.08 520.843 553.02 520.843 549.8V549.3H523.603V547.16H515.263V549.3H518.283V549.8C518.283 553.34 517.403 556.6 514.663 558.2L516.243 560.2C517.963 559.16 519.043 557.44 519.643 555.32C520.283 557.16 521.363 558.64 523.003 559.52L524.483 557.54V562.88H526.943V554.5H528.443V563.7H530.943V545.28H528.443ZM537.821 557.56C536.821 557.56 536.101 556.76 536.101 555.38C536.101 554 536.821 553.18 537.821 553.18C538.821 553.18 539.541 554 539.541 555.38C539.541 556.76 538.821 557.56 537.821 557.56ZM537.821 550.98C535.461 550.98 533.781 552.8 533.781 555.38C533.781 557.94 535.461 559.76 537.821 559.76C540.181 559.76 541.861 557.94 541.861 555.38C541.861 552.8 540.181 550.98 537.821 550.98ZM539.121 545.8H536.521V548.08H533.381V550.18H542.181V548.08H539.121V545.8ZM546.701 545.28V552.8H545.301V545.64H542.841V562.94H545.301V554.92H546.701V563.7H549.201V545.28H546.701ZM553.559 554.42C556.779 553.98 559.039 552.6 560.139 550.72C561.239 552.6 563.499 553.98 566.719 554.42L567.659 552.36C563.919 551.9 561.979 550.1 561.719 548.34H566.939V546.24H553.279V548.34H558.579C558.319 550.1 556.359 551.9 552.599 552.36L553.559 554.42ZM568.459 555.48H551.819V557.58H558.759V563.76H561.399V557.58H568.459V555.48ZM577.058 553.7H573.558V548.84H577.058V553.7ZM582.958 550.3V552.16H579.638V550.3H582.958ZM579.638 554.26H582.958V558.72H585.598V545.3H582.958V548.2H579.638V546.78H570.958V555.78H579.638V554.26ZM576.078 561.3V557.46H573.438V563.4H585.998V561.3H576.078ZM605.062 553.46C602.162 552.56 600.922 550.4 600.922 548.18V546.3H598.242V547.96C598.242 550.46 597.002 552.92 593.922 553.94L595.302 556.02C597.402 555.28 598.822 553.86 599.622 552.06C600.402 553.62 601.742 554.86 603.682 555.5L605.062 553.46ZM602.682 561.68C600.322 561.68 599.062 561.2 599.062 560.16C599.062 559.14 600.322 558.66 602.682 558.66C605.022 558.66 606.282 559.14 606.282 560.16C606.282 561.2 605.022 561.68 602.682 561.68ZM602.682 556.62C598.842 556.62 596.442 557.94 596.442 560.16C596.442 562.4 598.842 563.72 602.682 563.72C606.502 563.72 608.902 562.4 608.902 560.16C608.902 557.94 606.502 556.62 602.682 556.62ZM608.702 549.58V545.32H606.062V556.2H608.702V551.76H611.142V549.58H608.702ZM622.8 550.68H619.02V547.9H622.8V550.68ZM616.4 550.68H614.18V552.78H627.62V550.68H625.42V547.9H627.76V545.8H614.06V547.9H616.4V550.68ZM624.66 561.44H617.12V559.58H624.66V561.44ZM629.24 556.02V553.92H612.6V556.02H619.6V557.52H614.54V563.5H627.26V557.52H622.24V556.02H629.24ZM645.779 550.36H635.659V547.9H645.679V545.8H633.039V552.44H645.779V550.36ZM639.279 561.72C636.819 561.72 635.559 561.3 635.559 560.34C635.559 559.38 636.819 558.94 639.279 558.94C641.739 558.94 642.999 559.38 642.999 560.34C642.999 561.3 641.739 561.72 639.279 561.72ZM639.279 556.94C635.299 556.94 632.899 558.16 632.899 560.34C632.899 562.5 635.299 563.72 639.279 563.72C643.259 563.72 645.679 562.5 645.679 560.34C645.679 558.16 643.259 556.94 639.279 556.94ZM631.019 553.72V555.88H647.679V553.72H631.019ZM651.237 560.38H661.517V563.66H664.157V558.3H651.237V560.38ZM659.057 555.16V553.84H664.417V551.84H654.077V550.64H664.037V545.66H651.437V547.66H661.437V548.78H651.477V553.84H656.417V555.16H649.397V557.26H666.077V555.16H659.057ZM676.761 549.78C676.761 548.66 677.621 548.02 678.881 548.02C680.141 548.02 681.041 548.66 681.041 549.78C681.041 550.9 680.141 551.54 678.881 551.54C677.621 551.54 676.761 550.9 676.761 549.78ZM684.401 554.34C683.081 554.54 681.641 554.64 680.221 554.72V553.4C682.181 552.96 683.481 551.58 683.481 549.78C683.481 547.58 681.561 546.04 678.881 546.04C676.221 546.04 674.301 547.58 674.301 549.78C674.301 551.6 675.621 552.98 677.581 553.4V554.82C676.061 554.86 674.601 554.86 673.341 554.86L673.661 556.96C676.701 556.96 680.841 556.9 684.561 556.2L684.401 554.34ZM678.381 558.16H675.741V563.4H688.621V561.3H678.381V558.16ZM688.001 551.08V545.3H685.361V559.36H688.001V553.26H690.321V551.08H688.001ZM698.619 556.72H701.839V559.54H698.619V556.72ZM704.439 559.54V556.72H707.019V554.62H696.339V552.6H706.599V546.48H693.699V548.58H703.999V550.54H693.719V556.72H696.019V559.54H691.779V561.7H708.479V559.54H704.439ZM711.038 548H713.598L713.238 557.64H711.398L711.038 548ZM712.318 562.24C711.878 562.24 711.505 562.093 711.198 561.8C710.891 561.493 710.738 561.127 710.738 560.7C710.738 560.273 710.891 559.907 711.198 559.6C711.505 559.28 711.878 559.12 712.318 559.12C712.731 559.12 713.091 559.28 713.398 559.6C713.705 559.907 713.858 560.273 713.858 560.7C713.858 561.127 713.705 561.493 713.398 561.8C713.105 562.093 712.745 562.24 712.318 562.24Z" fill="white"/>
<path d="M875.122 449.46C872.222 448.56 870.982 446.4 870.982 444.18V442.3H868.302V443.96C868.302 446.46 867.062 448.92 863.982 449.94L865.362 452.02C867.462 451.28 868.882 449.86 869.682 448.06C870.462 449.62 871.802 450.86 873.742 451.5L875.122 449.46ZM872.742 457.68C870.382 457.68 869.122 457.2 869.122 456.16C869.122 455.14 870.382 454.66 872.742 454.66C875.082 454.66 876.342 455.14 876.342 456.16C876.342 457.2 875.082 457.68 872.742 457.68ZM872.742 452.62C868.902 452.62 866.502 453.94 866.502 456.16C866.502 458.4 868.902 459.72 872.742 459.72C876.562 459.72 878.962 458.4 878.962 456.16C878.962 453.94 876.562 452.62 872.742 452.62ZM878.762 445.58V441.32H876.122V452.2H878.762V447.76H881.202V445.58H878.762ZM892.861 446.68H889.081V443.9H892.861V446.68ZM886.461 446.68H884.241V448.78H897.681V446.68H895.481V443.9H897.821V441.8H884.121V443.9H886.461V446.68ZM894.721 457.44H887.181V455.58H894.721V457.44ZM899.301 452.02V449.92H882.661V452.02H889.661V453.52H884.601V459.5H897.321V453.52H892.301V452.02H899.301ZM921.445 446.36H911.325V443.9H921.345V441.8H908.705V448.44H921.445V446.36ZM914.945 457.72C912.485 457.72 911.225 457.3 911.225 456.34C911.225 455.38 912.485 454.94 914.945 454.94C917.405 454.94 918.665 455.38 918.665 456.34C918.665 457.3 917.405 457.72 914.945 457.72ZM914.945 452.94C910.965 452.94 908.565 454.16 908.565 456.34C908.565 458.5 910.965 459.72 914.945 459.72C918.925 459.72 921.345 458.5 921.345 456.34C921.345 454.16 918.925 452.94 914.945 452.94ZM906.685 449.72V451.88H923.345V449.72H906.685ZM926.903 456.38H937.183V459.66H939.823V454.3H926.903V456.38ZM934.723 451.16V449.84H940.083V447.84H929.743V446.64H939.703V441.66H927.103V443.66H937.103V444.78H927.143V449.84H932.083V451.16H925.063V453.26H941.743V451.16H934.723ZM956.082 441.28V459.76H958.722V441.28H956.082ZM948.822 442.58C946.042 442.58 943.982 445.1 943.982 449.14C943.982 453.2 946.042 455.74 948.822 455.74C951.602 455.74 953.662 453.2 953.662 449.14C953.662 445.1 951.602 442.58 948.822 442.58ZM948.822 444.96C950.182 444.96 951.122 446.42 951.122 449.14C951.122 451.88 950.182 453.34 948.822 453.34C947.462 453.34 946.522 451.88 946.522 449.14C946.522 446.42 947.462 444.96 948.822 444.96ZM970.825 445.78C970.825 444.66 971.685 444.02 972.945 444.02C974.205 444.02 975.105 444.66 975.105 445.78C975.105 446.9 974.205 447.54 972.945 447.54C971.685 447.54 970.825 446.9 970.825 445.78ZM978.465 450.34C977.145 450.54 975.705 450.64 974.285 450.72V449.4C976.245 448.96 977.545 447.58 977.545 445.78C977.545 443.58 975.625 442.04 972.945 442.04C970.285 442.04 968.365 443.58 968.365 445.78C968.365 447.6 969.685 448.98 971.645 449.4V450.82C970.125 450.86 968.665 450.86 967.405 450.86L967.725 452.96C970.765 452.96 974.905 452.9 978.625 452.2L978.465 450.34ZM972.445 454.16H969.805V459.4H982.685V457.3H972.445V454.16ZM982.065 447.08V441.3H979.425V455.36H982.065V449.26H984.385V447.08H982.065ZM992.684 452.72H995.904V455.54H992.684V452.72ZM998.504 455.54V452.72H1001.08V450.62H990.404V448.6H1000.66V442.48H987.764V444.58H998.064V446.54H987.784V452.72H990.084V455.54H985.844V457.7H1002.54V455.54H998.504ZM1011.62 450.88H1015.14V448.76H1008.16V445.04H1015.02V442.94H1005.52V450.88H1008.98V453.94C1007.36 453.98 1005.78 453.98 1004.34 453.98L1004.66 456.14C1008.08 456.14 1012.2 456.1 1016.14 455.48L1015.98 453.56C1014.58 453.7 1013.1 453.8 1011.62 453.88V450.88ZM1016.98 441.3V459.76H1019.62V441.3H1016.98ZM1029.8 442.72H1027.16V445.4C1027.16 448.98 1025.64 452.54 1022.42 453.92L1024 456.1C1026.2 455.06 1027.7 453.08 1028.52 450.62C1029.34 452.88 1030.76 454.7 1032.88 455.66L1034.38 453.52C1031.26 452.18 1029.8 448.82 1029.8 445.4V442.72ZM1035.28 441.28V459.76H1037.92V441.28H1035.28ZM1047.92 449.7H1044.42V444.84H1047.92V449.7ZM1053.82 446.3V448.16H1050.5V446.3H1053.82ZM1050.5 450.26H1053.82V454.72H1056.46V441.3H1053.82V444.2H1050.5V442.78H1041.82V451.78H1050.5V450.26ZM1046.94 457.3V453.46H1044.3V459.4H1056.86V457.3H1046.94ZM1061.14 455.18C1061.63 455.18 1062.01 455.347 1062.28 455.68C1062.56 456 1062.7 456.46 1062.7 457.06C1062.7 457.833 1062.52 458.527 1062.18 459.14C1061.83 459.753 1061.32 460.347 1060.64 460.92L1059.86 460.18C1060.67 459.513 1061.13 458.833 1061.24 458.14C1061.06 458.22 1060.86 458.26 1060.62 458.26C1060.27 458.26 1060 458.147 1059.8 457.92C1059.6 457.68 1059.5 457.353 1059.5 456.94C1059.5 456.5 1059.65 456.1 1059.96 455.74C1060.28 455.367 1060.67 455.18 1061.14 455.18ZM881.742 475.32C880.062 475.58 878.602 475.68 876.622 475.7V474.14H881.142V472.14H876.622V470.62H881.322V468.54H874.082V477.82H875.362C878.102 477.82 879.882 477.76 881.982 477.42L881.742 475.32ZM876.482 481.44H886.522V485.74H889.162V479.34H876.482V481.44ZM886.662 467.3V471.82H885.182V467.62H882.722V478.42H885.182V473.92H886.662V478.54H889.162V467.3H886.662ZM897.22 479.26H894.86V475.14H897.22V479.26ZM897.22 473.08H894.86V468.92H892.38V481.36H899.64V468.92H897.22V473.08ZM905.16 467.28V474.32H903.62V467.58H901.16V484.9H903.62V476.44H905.16V485.7H907.66V467.28H905.16ZM911.278 469.2V471.3H917.418C917.038 475.38 914.998 478.26 910.298 480.52L911.678 482.6C918.218 479.44 920.118 474.84 920.118 469.2H911.278ZM922.938 467.28V485.7H925.598V467.28H922.938ZM935.437 468.72H932.777V471.4C932.777 474.82 931.377 478.34 928.277 479.8L929.857 481.94C931.937 480.92 933.317 478.98 934.117 476.64C934.877 478.84 936.177 480.62 938.097 481.6L939.697 479.52C936.737 478.06 935.437 474.72 935.437 471.4V468.72ZM945.757 474.38H943.077V467.3H940.437V485.72H943.077V476.58H945.757V474.38ZM947.895 469.18V471.32H953.915C953.435 475.4 951.155 478.32 946.875 480.52L948.355 482.54C954.475 479.44 956.575 474.7 956.575 469.18H947.895ZM964.055 474.32H961.475V467.28H958.835V485.68H961.475V476.5H964.055V474.32ZM977.819 475.06H974.199V472.78H977.819V475.06ZM980.419 468.48H977.819V470.76H974.199V468.48H971.599V477.12H980.419V468.48ZM979.519 483.7C977.179 483.7 975.919 483.2 975.919 482.16C975.919 481.12 977.179 480.62 979.519 480.62C981.879 480.62 983.139 481.12 983.139 482.16C983.139 483.2 981.879 483.7 979.519 483.7ZM979.519 478.56C975.699 478.56 973.299 479.9 973.299 482.16C973.299 484.4 975.699 485.74 979.519 485.74C983.359 485.74 985.759 484.4 985.759 482.16C985.759 479.9 983.359 478.56 979.519 478.56ZM985.559 471.6V467.32H982.919V478.16H985.559V473.76H987.999V471.6H985.559ZM1001.4 472.86H994.098V470.14H1001.4V472.86ZM1004 468.08H991.498V474.94H1004V468.08ZM994.018 480.06H991.378V485.4H1004.28V483.3H994.018V480.06ZM989.438 476.4V478.48H996.698V481.62H999.338V478.48H1006.12V476.4H989.438ZM1013.18 479.8C1011.94 479.8 1011.02 478.96 1011.02 477.56C1011.02 476.16 1011.94 475.3 1013.18 475.3C1014.42 475.3 1015.32 476.16 1015.32 477.54C1015.32 478.96 1014.42 479.8 1013.18 479.8ZM1013.18 473.16C1010.5 473.16 1008.5 474.98 1008.5 477.54C1008.5 480.14 1010.5 481.96 1013.18 481.96C1015.84 481.96 1017.82 480.14 1017.82 477.54C1017.82 474.98 1015.84 473.16 1013.18 473.16ZM1014.48 467.62H1011.84V470.02H1007.76V472.12H1018.48V470.02H1014.48V467.62ZM1024.96 474.5H1022.32V467.3H1019.68V485.72H1022.32V476.68H1024.96V474.5ZM1035.93 476.78C1036.01 476.28 1036.05 475.72 1036.05 475.14C1036.05 474.44 1035.99 473.78 1035.87 473.18H1039.07V476.78H1035.93ZM1031.29 479.34C1029.95 479.34 1029.03 477.88 1029.03 475.14C1029.03 472.42 1029.95 470.96 1031.29 470.96C1032.65 470.96 1033.57 472.42 1033.57 475.14C1033.57 477.88 1032.65 479.34 1031.29 479.34ZM1039.07 467.28V471.06H1035.15C1034.33 469.48 1032.95 468.58 1031.29 468.58C1028.55 468.58 1026.53 471.1 1026.53 475.14C1026.53 479.2 1028.55 481.74 1031.29 481.74C1033.07 481.76 1034.49 480.72 1035.31 478.92H1039.07V485.76H1041.71V467.28H1039.07ZM1046.33 481.18C1046.83 481.18 1047.21 481.347 1047.47 481.68C1047.75 482 1047.89 482.46 1047.89 483.06C1047.89 483.833 1047.72 484.527 1047.37 485.14C1047.03 485.753 1046.51 486.347 1045.83 486.92L1045.05 486.18C1045.87 485.513 1046.33 484.833 1046.43 484.14C1046.26 484.22 1046.05 484.26 1045.81 484.26C1045.47 484.26 1045.19 484.147 1044.99 483.92C1044.79 483.68 1044.69 483.353 1044.69 482.94C1044.69 482.5 1044.85 482.1 1045.15 481.74C1045.47 481.367 1045.87 481.18 1046.33 481.18ZM886.665 501.46C883.765 500.56 882.525 498.4 882.525 496.18V494.3H879.845V495.96C879.845 498.46 878.605 500.92 875.525 501.94L876.905 504.02C879.005 503.28 880.425 501.86 881.225 500.06C882.005 501.62 883.345 502.86 885.285 503.5L886.665 501.46ZM884.285 509.68C881.925 509.68 880.665 509.2 880.665 508.16C880.665 507.14 881.925 506.66 884.285 506.66C886.625 506.66 887.885 507.14 887.885 508.16C887.885 509.2 886.625 509.68 884.285 509.68ZM884.285 504.62C880.445 504.62 878.045 505.94 878.045 508.16C878.045 510.4 880.445 511.72 884.285 511.72C888.105 511.72 890.505 510.4 890.505 508.16C890.505 505.94 888.105 504.62 884.285 504.62ZM890.305 497.58V493.32H887.665V504.2H890.305V499.76H892.745V497.58H890.305ZM904.404 498.68H900.624V495.9H904.404V498.68ZM898.004 498.68H895.784V500.78H909.224V498.68H907.024V495.9H909.364V493.8H895.664V495.9H898.004V498.68ZM906.264 509.44H898.724V507.58H906.264V509.44ZM910.844 504.02V501.92H894.204V504.02H901.204V505.52H896.144V511.5H908.864V505.52H903.844V504.02H910.844ZM920.922 495.5C923.602 495.5 924.862 495.88 924.862 496.7C924.862 497.56 923.602 497.92 920.922 497.92C918.262 497.92 917.002 497.56 917.002 496.7C917.002 495.88 918.262 495.5 920.922 495.5ZM920.922 499.84C925.142 499.84 927.602 498.74 927.602 496.7C927.602 494.68 925.142 493.56 920.922 493.56C916.722 493.56 914.262 494.68 914.262 496.7C914.262 498.74 916.722 499.84 920.922 499.84ZM917.142 508.56H927.222V503.82H914.502V505.76H924.622V506.74H914.522V511.58H927.702V509.6H917.142V508.56ZM912.602 500.72V502.78H929.242V500.72H912.602ZM941.386 496.74H943.326V501.64C942.686 501.66 942.026 501.68 941.386 501.7V496.74ZM948.006 501.3C947.306 501.36 946.606 501.42 945.866 501.48V496.74H947.306V494.62H937.386V496.74H938.846V501.74C938.166 501.74 937.526 501.74 936.926 501.74L937.206 503.9C940.366 503.9 944.526 503.82 948.186 503.22L948.006 501.3ZM939.346 507.42H949.246V511.74H951.906V505.32H939.346V507.42ZM949.246 493.3V504.56H951.906V493.3H949.246ZM967.785 509.4H960.825V507.76H967.785V509.4ZM967.785 505.76H960.825V504H958.205V511.5H970.405V504H967.785V505.76ZM960.085 500.66C958.745 500.66 957.765 499.84 957.765 498.46C957.765 497.08 958.745 496.26 960.085 496.26C961.445 496.26 962.425 497.08 962.425 498.46C962.425 499.84 961.445 500.66 960.085 500.66ZM967.765 493.3V497.36H964.825C964.305 495.4 962.425 494.06 960.085 494.06C957.325 494.06 955.245 495.9 955.245 498.46C955.245 501.02 957.325 502.86 960.085 502.86C962.465 502.86 964.345 501.5 964.845 499.5H967.765V503.2H970.405V493.3H967.765ZM977.823 505.56C976.823 505.56 976.103 504.76 976.103 503.38C976.103 502 976.823 501.18 977.823 501.18C978.823 501.18 979.543 502 979.543 503.38C979.543 504.76 978.823 505.56 977.823 505.56ZM977.823 498.98C975.463 498.98 973.783 500.8 973.783 503.38C973.783 505.94 975.463 507.76 977.823 507.76C980.183 507.76 981.863 505.94 981.863 503.38C981.863 500.8 980.183 498.98 977.823 498.98ZM979.123 493.8H976.523V496.08H973.383V498.18H982.183V496.08H979.123V493.8ZM986.703 493.28V500.8H985.303V493.64H982.843V510.94H985.303V502.92H986.703V511.7H989.203V493.28H986.703ZM992.661 494.28V496.38H998.321C997.981 498.6 995.921 500.46 991.701 501.38L992.661 503.5C998.241 502.26 1001.26 499.18 1001.26 494.28H992.661ZM1003.68 509.4H996.901V507.78H1003.68V509.4ZM1003.68 505.76H996.901V504H994.281V511.5H1006.28V504H1003.68V505.76ZM1008.74 497.26H1006.28V493.3H1003.64V503.28H1006.28V499.42H1008.74V497.26ZM1013.78 495.04H1011.16V507.18H1012.8C1015.6 507.18 1018.66 506.98 1021.8 506.32L1021.52 504.12C1018.82 504.66 1016.2 504.86 1013.78 504.92V495.04ZM1022.94 493.28V511.7H1025.58V493.28H1022.94ZM1031.94 497.14H1037.9V495H1029.32V507.34H1030.88C1034.08 507.34 1036.6 507.24 1039.38 506.74L1039.12 504.56C1036.74 504.96 1034.56 505.1 1031.94 505.14V497.14ZM1045.7 500.1H1043.02V493.3H1040.38V511.76H1043.02V502.28H1045.7V500.1ZM1047.84 496H1050.4L1050.04 505.64H1048.2L1047.84 496ZM1049.12 510.24C1048.68 510.24 1048.3 510.093 1048 509.8C1047.69 509.493 1047.54 509.127 1047.54 508.7C1047.54 508.273 1047.69 507.907 1048 507.6C1048.3 507.28 1048.68 507.12 1049.12 507.12C1049.53 507.12 1049.89 507.28 1050.2 507.6C1050.5 507.907 1050.66 508.273 1050.66 508.7C1050.66 509.127 1050.5 509.493 1050.2 509.8C1049.9 510.093 1049.54 510.24 1049.12 510.24ZM865.923 527.46C863.023 526.56 861.783 524.4 861.783 522.18V520.3H859.103V521.96C859.103 524.46 857.863 526.92 854.783 527.94L856.163 530.02C858.263 529.28 859.683 527.86 860.483 526.06C861.263 527.62 862.603 528.86 864.543 529.5L865.923 527.46ZM863.543 535.68C861.183 535.68 859.923 535.2 859.923 534.16C859.923 533.14 861.183 532.66 863.543 532.66C865.883 532.66 867.143 533.14 867.143 534.16C867.143 535.2 865.883 535.68 863.543 535.68ZM863.543 530.62C859.703 530.62 857.303 531.94 857.303 534.16C857.303 536.4 859.703 537.72 863.543 537.72C867.363 537.72 869.763 536.4 869.763 534.16C869.763 531.94 867.363 530.62 863.543 530.62ZM869.563 523.58V519.32H866.923V530.2H869.563V525.76H872.003V523.58H869.563ZM883.662 524.68H879.882V521.9H883.662V524.68ZM877.262 524.68H875.042V526.78H888.482V524.68H886.282V521.9H888.622V519.8H874.922V521.9H877.262V524.68ZM885.522 535.44H877.982V533.58H885.522V535.44ZM890.102 530.02V527.92H873.462V530.02H880.462V531.52H875.402V537.5H888.122V531.52H883.102V530.02H890.102ZM900.18 521.5C902.86 521.5 904.12 521.88 904.12 522.7C904.12 523.56 902.86 523.92 900.18 523.92C897.52 523.92 896.26 523.56 896.26 522.7C896.26 521.88 897.52 521.5 900.18 521.5ZM900.18 525.84C904.4 525.84 906.86 524.74 906.86 522.7C906.86 520.68 904.4 519.56 900.18 519.56C895.98 519.56 893.52 520.68 893.52 522.7C893.52 524.74 895.98 525.84 900.18 525.84ZM896.4 534.56H906.48V529.82H893.76V531.76H903.88V532.74H893.78V537.58H906.96V535.6H896.4V534.56ZM891.86 526.72V528.78H908.5V526.72H891.86ZM916.944 520.36V522.46H922.544C922.124 524.9 919.904 526.9 915.944 527.98L916.984 530.02C922.344 528.54 925.344 525.22 925.344 520.36H916.944ZM921.744 532.42H928.664V535.44H921.744V532.42ZM919.144 537.5H931.264V530.34H919.144V537.5ZM928.624 519.32V523.66H925.444V525.8H928.624V529.58H931.264V519.32H928.624ZM950.322 525.84C946.142 525.26 944.022 522.86 944.022 520.72V519.84H941.202V520.72C941.202 522.88 939.102 525.26 934.902 525.84L935.902 527.96C939.122 527.48 941.442 525.98 942.622 524C943.802 525.98 946.102 527.48 949.322 527.96L950.322 525.84ZM950.922 529.32H934.282V531.46H941.222V537.74H943.862V531.46H950.922V529.32ZM957.981 531.8C956.741 531.8 955.821 530.96 955.821 529.56C955.821 528.16 956.741 527.3 957.981 527.3C959.221 527.3 960.121 528.16 960.121 529.54C960.121 530.96 959.221 531.8 957.981 531.8ZM957.981 525.16C955.301 525.16 953.301 526.98 953.301 529.54C953.301 532.14 955.301 533.96 957.981 533.96C960.641 533.96 962.621 532.14 962.621 529.54C962.621 526.98 960.641 525.16 957.981 525.16ZM959.281 519.62H956.641V522.02H952.561V524.12H963.281V522.02H959.281V519.62ZM969.761 526.5H967.121V519.3H964.481V537.72H967.121V528.68H969.761V526.5ZM980.739 528.78C980.819 528.28 980.859 527.72 980.859 527.14C980.859 526.44 980.799 525.78 980.679 525.18H983.879V528.78H980.739ZM976.099 531.34C974.759 531.34 973.839 529.88 973.839 527.14C973.839 524.42 974.759 522.96 976.099 522.96C977.459 522.96 978.379 524.42 978.379 527.14C978.379 529.88 977.459 531.34 976.099 531.34ZM983.879 519.28V523.06H979.959C979.139 521.48 977.759 520.58 976.099 520.58C973.359 520.58 971.339 523.1 971.339 527.14C971.339 531.2 973.359 533.74 976.099 533.74C977.879 533.76 979.299 532.72 980.119 530.92H983.879V537.76H986.519V519.28H983.879ZM991.138 533.18C991.631 533.18 992.011 533.347 992.278 533.68C992.558 534 992.698 534.46 992.698 535.06C992.698 535.833 992.524 536.527 992.178 537.14C991.831 537.753 991.318 538.347 990.638 538.92L989.858 538.18C990.671 537.513 991.131 536.833 991.238 536.14C991.064 536.22 990.858 536.26 990.618 536.26C990.271 536.26 989.998 536.147 989.798 535.92C989.598 535.68 989.498 535.353 989.498 534.94C989.498 534.5 989.651 534.1 989.958 533.74C990.278 533.367 990.671 533.18 991.138 533.18ZM1001.08 521.2V523.3H1007.22C1006.84 527.38 1004.8 530.26 1000.1 532.52L1001.48 534.6C1008.02 531.44 1009.92 526.84 1009.92 521.2H1001.08ZM1012.74 519.28V537.7H1015.4V519.28H1012.74ZM1031.9 519.28V526.34H1030.4V519.58H1027.94V531.5C1025.22 530.08 1024.3 527.02 1024.3 523.8V523.3H1027.06V521.16H1018.72V523.3H1021.74V523.8C1021.74 527.34 1020.86 530.6 1018.12 532.2L1019.7 534.2C1021.42 533.16 1022.5 531.44 1023.1 529.32C1023.74 531.16 1024.82 532.64 1026.46 533.52L1027.94 531.54V536.88H1030.4V528.5H1031.9V537.7H1034.4V519.28H1031.9ZM1042.18 531.8C1040.94 531.8 1040.02 530.96 1040.02 529.56C1040.02 528.16 1040.94 527.3 1042.18 527.3C1043.42 527.3 1044.32 528.16 1044.32 529.54C1044.32 530.96 1043.42 531.8 1042.18 531.8ZM1042.18 525.16C1039.5 525.16 1037.5 526.98 1037.5 529.54C1037.5 532.14 1039.5 533.96 1042.18 533.96C1044.84 533.96 1046.82 532.14 1046.82 529.54C1046.82 526.98 1044.84 525.16 1042.18 525.16ZM1043.48 519.62H1040.84V522.02H1036.76V524.12H1047.48V522.02H1043.48V519.62ZM1053.96 526.5H1051.32V519.3H1048.68V537.72H1051.32V528.68H1053.96V526.5ZM1070.56 519.32H1067.9V532.74H1070.56V519.32ZM1066.54 527.86C1063.54 526.9 1062.26 524.54 1062.26 522.1V520.32H1059.58V522.1C1059.58 524.56 1058.26 527.14 1055.2 528.18L1056.54 530.28C1058.68 529.54 1060.12 528.04 1060.96 526.18C1061.76 527.9 1063.16 529.26 1065.2 529.96L1066.54 527.86ZM1060.94 535.3V531.46H1058.3V537.4H1071.02V535.3H1060.94ZM897.72 547.34H895.08V559.24H896.36C898.2 559.24 900.32 559.14 902.72 558.7L902.5 556.48C900.74 556.8 899.16 556.92 897.72 556.96V547.34ZM907.62 545.28V552.38H905.96V545.62H903.5V562.84H905.96V554.52H907.62V563.7H910.14V545.28H907.62ZM921.038 561.74C918.578 561.74 917.318 561.32 917.318 560.38C917.318 559.44 918.578 559.04 921.038 559.04C923.498 559.04 924.758 559.44 924.758 560.38C924.758 561.32 923.498 561.74 921.038 561.74ZM921.038 557.04C917.058 557.04 914.658 558.24 914.658 560.38C914.658 562.52 917.058 563.74 921.038 563.74C925.018 563.74 927.438 562.52 927.438 560.38C927.438 558.24 925.018 557.04 921.038 557.04ZM919.138 552.5C919.738 552.58 920.378 552.62 921.078 552.62C921.758 552.62 922.398 552.58 922.978 552.52V554.04H919.138V552.5ZM921.078 547.58C923.598 547.58 925.038 548.08 925.038 549.12C925.038 550.12 923.598 550.64 921.078 550.64C918.578 550.64 917.138 550.12 917.138 549.12C917.138 548.08 918.578 547.58 921.078 547.58ZM925.618 554.04V551.84C926.978 551.24 927.758 550.32 927.758 549.12C927.758 546.92 925.158 545.58 921.078 545.58C917.018 545.58 914.418 546.92 914.418 549.12C914.418 550.3 915.178 551.22 916.498 551.82V554.04H912.758V556.12H929.398V554.04H925.618ZM940.917 555.68C941.417 552.64 941.417 550.4 941.417 548.62V547.12H931.937V549.22H938.817C938.817 550.86 938.757 552.84 938.337 555.46L940.917 555.68ZM936.897 552.4H934.297V557.84C933.137 557.86 932.017 557.86 930.997 557.86L931.237 560.02C934.437 560 938.557 559.92 942.297 559.28L942.157 557.38C940.477 557.58 938.677 557.7 936.897 557.76V552.4ZM948.117 552.7H945.637V545.28H942.997V563.7H945.637V554.9H948.117V552.7ZM963.441 561.74C960.981 561.74 959.721 561.32 959.721 560.36C959.721 559.4 960.981 558.96 963.441 558.96C965.901 558.96 967.161 559.4 967.161 560.36C967.161 561.32 965.901 561.74 963.441 561.74ZM963.441 556.96C959.461 556.96 957.061 558.18 957.061 560.36C957.061 562.52 959.461 563.74 963.441 563.74C967.421 563.74 969.841 562.52 969.841 560.36C969.841 558.18 967.421 556.96 963.441 556.96ZM964.821 553.96V552.44H969.941V550.34H959.821V548.18H969.841V546.08H957.201V552.44H962.181V553.96H955.181V556.06H971.841V553.96H964.821ZM988.859 545.3H986.199V554.52H988.859V545.3ZM976.379 550.04C976.379 548.74 977.399 547.96 978.759 547.96C980.119 547.96 981.099 548.74 981.099 550.04C981.099 551.36 980.119 552.12 978.759 552.12C977.399 552.12 976.379 551.36 976.379 550.04ZM983.659 550.04C983.659 547.6 981.559 545.84 978.759 545.84C975.939 545.84 973.819 547.6 973.819 550.04C973.819 552.5 975.939 554.26 978.759 554.26C981.559 554.26 983.659 552.5 983.659 550.04ZM979.219 561.46V560.3H988.859V555.28H976.579V557.3H986.239V558.42H976.599V563.5H989.319V561.46H979.219ZM1002.82 547.24H998.698V545.28H996.038V547.24H991.958V549.3H1002.8L1002.82 547.24ZM995.378 553.5C995.378 552.5 996.198 551.96 997.378 551.96C998.538 551.96 999.378 552.5 999.378 553.5C999.378 554.52 998.538 555.06 997.378 555.06C996.198 555.06 995.378 554.52 995.378 553.5ZM1001.9 553.5C1001.9 551.42 1000.02 549.96 997.378 549.96C994.738 549.96 992.858 551.42 992.858 553.5C992.858 555.62 994.738 557.06 997.378 557.06C1000.02 557.06 1001.9 555.62 1001.9 553.5ZM997.218 558.06H994.578V563.4H1007.12V561.3H997.218V558.06ZM1006.46 550.92V545.3H1003.82V559.08H1006.46V553.1H1008.9V550.92H1006.46ZM1017.48 549.24H1021.28V547.06H1010.96V549.24H1014.8V550.26C1014.8 553.4 1013.3 556.78 1010.22 558.16L1011.72 560.26C1013.88 559.28 1015.36 557.26 1016.18 554.86C1017 557.08 1018.46 558.88 1020.6 559.8L1022.04 557.72C1018.96 556.44 1017.48 553.26 1017.48 550.26V549.24ZM1022.98 545.3V563.72H1025.62V545.3H1022.98ZM898.664 572.66H894.764V571.14H892.124V572.66H888.204V574.54H898.664V572.66ZM891.444 577.72C891.444 577.04 892.204 576.7 893.444 576.7C894.684 576.7 895.424 577.04 895.424 577.72C895.424 578.4 894.684 578.76 893.444 578.76C892.204 578.76 891.444 578.4 891.444 577.72ZM899.124 580.98C897.724 581.14 896.264 581.26 894.764 581.32V580.38C896.724 580.08 897.924 579.12 897.924 577.72C897.924 576.04 896.164 575 893.444 575C890.724 575 888.944 576.04 888.944 577.72C888.944 579.12 890.164 580.08 892.124 580.38V581.42C890.564 581.46 889.064 581.46 887.744 581.46L888.024 583.48C891.264 583.48 895.464 583.44 899.324 582.76L899.124 580.98ZM890.084 586.62H899.924V589.74H902.564V584.58H890.084V586.62ZM904.884 576.58H902.564V571.3H899.924V583.86H902.564V578.74H904.884V576.58ZM921.662 571.32H919.002V584.54H921.662V571.32ZM909.202 577.16C909.202 575.64 910.282 574.76 911.642 574.76C913.022 574.76 914.062 575.64 914.062 577.16C914.062 578.64 913.022 579.54 911.642 579.54C910.282 579.54 909.202 578.64 909.202 577.16ZM916.642 577.16C916.642 574.44 914.462 572.48 911.642 572.48C908.822 572.48 906.622 574.44 906.622 577.16C906.622 579.84 908.822 581.82 911.642 581.82C914.462 581.82 916.642 579.84 916.642 577.16ZM912.042 587.3V583.24H909.402V589.4H922.122V587.3H912.042ZM937.38 571.28V589.76H940.02V571.28H937.38ZM930.12 572.58C927.34 572.58 925.28 575.1 925.28 579.14C925.28 583.2 927.34 585.74 930.12 585.74C932.9 585.74 934.96 583.2 934.96 579.14C934.96 575.1 932.9 572.58 930.12 572.58ZM930.12 574.96C931.48 574.96 932.42 576.42 932.42 579.14C932.42 581.88 931.48 583.34 930.12 583.34C928.76 583.34 927.82 581.88 927.82 579.14C927.82 576.42 928.76 574.96 930.12 574.96ZM964.064 571.3H961.404V584.62H964.064V571.3ZM960.244 580.32C957.264 579.34 955.924 577.08 955.924 574.92V574.7H959.564V572.62H949.544V574.7H953.244V574.92C953.244 577.22 951.904 579.64 948.844 580.6L950.184 582.66C952.324 581.96 953.804 580.54 954.624 578.74C955.464 580.38 956.864 581.7 958.904 582.34L960.244 580.32ZM954.444 587.3V583.42H951.804V589.4H964.524V587.3H954.444ZM979.003 577.98H980.363V582.82H982.863V571.3H980.363V575.84H979.003V571.64H976.543V582.24H979.003V577.98ZM976.023 573.18H972.843V571.5H970.243V573.18H967.063V575.22H976.023V573.18ZM969.943 579.02C969.943 578.16 970.603 577.7 971.583 577.7C972.563 577.7 973.203 578.16 973.203 579.02C973.203 579.88 972.563 580.36 971.583 580.36C970.603 580.36 969.943 579.88 969.943 579.02ZM975.543 579.02C975.543 577.12 973.903 575.82 971.583 575.82C969.243 575.82 967.603 577.12 967.603 579.02C967.603 580.92 969.243 582.24 971.583 582.24C973.903 582.24 975.543 580.92 975.543 579.02ZM976.623 587.76C974.163 587.76 972.923 587.34 972.923 586.38C972.923 585.42 974.163 585 976.623 585C979.083 585 980.323 585.42 980.323 586.38C980.323 587.34 979.083 587.76 976.623 587.76ZM976.623 583.02C972.663 583.02 970.283 584.24 970.283 586.38C970.283 588.52 972.663 589.72 976.623 589.72C980.583 589.72 982.963 588.52 982.963 586.38C982.963 584.24 980.583 583.02 976.623 583.02ZM997.141 579.18C995.801 579.38 994.381 579.5 992.941 579.56V578.26H996.101V576.18H989.781V574.24H996.001V572.14H987.141V578.26H990.301V579.68C988.641 579.74 987.021 579.74 985.601 579.74L985.961 581.78C989.161 581.76 993.421 581.7 997.341 581L997.141 579.18ZM998.321 587.44H991.081V586.1H998.321V587.44ZM998.321 584.1H991.081V582.72H988.461V589.5H1000.92V582.72H998.321V584.1ZM998.281 571.3V581.98H1000.92V571.3H998.281ZM1007.54 573.04H1004.92V585.18H1006.56C1009.36 585.18 1012.42 584.98 1015.56 584.32L1015.28 582.12C1012.58 582.66 1009.96 582.86 1007.54 582.92V573.04ZM1016.7 571.28V589.7H1019.34V571.28H1016.7ZM1025.7 575.14H1031.66V573H1023.08V585.34H1024.64C1027.84 585.34 1030.36 585.24 1033.14 584.74L1032.88 582.56C1030.5 582.96 1028.32 583.1 1025.7 583.14V575.14ZM1039.46 578.1H1036.78V571.3H1034.14V589.76H1036.78V580.28H1039.46V578.1Z" fill="white"/>
<path d="M1238.32 443.2V445.3H1244.3C1243.94 449.32 1242.04 452.18 1237.44 454.5L1238.84 456.54C1245.2 453.36 1246.98 448.76 1246.98 443.2H1238.32ZM1250.42 441.3V448.36H1246.86V450.5H1250.42V459.72H1253.06V441.3H1250.42ZM1259.12 450.22H1263.5V443.08H1256.54V445.2H1260.96V448.14H1256.56V455.64H1257.86C1260.08 455.64 1262.08 455.58 1264.44 455.2L1264.24 453.06C1262.4 453.34 1260.8 453.44 1259.12 453.48V450.22ZM1269.36 441.28V448.24H1267.7V441.62H1265.24V458.84H1267.7V450.36H1269.36V459.7H1271.86V441.28H1269.36ZM1275.3 443.18V445.32H1281.32C1280.84 449.4 1278.56 452.32 1274.28 454.52L1275.76 456.54C1281.88 453.44 1283.98 448.7 1283.98 443.18H1275.3ZM1291.46 448.32H1288.88V441.28H1286.24V459.68H1288.88V450.5H1291.46V448.32ZM1301.82 445.78C1301.82 444.66 1302.68 444.02 1303.94 444.02C1305.2 444.02 1306.1 444.66 1306.1 445.78C1306.1 446.9 1305.2 447.54 1303.94 447.54C1302.68 447.54 1301.82 446.9 1301.82 445.78ZM1309.46 450.34C1308.14 450.54 1306.7 450.64 1305.28 450.72V449.4C1307.24 448.96 1308.54 447.58 1308.54 445.78C1308.54 443.58 1306.62 442.04 1303.94 442.04C1301.28 442.04 1299.36 443.58 1299.36 445.78C1299.36 447.6 1300.68 448.98 1302.64 449.4V450.82C1301.12 450.86 1299.66 450.86 1298.4 450.86L1298.72 452.96C1301.76 452.96 1305.9 452.9 1309.62 452.2L1309.46 450.34ZM1303.44 454.16H1300.8V459.4H1313.68V457.3H1303.44V454.16ZM1313.06 447.08V441.3H1310.42V455.36H1313.06V449.26H1315.38V447.08H1313.06ZM1323.68 452.72H1326.9V455.54H1323.68V452.72ZM1329.5 455.54V452.72H1332.08V450.62H1321.4V448.6H1331.66V442.48H1318.76V444.58H1329.06V446.54H1318.78V452.72H1321.08V455.54H1316.84V457.7H1333.54V455.54H1329.5ZM1342.62 450.88H1346.14V448.76H1339.16V445.04H1346.02V442.94H1336.52V450.88H1339.98V453.94C1338.36 453.98 1336.78 453.98 1335.34 453.98L1335.66 456.14C1339.08 456.14 1343.2 456.1 1347.14 455.48L1346.98 453.56C1345.58 453.7 1344.1 453.8 1342.62 453.88V450.88ZM1347.98 441.3V459.76H1350.62V441.3H1347.98ZM1360.52 449.7H1357.02V444.84H1360.52V449.7ZM1366.42 446.3V448.16H1363.1V446.3H1366.42ZM1363.1 450.26H1366.42V454.72H1369.06V441.3H1366.42V444.2H1363.1V442.78H1354.42V451.78H1363.1V450.26ZM1359.54 457.3V453.46H1356.9V459.4H1369.46V457.3H1359.54ZM1373.74 455.18C1374.23 455.18 1374.61 455.347 1374.88 455.68C1375.16 456 1375.3 456.46 1375.3 457.06C1375.3 457.833 1375.12 458.527 1374.78 459.14C1374.43 459.753 1373.92 460.347 1373.24 460.92L1372.46 460.18C1373.27 459.513 1373.73 458.833 1373.84 458.14C1373.66 458.22 1373.46 458.26 1373.22 458.26C1372.87 458.26 1372.6 458.147 1372.4 457.92C1372.2 457.68 1372.1 457.353 1372.1 456.94C1372.1 456.5 1372.25 456.1 1372.56 455.74C1372.88 455.367 1373.27 455.18 1373.74 455.18ZM1237.72 472.16H1235.94C1236.04 471.3 1236.1 470.42 1236.1 469.48H1228.94V471.58H1233.48C1233.14 475.18 1231.54 477.84 1227.9 480.06L1229.4 481.9C1232.84 479.86 1234.68 477.3 1235.5 474.26H1237.72V476.76H1235.16V478.88H1237.72V484.92H1240.18V467.7H1237.72V472.16ZM1241.5 467.28V485.72H1244V467.28H1241.5ZM1247.72 477.74C1249.84 477.1 1251.3 475.76 1252.1 474.08C1252.92 475.6 1254.32 476.8 1256.36 477.38L1257.6 475.34C1254.88 474.56 1253.58 472.74 1253.42 470.9H1257.06V468.76H1247.1V470.9H1250.7C1250.56 472.92 1249.22 474.86 1246.44 475.68L1247.72 477.74ZM1253.4 476.92H1250.74V480.06C1249.16 480.08 1247.66 480.08 1246.36 480.08L1246.66 482.22C1249.76 482.24 1253.84 482.26 1257.72 481.52L1257.5 479.62C1256.2 479.78 1254.8 479.9 1253.4 479.98V476.92ZM1263.52 474.58H1261.1V467.28H1258.46V485.72H1261.1V476.76H1263.52V474.58ZM1271.86 475.94H1268.36V473.34H1271.86V475.94ZM1274.44 474.32H1277.72V480.9H1280.36V467.32H1277.72V472.2H1274.44V468.54H1271.86V471.32H1268.36V468.52H1265.74V478.04H1274.44V474.32ZM1270.84 483.3V479.58H1268.2V485.4H1280.76V483.3H1270.84ZM1299.28 469.6H1292.98V467.48H1290.34V469.6H1284.08V471.7H1299.28V469.6ZM1288.12 476.08C1288.12 475.04 1289.36 474.52 1291.64 474.52C1293.96 474.52 1295.2 475.04 1295.2 476.08C1295.2 477.14 1293.96 477.62 1291.64 477.62C1289.36 477.62 1288.12 477.14 1288.12 476.08ZM1292.98 481.74V479.62C1296.04 479.32 1297.9 478.06 1297.9 476.08C1297.9 473.82 1295.5 472.48 1291.64 472.48C1287.82 472.48 1285.4 473.82 1285.4 476.08C1285.4 478.06 1287.28 479.34 1290.34 479.62V481.74H1283.36V483.88H1300.06V481.74H1292.98ZM1311.39 481.54V478.8H1316.97V476.68H1306.29V474.62H1316.55V468.48H1303.65V470.58H1313.95V472.56H1303.67V478.8H1308.75V481.54H1301.75V483.7H1318.43V481.54H1311.39ZM1328.88 471.56H1333.1V469.42H1326.28V481.58H1327.56C1329.92 481.58 1331.88 481.5 1334.12 481.08L1333.92 478.94C1332.16 479.26 1330.6 479.36 1328.88 479.4V471.56ZM1339.06 467.28V474.38H1337.4V467.64H1334.94V484.86H1337.4V476.5H1339.06V485.72H1341.56V467.28H1339.06ZM1348.72 480.84H1356.22V483.44H1348.72V480.84ZM1346.12 485.5H1358.8V478.78H1346.12V485.5ZM1358.46 474.76C1358.88 472.64 1358.88 471.08 1358.88 469.6V468.12H1346.22V470.22H1356.28C1356.28 471.5 1356.22 472.92 1355.84 474.76H1344.16V476.86H1360.84V474.76H1358.46ZM1375.18 467.28V485.76H1377.82V467.28H1375.18ZM1367.92 468.58C1365.14 468.58 1363.08 471.1 1363.08 475.14C1363.08 479.2 1365.14 481.74 1367.92 481.74C1370.7 481.74 1372.76 479.2 1372.76 475.14C1372.76 471.1 1370.7 468.58 1367.92 468.58ZM1367.92 470.96C1369.28 470.96 1370.22 472.42 1370.22 475.14C1370.22 477.88 1369.28 479.34 1367.92 479.34C1366.56 479.34 1365.62 477.88 1365.62 475.14C1365.62 472.42 1366.56 470.96 1367.92 470.96ZM1274.45 498.86C1270.29 498.36 1268.35 496.32 1268.35 494.18V493.64H1265.65V494.18C1265.65 496.26 1263.67 498.36 1259.55 498.86L1260.51 500.92C1263.59 500.46 1265.83 499.16 1266.99 497.36C1268.15 499.18 1270.39 500.46 1273.49 500.92L1274.45 498.86ZM1266.99 509.76C1264.51 509.76 1263.27 509.36 1263.27 508.46C1263.27 507.54 1264.51 507.16 1266.99 507.16C1269.47 507.16 1270.71 507.54 1270.71 508.46C1270.71 509.36 1269.47 509.76 1266.99 509.76ZM1266.99 505.18C1262.99 505.18 1260.61 506.36 1260.61 508.46C1260.61 510.56 1262.99 511.72 1266.99 511.72C1270.99 511.72 1273.39 510.56 1273.39 508.46C1273.39 506.36 1270.99 505.18 1266.99 505.18ZM1268.33 502.08V499.84H1265.69V502.08H1258.71V504.18H1275.35V502.08H1268.33ZM1281.67 506.84H1289.17V509.44H1281.67V506.84ZM1279.07 511.5H1291.75V504.78H1279.07V511.5ZM1291.41 500.76C1291.83 498.64 1291.83 497.08 1291.83 495.6V494.12H1279.17V496.22H1289.23C1289.23 497.5 1289.17 498.92 1288.79 500.76H1277.11V502.86H1293.79V500.76H1291.41ZM1307.08 501.18C1305.74 501.38 1304.32 501.5 1302.88 501.56V500.26H1306.04V498.18H1299.72V496.24H1305.94V494.14H1297.08V500.26H1300.24V501.68C1298.58 501.74 1296.96 501.74 1295.54 501.74L1295.9 503.78C1299.1 503.76 1303.36 503.7 1307.28 503L1307.08 501.18ZM1308.26 509.44H1301.02V508.1H1308.26V509.44ZM1308.26 506.1H1301.02V504.72H1298.4V511.5H1310.86V504.72H1308.26V506.1ZM1308.22 493.3V503.98H1310.86V493.3H1308.22ZM1317.48 495.04H1314.86V507.18H1316.5C1319.3 507.18 1322.36 506.98 1325.5 506.32L1325.22 504.12C1322.52 504.66 1319.9 504.86 1317.48 504.92V495.04ZM1326.64 493.28V511.7H1329.28V493.28H1326.64ZM1335.64 497.14H1341.6V495H1333.02V507.34H1334.58C1337.78 507.34 1340.3 507.24 1343.08 506.74L1342.82 504.56C1340.44 504.96 1338.26 505.1 1335.64 505.14V497.14ZM1349.4 500.1H1346.72V493.3H1344.08V511.76H1346.72V502.28H1349.4V500.1ZM1352.52 510.24C1352.08 510.24 1351.71 510.093 1351.4 509.8C1351.09 509.493 1350.94 509.127 1350.94 508.7C1350.94 508.273 1351.09 507.907 1351.4 507.6C1351.71 507.28 1352.08 507.12 1352.52 507.12C1352.93 507.12 1353.29 507.28 1353.6 507.6C1353.91 507.907 1354.06 508.273 1354.06 508.7C1354.06 509.127 1353.91 509.493 1353.6 509.8C1353.31 510.093 1352.95 510.24 1352.52 510.24Z" fill="white"/>
<defs>
<filter id="filter0_d_0:1" x="463" y="338" width="291" height="310" filterUnits="userSpaceOnUse" color-interpolation-filters="sRGB">
<feFlood flood-opacity="0" result="BackgroundImageFix"/>
<feColorMatrix in="SourceAlpha" type="matrix" values="0 0 0 0 0 0 0 0 0 0 0 0 0 0 0 0 0 0 127 0" result="hardAlpha"/>
<feOffset dx="5" dy="9"/>
<feGaussianBlur stdDeviation="2"/>
<feComposite in2="hardAlpha" operator="out"/>
<feColorMatrix type="matrix" values="0 0 0 0 0 0 0 0 0 0 0 0 0 0 0 0 0 0 0.25 0"/>
<feBlend mode="normal" in2="BackgroundImageFix" result="effect1_dropShadow_0:1"/>
<feBlend mode="normal" in="SourceGraphic" in2="effect1_dropShadow_0:1" result="shape"/>
</filter>
<filter id="filter1_d_0:1" x="821" y="338" width="291" height="310" filterUnits="userSpaceOnUse" color-interpolation-filters="sRGB">
<feFlood flood-opacity="0" result="BackgroundImageFix"/>
<feColorMatrix in="SourceAlpha" type="matrix" values="0 0 0 0 0 0 0 0 0 0 0 0 0 0 0 0 0 0 127 0" result="hardAlpha"/>
<feOffset dx="5" dy="9"/>
<feGaussianBlur stdDeviation="2"/>
<feComposite in2="hardAlpha" operator="out"/>
<feColorMatrix type="matrix" values="0 0 0 0 0 0 0 0 0 0 0 0 0 0 0 0 0 0 0.25 0"/>
<feBlend mode="normal" in2="BackgroundImageFix" result="effect1_dropShadow_0:1"/>
<feBlend mode="normal" in="SourceGraphic" in2="effect1_dropShadow_0:1" result="shape"/>
</filter>
<filter id="filter2_d_0:1" x="1161" y="338" width="291" height="310" filterUnits="userSpaceOnUse" color-interpolation-filters="sRGB">
<feFlood flood-opacity="0" result="BackgroundImageFix"/>
<feColorMatrix in="SourceAlpha" type="matrix" values="0 0 0 0 0 0 0 0 0 0 0 0 0 0 0 0 0 0 127 0" result="hardAlpha"/>
<feOffset dx="5" dy="9"/>
<feGaussianBlur stdDeviation="2"/>
<feComposite in2="hardAlpha" operator="out"/>
<feColorMatrix type="matrix" values="0 0 0 0 0 0 0 0 0 0 0 0 0 0 0 0 0 0 0.25 0"/>
<feBlend mode="normal" in2="BackgroundImageFix" result="effect1_dropShadow_0:1"/>
<feBlend mode="normal" in="SourceGraphic" in2="effect1_dropShadow_0:1" result="shape"/>
</filter>
</defs>
</svg>
