<svg width="431" height="220" viewBox="0 0 431 220" fill="none" xmlns="http://www.w3.org/2000/svg">
<rect width="431" height="220" fill="#E5E5E5"/>
<g clip-path="url(#clip0)">
<rect width="431" height="220" fill="white"/>
<path d="M145 101.5C137.567 102.167 131.4 102.5 126.5 102.5C123.233 102.5 120.833 101.733 119.3 100.2C117.767 98.6667 117 96.2667 117 93V77C117 73.5 117.783 70.9667 119.35 69.4C120.95 67.8 123.5 67 127 67H145V74H129C127 74 126 75 126 77V93C126 93.7667 126.217 94.3833 126.65 94.85C127.117 95.2833 127.7 95.5 128.4 95.5C129.1 95.5 129.867 95.5 130.7 95.5C131.533 95.4667 132.4 95.4333 133.3 95.4C134.2 95.3667 135.1 95.3333 136 95.3C136.933 95.2667 138.117 95.2 139.55 95.1C141.017 95 142.833 94.8833 145 94.75V101.5ZM167.256 102L166.756 99.5C165.189 100.533 163.573 101.3 161.906 101.8C160.273 102.267 158.889 102.5 157.756 102.5H155.506C153.239 102.5 151.423 101.817 150.056 100.45C148.689 99.0833 148.006 97.2667 148.006 95V83.5C148.006 81 148.706 79.05 150.106 77.65C151.539 76.2167 153.506 75.5 156.006 75.5H166.256V67H175.006V102H167.256ZM160.256 95.25C162.023 95.25 164.023 94.9167 166.256 94.25V82.25H158.756C157.423 82.25 156.756 82.9167 156.756 84.25V93.5C156.756 94 156.923 94.4167 157.256 94.75C157.589 95.0833 158.006 95.25 158.506 95.25H160.256ZM207 94.5C207 97 206.283 98.9667 204.85 100.4C203.45 101.8 201.5 102.5 199 102.5H187.5C185 102.5 183.033 101.8 181.6 100.4C180.2 98.9667 179.5 97 179.5 94.5V83C179.5 80.5 180.2 78.55 181.6 77.15C183.033 75.7167 185 75 187.5 75H199C201.5 75 203.45 75.7167 204.85 77.15C206.283 78.55 207 80.5 207 83V94.5ZM198.25 83.75C198.25 82.4167 197.583 81.75 196.25 81.75H190.25C188.917 81.75 188.25 82.4167 188.25 83.75V93.75C188.25 95.0833 188.917 95.75 190.25 95.75H196.25C197.583 95.75 198.25 95.0833 198.25 93.75V83.75ZM241.994 101.25C234.194 102.083 227.027 102.5 220.494 102.5C217.227 102.5 214.827 101.733 213.294 100.2C211.761 98.6667 210.994 96.2667 210.994 93V77C210.994 73.5 211.777 70.9667 213.344 69.4C214.944 67.8 217.494 67 220.994 67H238.994V74H222.994C220.994 74 219.994 75 219.994 77V93C219.994 93.7667 220.211 94.3833 220.644 94.85C221.111 95.2833 221.727 95.5 222.494 95.5C226.327 95.5 229.827 95.4167 232.994 95.25V88H226.494V82H241.994V101.25ZM277.004 101.25C269.204 102.083 262.037 102.5 255.504 102.5C252.237 102.5 249.837 101.733 248.304 100.2C246.771 98.6667 246.004 96.2667 246.004 93V77C246.004 73.5 246.787 70.9667 248.354 69.4C249.954 67.8 252.504 67 256.004 67H274.004V74H258.004C256.004 74 255.004 75 255.004 77V93C255.004 93.7667 255.221 94.3833 255.654 94.85C256.121 95.2833 256.737 95.5 257.504 95.5C261.337 95.5 264.837 95.4167 268.004 95.25V88H261.504V82H277.004V101.25ZM308.514 94.5C308.514 97 307.797 98.9667 306.364 100.4C304.964 101.8 303.014 102.5 300.514 102.5H289.014C286.514 102.5 284.547 101.8 283.114 100.4C281.714 98.9667 281.014 97 281.014 94.5V83C281.014 80.5 281.714 78.55 283.114 77.15C284.547 75.7167 286.514 75 289.014 75H300.514C303.014 75 304.964 75.7167 306.364 77.15C307.797 78.55 308.514 80.5 308.514 83V94.5ZM299.764 83.75C299.764 82.4167 299.097 81.75 297.764 81.75H291.764C290.43 81.75 289.764 82.4167 289.764 83.75V93.75C289.764 95.0833 290.43 95.75 291.764 95.75H297.764C299.097 95.75 299.764 95.0833 299.764 93.75V83.75Z" fill="black"/>
<path d="M81.82 127.94V129.28H88.42C88.08 132.44 85.32 134.98 81.1 136.3L81.76 137.6C86.92 135.98 90.18 132.58 90.18 127.94H81.82ZM85.44 138.32H83.8V144.08H95.76V142.74H85.44V138.32ZM94.98 132V126.56H93.34V139.66H94.98V133.36H97.62V132H94.98ZM112.578 139.88H114.238V126.56H112.578V129.96H109.578V131.28H112.578V133.38H109.578V134.72H112.578V139.88ZM103.358 129.32H106.058V135.68C105.158 135.72 104.238 135.76 103.358 135.78V129.32ZM109.998 135.36C109.258 135.44 108.458 135.52 107.658 135.58V129.32H109.438V128H99.9984V129.32H101.778V135.8C100.978 135.82 100.198 135.82 99.5184 135.82L99.6984 137.18C102.598 137.18 106.658 137.12 110.098 136.58L109.998 135.36ZM104.378 142.74V138.8H102.738V144.08H114.698V142.74H104.378ZM123.117 139.12C121.497 139.12 120.317 137.96 120.317 136.36C120.317 134.74 121.497 133.58 123.117 133.58C124.757 133.58 125.937 134.74 125.937 136.36C125.937 137.96 124.757 139.12 123.117 139.12ZM123.117 132.22C120.597 132.22 118.777 133.94 118.777 136.36C118.777 138.8 120.597 140.48 123.117 140.48C125.677 140.48 127.497 138.8 127.497 136.36C127.497 133.94 125.677 132.22 123.117 132.22ZM123.917 126.76H122.277V129.42H117.757V130.74H128.337V129.42H123.917V126.76ZM134.617 133.92H131.677V126.56H130.037V144.48H131.677V135.3H134.617V133.92ZM148.915 130.12C148.915 132.28 148.915 134.8 148.235 138.24L149.875 138.42C150.555 134.8 150.555 132.34 150.555 130.12V128.34H137.975V129.68H148.915V130.12ZM144.215 140.62V134.2H142.575V140.62H136.275V141.96H152.495V140.62H144.215ZM171.79 132.86C169.09 132.2 167.33 130.5 167.33 128.42V127.3H165.65V128.42C165.65 130.62 163.83 132.54 161.11 133.28L161.91 134.56C164.07 133.94 165.75 132.58 166.51 130.8C167.33 132.42 168.93 133.58 171.03 134.14L171.79 132.86ZM172.45 135.56C168.53 136.12 163.97 136.16 160.59 136.16L160.83 137.54C162.31 137.54 164.01 137.52 165.79 137.44V143.92H167.43V137.36C169.13 137.26 170.89 137.06 172.57 136.76L172.45 135.56ZM173.73 126.56V144.5H175.37V126.56H173.73ZM187.148 128.32C189.908 128.32 191.708 129.18 191.708 130.6C191.708 132 189.908 132.86 187.148 132.86C184.408 132.86 182.588 132 182.588 130.6C182.588 129.18 184.408 128.32 187.148 128.32ZM187.148 134.2C190.948 134.2 193.428 132.82 193.428 130.6C193.428 128.38 190.948 127 187.148 127C183.348 127 180.868 128.38 180.868 130.6C180.868 132.82 183.348 134.2 187.148 134.2ZM182.748 138.84H181.108V144.08H193.508V142.72H182.748V138.84ZM179.028 135.64V136.98H186.468V140.6H188.128V136.98H195.288V135.64H179.028ZM204.943 133.86C207.883 133.5 210.583 132.18 211.563 130.2C212.563 132.18 215.243 133.5 218.183 133.86L218.763 132.56C215.623 132.2 212.763 130.66 212.623 128.68H218.203V127.36H204.943V128.68H210.503C210.363 130.66 207.503 132.2 204.363 132.56L204.943 133.86ZM216.023 141.3C216.023 142.5 214.343 143.2 211.543 143.2C208.723 143.2 207.063 142.5 207.063 141.3C207.063 140.1 208.723 139.42 211.543 139.42C214.343 139.42 216.023 140.1 216.023 141.3ZM219.663 136.26V134.94H203.443V136.26H210.723V138.18C207.383 138.34 205.403 139.44 205.403 141.3C205.403 143.34 207.723 144.46 211.563 144.46C215.383 144.46 217.683 143.34 217.683 141.3C217.683 139.44 215.723 138.34 212.383 138.18V136.26H219.663ZM234.501 130.12C234.501 132.28 234.501 134.8 233.821 138.24L235.461 138.42C236.141 134.8 236.141 132.34 236.141 130.12V128.34H223.561V129.68H234.501V130.12ZM229.801 140.62V134.2H228.161V140.62H221.861V141.96H238.081V140.62H229.801ZM241.02 128.48V129.8H247.56C247.26 134 245.04 137.42 240.22 139.78L241.12 141.06C247.08 138.12 249.2 133.58 249.2 128.48H241.02ZM253.36 126.56V133.74H249.16V135.08H253.36V144.48H255V126.56H253.36ZM260.818 134.8H265.918V128.5H259.178V129.84H264.318V133.46H259.238V140.18H260.418C262.638 140.18 264.658 140.1 267.138 139.68L267.018 138.32C264.738 138.72 262.858 138.8 260.818 138.82V134.8ZM272.298 126.54V133.62H269.758V126.94H268.218V143.56H269.758V134.96H272.298V144.46H273.878V126.54H272.298ZM293.353 131.78H288.893V128.36H293.353V131.78ZM287.253 131.78H284.593V133.04H297.633V131.78H294.993V128.36H297.693V127.1H284.533V128.36H287.253V131.78ZM286.633 141.36H297.173V137.42H284.973V138.64H295.553V140.18H285.033V144.28H297.713V143.04H286.633V141.36ZM283.013 134.54V135.84H299.253V134.54H283.013ZM312.591 132.56H314.991V138.76H316.571V126.56H314.991V131.24H312.591V126.88H311.031V137.2H312.591V132.56ZM309.991 135.08C307.931 135.5 306.151 135.6 303.831 135.62V132.96H308.951V127.96H302.211V129.28H307.371V131.72H302.251V136.94H303.431C306.011 136.94 307.891 136.84 310.171 136.38L309.991 135.08ZM311.411 137.94H309.751V138.4C309.751 140.72 306.831 142.64 303.691 143.14L304.351 144.42C307.011 143.96 309.491 142.58 310.591 140.6C311.671 142.58 314.191 143.96 316.831 144.42L317.491 143.14C314.331 142.64 311.411 140.72 311.411 138.4V137.94ZM323.43 139.9H332.47V142.92H323.43V139.9ZM321.83 144.24H334.07V138.6H321.83V144.24ZM325.69 128.44H330.15V132.2H325.69V128.44ZM328.75 135.58V133.52H334.43V132.2H331.79V128.44H334.51V127.12H321.35V128.44H324.05V132.2H321.41V133.52H327.11V135.58H319.83V136.9H336.05V135.58H328.75Z" fill="black"/>
<rect x="-26.9135" y="54.9105" width="110" height="16" transform="rotate(-41.057 -26.9135 54.9105)" fill="black"/>
<rect x="367" y="230.992" width="110" height="16" transform="rotate(-45.8984 367 230.992)" fill="black"/>
</g>
<defs>
<clipPath id="clip0">
<rect width="431" height="220" fill="white"/>
</clipPath>
</defs>
</svg>
