<svg width="1440" height="1024" viewBox="0 0 1440 1024" fill="none" xmlns="http://www.w3.org/2000/svg">
<rect width="1440" height="1024" fill="#E5E5E5"/>
<g clip-path="url(#clip0)">
<rect width="1440" height="1024" fill="white"/>
<rect x="720" width="807" height="1024" fill="url(#paint0_linear)"/>
<g style="mix-blend-mode:color-dodge">
<ellipse cx="1324.5" cy="132" rx="175.5" ry="169" fill="#687613" fill-opacity="0.23"/>
</g>
<g style="mix-blend-mode:screen">
<ellipse cx="1392" cy="312" rx="101" ry="103" fill="#CFE448" fill-opacity="0.23"/>
</g>
<g style="mix-blend-mode:color-dodge" filter="url(#filter0_i)">
<ellipse cx="1036.97" cy="469.357" rx="115.364" ry="108.511" transform="rotate(-1.94144 1036.97 469.357)" fill="#FBF218" fill-opacity="0.23"/>
</g>
<g style="mix-blend-mode:color-dodge" filter="url(#filter1_i)">
<ellipse cx="895.094" cy="611.714" rx="141.5" ry="138" transform="rotate(-1.94144 895.094 611.714)" fill="#FBF218" fill-opacity="0.23"/>
</g>
<path d="M936.068 412.137C933.887 412.137 932.081 411.697 930.648 410.818C929.249 409.939 928.142 408.768 927.328 407.303C926.482 405.87 925.896 404.21 925.57 402.322C925.245 400.402 925.082 398.416 925.082 396.365V394.9C925.082 392.882 925.245 390.929 925.57 389.041C925.928 387.153 926.531 385.477 927.377 384.012C928.191 382.547 929.298 381.375 930.697 380.496C932.097 379.617 933.871 379.178 936.02 379.178C937.484 379.178 938.835 379.438 940.072 379.959C941.309 380.447 942.367 381.115 943.246 381.961C944.125 382.807 944.792 383.816 945.248 384.988C945.704 386.16 945.899 387.397 945.834 388.699H958.627C958.692 385.574 958.171 382.758 957.064 380.252C955.958 377.713 954.411 375.548 952.426 373.758C950.408 372 948.015 370.633 945.248 369.656C942.481 368.68 939.47 368.191 936.215 368.191C932.146 368.191 928.565 368.891 925.473 370.291C922.413 371.691 919.841 373.595 917.758 376.004C915.674 378.413 914.112 381.245 913.07 384.5C912.029 387.723 911.508 391.189 911.508 394.9V396.365C911.508 400.076 912.029 403.559 913.07 406.814C914.145 410.037 915.723 412.853 917.807 415.262C919.857 417.671 922.429 419.575 925.521 420.975C928.614 422.342 932.211 423.025 936.312 423.025C939.34 423.025 942.204 422.553 944.906 421.609C947.641 420.633 950.033 419.298 952.084 417.605C954.135 415.913 955.746 413.895 956.918 411.551C958.122 409.207 958.692 406.668 958.627 403.934H945.834C945.899 405.171 945.671 406.294 945.15 407.303C944.662 408.312 943.962 409.174 943.051 409.891C942.139 410.607 941.081 411.16 939.877 411.551C938.673 411.941 937.403 412.137 936.068 412.137ZM970.957 422H990.049C993.206 422 996.169 421.609 998.936 420.828C1001.74 420.047 1004.29 418.924 1006.6 417.459C1008.59 416.222 1010.41 414.692 1012.07 412.869C1013.73 411.014 1015.18 408.995 1016.42 406.814C1017.72 404.373 1018.73 401.688 1019.44 398.758C1020.16 395.828 1020.52 392.719 1020.52 389.432V383.572C1020.52 380.154 1020.13 376.932 1019.35 373.904C1018.6 370.877 1017.52 368.11 1016.12 365.604C1014.92 363.553 1013.5 361.665 1011.88 359.939C1010.28 358.182 1008.46 356.701 1006.41 355.496C1004.06 354.031 1001.46 352.908 998.594 352.127C995.729 351.313 992.653 350.906 989.365 350.906H970.957V422ZM984.775 362.039H989.365C991.025 362.039 992.555 362.234 993.955 362.625C995.387 362.983 996.689 363.504 997.861 364.188C999.391 365.099 1000.73 366.271 1001.87 367.703C1003.04 369.135 1003.98 370.763 1004.7 372.586C1005.28 374.116 1005.72 375.809 1006.02 377.664C1006.34 379.487 1006.5 381.424 1006.5 383.475V389.432C1006.5 391.613 1006.34 393.647 1006.02 395.535C1005.72 397.391 1005.28 399.083 1004.7 400.613C1003.98 402.371 1003.12 403.917 1002.11 405.252C1001.13 406.554 1000.03 407.628 998.789 408.475C997.585 409.288 996.25 409.907 994.785 410.33C993.32 410.753 991.742 410.965 990.049 410.965H984.775V362.039ZM1028.94 395.096V396.121C1028.94 399.995 1029.49 403.576 1030.6 406.863C1031.71 410.118 1033.34 412.951 1035.48 415.359C1037.6 417.768 1040.2 419.656 1043.3 421.023C1046.42 422.358 1049.97 423.025 1053.94 423.025C1057.88 423.025 1061.4 422.358 1064.49 421.023C1067.58 419.656 1070.18 417.768 1072.3 415.359C1074.42 412.951 1076.03 410.118 1077.13 406.863C1078.24 403.576 1078.79 399.995 1078.79 396.121V395.096C1078.79 391.255 1078.24 387.706 1077.13 384.451C1076.03 381.163 1074.42 378.315 1072.3 375.906C1070.15 373.497 1067.53 371.609 1064.44 370.242C1061.35 368.875 1057.82 368.191 1053.84 368.191C1049.87 368.191 1046.34 368.875 1043.25 370.242C1040.19 371.609 1037.6 373.497 1035.48 375.906C1033.34 378.315 1031.71 381.163 1030.6 384.451C1029.49 387.706 1028.94 391.255 1028.94 395.096ZM1042.52 396.121V395.096C1042.52 392.947 1042.73 390.913 1043.15 388.992C1043.57 387.072 1044.24 385.379 1045.15 383.914C1046.06 382.449 1047.24 381.294 1048.67 380.447C1050.1 379.601 1051.83 379.178 1053.84 379.178C1055.89 379.178 1057.64 379.601 1059.07 380.447C1060.5 381.294 1061.67 382.449 1062.58 383.914C1063.46 385.379 1064.11 387.072 1064.54 388.992C1064.96 390.913 1065.17 392.947 1065.17 395.096V396.121C1065.17 398.335 1064.96 400.418 1064.54 402.371C1064.11 404.292 1063.46 405.968 1062.58 407.4C1061.67 408.865 1060.5 410.021 1059.07 410.867C1057.64 411.714 1055.93 412.137 1053.94 412.137C1051.89 412.137 1050.13 411.714 1048.67 410.867C1047.24 410.021 1046.06 408.865 1045.15 407.4C1044.24 405.968 1043.57 404.292 1043.15 402.371C1042.73 400.418 1042.52 398.335 1042.52 396.121ZM1138.24 413.699L1138.2 385.672H1112.76V395.926H1124.52L1124.47 408.816C1124.12 409.24 1123.58 409.646 1122.86 410.037C1122.18 410.395 1121.38 410.721 1120.47 411.014C1119.56 411.307 1118.58 411.535 1117.54 411.697C1116.5 411.86 1115.44 411.941 1114.37 411.941C1112.61 411.909 1111.03 411.632 1109.63 411.111C1108.26 410.558 1107.06 409.76 1106.02 408.719C1105.4 408.1 1104.83 407.4 1104.31 406.619C1103.82 405.805 1103.38 404.926 1102.99 403.982C1102.37 402.355 1101.88 400.483 1101.53 398.367C1101.2 396.251 1101.04 393.908 1101.04 391.336V381.57C1101.04 379.52 1101.15 377.615 1101.38 375.857C1101.64 374.1 1102 372.505 1102.45 371.072C1103.04 369.217 1103.77 367.605 1104.65 366.238C1105.56 364.871 1106.57 363.764 1107.68 362.918C1108.52 362.299 1109.44 361.827 1110.41 361.502C1111.39 361.176 1112.4 361.014 1113.44 361.014C1115.36 361.014 1117 361.274 1118.37 361.795C1119.77 362.283 1120.93 363.032 1121.84 364.041C1122.65 364.952 1123.29 366.076 1123.74 367.41C1124.23 368.745 1124.59 370.275 1124.82 372H1138.2C1137.84 368.582 1137.07 365.506 1135.9 362.771C1134.76 360.037 1133.17 357.71 1131.12 355.789C1129.06 353.901 1126.54 352.452 1123.55 351.443C1120.58 350.434 1117.1 349.93 1113.1 349.93C1110.49 349.93 1108.02 350.288 1105.68 351.004C1103.33 351.72 1101.17 352.778 1099.18 354.178C1097.49 355.415 1095.93 356.88 1094.49 358.572C1093.09 360.265 1091.86 362.169 1090.78 364.285C1089.64 366.661 1088.76 369.314 1088.15 372.244C1087.53 375.141 1087.22 378.283 1087.22 381.668V391.336C1087.22 394.884 1087.53 398.172 1088.15 401.199C1088.8 404.227 1089.74 406.945 1090.98 409.354C1092.05 411.535 1093.35 413.471 1094.88 415.164C1096.45 416.857 1098.17 418.289 1100.06 419.461C1101.98 420.6 1104.08 421.463 1106.36 422.049C1108.67 422.667 1111.13 422.977 1113.73 422.977C1116.73 422.977 1119.53 422.7 1122.13 422.146C1124.74 421.593 1127.1 420.861 1129.21 419.949C1131.29 419.07 1133.1 418.077 1134.63 416.971C1136.16 415.864 1137.37 414.773 1138.24 413.699ZM1197.3 413.699L1197.25 385.672H1171.81V395.926H1183.58L1183.53 408.816C1183.18 409.24 1182.64 409.646 1181.92 410.037C1181.24 410.395 1180.44 410.721 1179.53 411.014C1178.62 411.307 1177.64 411.535 1176.6 411.697C1175.56 411.86 1174.5 411.941 1173.43 411.941C1171.67 411.909 1170.09 411.632 1168.69 411.111C1167.32 410.558 1166.12 409.76 1165.08 408.719C1164.46 408.1 1163.89 407.4 1163.37 406.619C1162.88 405.805 1162.44 404.926 1162.05 403.982C1161.43 402.355 1160.94 400.483 1160.58 398.367C1160.26 396.251 1160.1 393.908 1160.1 391.336V381.57C1160.1 379.52 1160.21 377.615 1160.44 375.857C1160.7 374.1 1161.06 372.505 1161.51 371.072C1162.1 369.217 1162.83 367.605 1163.71 366.238C1164.62 364.871 1165.63 363.764 1166.74 362.918C1167.58 362.299 1168.49 361.827 1169.47 361.502C1170.45 361.176 1171.46 361.014 1172.5 361.014C1174.42 361.014 1176.06 361.274 1177.43 361.795C1178.83 362.283 1179.99 363.032 1180.9 364.041C1181.71 364.952 1182.35 366.076 1182.8 367.41C1183.29 368.745 1183.65 370.275 1183.88 372H1197.25C1196.9 368.582 1196.13 365.506 1194.96 362.771C1193.82 360.037 1192.22 357.71 1190.17 355.789C1188.12 353.901 1185.6 352.452 1182.61 351.443C1179.64 350.434 1176.16 349.93 1172.16 349.93C1169.55 349.93 1167.08 350.288 1164.73 351.004C1162.39 351.72 1160.23 352.778 1158.24 354.178C1156.55 355.415 1154.99 356.88 1153.55 358.572C1152.15 360.265 1150.92 362.169 1149.84 364.285C1148.7 366.661 1147.82 369.314 1147.21 372.244C1146.59 375.141 1146.28 378.283 1146.28 381.668V391.336C1146.28 394.884 1146.59 398.172 1147.21 401.199C1147.86 404.227 1148.8 406.945 1150.04 409.354C1151.11 411.535 1152.41 413.471 1153.94 415.164C1155.51 416.857 1157.23 418.289 1159.12 419.461C1161.04 420.6 1163.14 421.463 1165.42 422.049C1167.73 422.667 1170.19 422.977 1172.79 422.977C1175.79 422.977 1178.59 422.7 1181.19 422.146C1183.79 421.593 1186.15 420.861 1188.27 419.949C1190.35 419.07 1192.16 418.077 1193.69 416.971C1195.22 415.864 1196.42 414.773 1197.3 413.699ZM1206.12 395.096V396.121C1206.12 399.995 1206.67 403.576 1207.78 406.863C1208.88 410.118 1210.51 412.951 1212.66 415.359C1214.78 417.768 1217.38 419.656 1220.47 421.023C1223.6 422.358 1227.15 423.025 1231.12 423.025C1235.06 423.025 1238.57 422.358 1241.66 421.023C1244.76 419.656 1247.36 417.768 1249.48 415.359C1251.59 412.951 1253.2 410.118 1254.31 406.863C1255.42 403.576 1255.97 399.995 1255.97 396.121V395.096C1255.97 391.255 1255.42 387.706 1254.31 384.451C1253.2 381.163 1251.59 378.315 1249.48 375.906C1247.33 373.497 1244.71 371.609 1241.62 370.242C1238.52 368.875 1234.99 368.191 1231.02 368.191C1227.05 368.191 1223.52 368.875 1220.42 370.242C1217.36 371.609 1214.78 373.497 1212.66 375.906C1210.51 378.315 1208.88 381.163 1207.78 384.451C1206.67 387.706 1206.12 391.255 1206.12 395.096ZM1219.69 396.121V395.096C1219.69 392.947 1219.9 390.913 1220.33 388.992C1220.75 387.072 1221.42 385.379 1222.33 383.914C1223.24 382.449 1224.41 381.294 1225.84 380.447C1227.28 379.601 1229 379.178 1231.02 379.178C1233.07 379.178 1234.81 379.601 1236.24 380.447C1237.68 381.294 1238.85 382.449 1239.76 383.914C1240.64 385.379 1241.29 387.072 1241.71 388.992C1242.14 390.913 1242.35 392.947 1242.35 395.096V396.121C1242.35 398.335 1242.14 400.418 1241.71 402.371C1241.29 404.292 1240.64 405.968 1239.76 407.4C1238.85 408.865 1237.68 410.021 1236.24 410.867C1234.81 411.714 1233.1 412.137 1231.12 412.137C1229.07 412.137 1227.31 411.714 1225.84 410.867C1224.41 410.021 1223.24 408.865 1222.33 407.4C1221.42 405.968 1220.75 404.292 1220.33 402.371C1219.9 400.418 1219.69 398.335 1219.69 396.121ZM1295.84 382.352V363.113H1282.9V382.352H1264.98V394.754H1282.9V414.871H1295.84V394.754H1313.71V382.352H1295.84Z" fill="white"/>
<path d="M872.849 476.453L887.473 510.071L902.146 476.453H904.074V512H902.756V478.406L888.01 512H886.96L872.287 478.577V512H870.969V476.453H872.849ZM933.005 501.38H915.598L911.643 512H910.202L923.508 476.453H925.119L938.425 512H936.984L933.005 501.38ZM916.086 500.062H932.517L924.313 478.04L916.086 500.062ZM951.169 493.299L945.48 498.548V512H944.162V476.453H945.48V497.01L951.34 491.272L966.086 476.453H967.99L952.146 492.396L969.211 512H967.502L951.169 493.299ZM995.041 494.373H977.219V510.682H997.531V512H975.9V476.453H997.531V477.771H977.219V493.055H995.041V494.373ZM1035.06 501.38H1017.65L1013.69 512H1012.25L1025.56 476.453H1027.17L1040.48 512H1039.04L1035.06 501.38ZM1018.14 500.062H1034.57L1026.36 478.04L1018.14 500.062ZM1071.82 512H1070.5L1047.56 478.699V512H1046.21V476.453H1047.56L1070.5 509.681V476.453H1071.82V512ZM1112.72 494.373H1094.89V510.682H1115.21V512H1093.58V476.453H1115.21V477.771H1094.89V493.055H1112.72V494.373ZM1146.21 501.111C1145.87 504.773 1144.61 507.589 1142.43 509.559C1140.25 511.512 1137.29 512.488 1133.54 512.488C1131.02 512.488 1128.78 511.854 1126.83 510.584C1124.89 509.298 1123.39 507.483 1122.31 505.14C1121.24 502.78 1120.69 500.086 1120.68 497.059V491.565C1120.68 488.538 1121.2 485.836 1122.26 483.46C1123.32 481.067 1124.83 479.22 1126.78 477.918C1128.75 476.616 1131 475.965 1133.54 475.965C1137.25 475.965 1140.21 476.941 1142.4 478.895C1144.6 480.848 1145.87 483.647 1146.21 487.293H1144.89C1144.52 484.021 1143.38 481.539 1141.48 479.847C1139.57 478.138 1136.93 477.283 1133.54 477.283C1130.09 477.283 1127.3 478.585 1125.17 481.189C1123.05 483.794 1121.99 487.285 1121.99 491.663V496.888C1121.99 499.687 1122.47 502.169 1123.41 504.334C1124.35 506.482 1125.71 508.159 1127.46 509.363C1129.24 510.568 1131.26 511.17 1133.54 511.17C1136.94 511.17 1139.6 510.332 1141.5 508.655C1143.42 506.979 1144.55 504.464 1144.89 501.111H1146.21ZM1179.64 496.888C1179.64 499.964 1179.08 502.69 1177.98 505.066C1176.89 507.426 1175.32 509.257 1173.29 510.56C1171.25 511.845 1168.91 512.488 1166.26 512.488C1162.25 512.488 1159.01 511.064 1156.54 508.216C1154.07 505.368 1152.83 501.526 1152.83 496.692V491.565C1152.83 488.506 1153.37 485.787 1154.46 483.411C1155.57 481.035 1157.14 479.204 1159.18 477.918C1161.23 476.616 1163.57 475.965 1166.21 475.965C1168.86 475.965 1171.2 476.616 1173.24 477.918C1175.29 479.204 1176.87 481.043 1177.98 483.436C1179.08 485.812 1179.64 488.522 1179.64 491.565V496.888ZM1178.32 491.517C1178.32 487.22 1177.23 483.777 1175.05 481.189C1172.86 478.585 1169.92 477.283 1166.21 477.283C1162.55 477.283 1159.62 478.577 1157.44 481.165C1155.26 483.737 1154.17 487.244 1154.17 491.688V496.888C1154.17 499.72 1154.66 502.226 1155.64 504.407C1156.63 506.572 1158.04 508.24 1159.86 509.412C1161.68 510.584 1163.82 511.17 1166.26 511.17C1169.97 511.17 1172.91 509.876 1175.07 507.288C1177.24 504.7 1178.32 501.168 1178.32 496.692V491.517ZM1213.38 512H1212.06L1189.11 478.699V512H1187.77V476.453H1189.11L1212.06 509.681V476.453H1213.38V512ZM1248.34 496.888C1248.34 499.964 1247.78 502.69 1246.68 505.066C1245.59 507.426 1244.02 509.257 1241.99 510.56C1239.95 511.845 1237.61 512.488 1234.96 512.488C1230.95 512.488 1227.72 511.064 1225.24 508.216C1222.77 505.368 1221.53 501.526 1221.53 496.692V491.565C1221.53 488.506 1222.08 485.787 1223.17 483.411C1224.27 481.035 1225.84 479.204 1227.88 477.918C1229.93 476.616 1232.27 475.965 1234.91 475.965C1237.56 475.965 1239.91 476.616 1241.94 477.918C1243.99 479.204 1245.57 481.043 1246.68 483.436C1247.78 485.812 1248.34 488.522 1248.34 491.565V496.888ZM1247.02 491.517C1247.02 487.22 1245.93 483.777 1243.75 481.189C1241.57 478.585 1238.62 477.283 1234.91 477.283C1231.25 477.283 1228.33 478.577 1226.14 481.165C1223.96 483.737 1222.87 487.244 1222.87 491.688V496.888C1222.87 499.72 1223.36 502.226 1224.34 504.407C1225.33 506.572 1226.74 508.24 1228.56 509.412C1230.38 510.584 1232.52 511.17 1234.96 511.17C1238.67 511.17 1241.61 509.876 1243.77 507.288C1245.94 504.7 1247.02 501.168 1247.02 496.692V491.517ZM1258.35 476.453L1272.97 510.071L1287.64 476.453H1289.57V512H1288.25V478.406L1273.51 512H1272.46L1257.79 478.577V512H1256.47V476.453H1258.35ZM1301.63 512H1300.31V476.453H1301.63V512ZM1336.54 501.111C1336.2 504.773 1334.94 507.589 1332.76 509.559C1330.58 511.512 1327.62 512.488 1323.87 512.488C1321.35 512.488 1319.11 511.854 1317.16 510.584C1315.22 509.298 1313.72 507.483 1312.64 505.14C1311.57 502.78 1311.02 500.086 1311.01 497.059V491.565C1311.01 488.538 1311.54 485.836 1312.59 483.46C1313.65 481.067 1315.16 479.22 1317.11 477.918C1319.08 476.616 1321.33 475.965 1323.87 475.965C1327.58 475.965 1330.54 476.941 1332.74 478.895C1334.93 480.848 1336.2 483.647 1336.54 487.293H1335.23C1334.85 484.021 1333.71 481.539 1331.81 479.847C1329.9 478.138 1327.26 477.283 1323.87 477.283C1320.42 477.283 1317.63 478.585 1315.5 481.189C1313.38 483.794 1312.33 487.285 1312.33 491.663V496.888C1312.33 499.687 1312.8 502.169 1313.74 504.334C1314.69 506.482 1316.04 508.159 1317.79 509.363C1319.57 510.568 1321.6 511.17 1323.87 511.17C1327.28 511.17 1329.93 510.332 1331.83 508.655C1333.75 506.979 1334.88 504.464 1335.23 501.111H1336.54ZM929.099 591.111C928.757 594.773 927.495 597.589 925.314 599.559C923.133 601.512 920.171 602.488 916.428 602.488C913.905 602.488 911.667 601.854 909.714 600.584C907.777 599.298 906.271 597.483 905.197 595.14C904.123 592.78 903.578 590.086 903.562 587.059V581.565C903.562 578.538 904.09 575.836 905.148 573.46C906.206 571.067 907.712 569.22 909.665 567.918C911.634 566.616 913.889 565.965 916.428 565.965C920.139 565.965 923.093 566.941 925.29 568.895C927.487 570.848 928.757 573.647 929.099 577.293H927.78C927.406 574.021 926.267 571.539 924.362 569.847C922.458 568.138 919.813 567.283 916.428 567.283C912.977 567.283 910.186 568.585 908.054 571.189C905.938 573.794 904.88 577.285 904.88 581.663V586.888C904.88 589.687 905.352 592.169 906.296 594.334C907.24 596.482 908.591 598.159 910.349 599.363C912.123 600.568 914.149 601.17 916.428 601.17C919.829 601.17 922.482 600.332 924.387 598.655C926.307 596.979 927.438 594.464 927.78 591.111H929.099ZM962.692 602H961.374V584.373H938.669V602H937.351V566.453H938.669V583.055H961.374V566.453H962.692V602ZM997.629 586.888C997.629 589.964 997.076 592.69 995.969 595.066C994.878 597.426 993.316 599.257 991.281 600.56C989.247 601.845 986.903 602.488 984.25 602.488C980.246 602.488 977.007 601.064 974.533 598.216C972.059 595.368 970.822 591.526 970.822 586.692V581.565C970.822 578.506 971.368 575.787 972.458 573.411C973.565 571.035 975.135 569.204 977.17 567.918C979.221 566.616 981.564 565.965 984.201 565.965C986.854 565.965 989.198 566.616 991.232 567.918C993.283 569.204 994.862 571.043 995.969 573.436C997.076 575.812 997.629 578.522 997.629 581.565V586.888ZM996.311 581.517C996.311 577.22 995.22 573.777 993.039 571.189C990.858 568.585 987.912 567.283 984.201 567.283C980.539 567.283 977.618 568.577 975.437 571.165C973.256 573.737 972.165 577.244 972.165 581.688V586.888C972.165 589.72 972.653 592.226 973.63 594.407C974.623 596.572 976.031 598.24 977.854 599.412C979.676 600.584 981.809 601.17 984.25 601.17C987.961 601.17 990.899 599.876 993.063 597.288C995.228 594.7 996.311 591.168 996.311 586.692V581.517ZM1008.05 602H1006.74V566.453H1008.05V602ZM1042.97 591.111C1042.62 594.773 1041.36 597.589 1039.18 599.559C1037 601.512 1034.04 602.488 1030.29 602.488C1027.77 602.488 1025.53 601.854 1023.58 600.584C1021.64 599.298 1020.14 597.483 1019.06 595.14C1017.99 592.78 1017.44 590.086 1017.43 587.059V581.565C1017.43 578.538 1017.96 575.836 1019.02 573.46C1020.07 571.067 1021.58 569.22 1023.53 567.918C1025.5 566.616 1027.76 565.965 1030.29 565.965C1034.01 565.965 1036.96 566.941 1039.16 568.895C1041.35 570.848 1042.62 573.647 1042.97 577.293H1041.65C1041.27 574.021 1040.13 571.539 1038.23 569.847C1036.33 568.138 1033.68 567.283 1030.29 567.283C1026.84 567.283 1024.05 568.585 1021.92 571.189C1019.81 573.794 1018.75 577.285 1018.75 581.663V586.888C1018.75 589.687 1019.22 592.169 1020.16 594.334C1021.11 596.482 1022.46 598.159 1024.22 599.363C1025.99 600.568 1028.02 601.17 1030.29 601.17C1033.7 601.17 1036.35 600.332 1038.25 598.655C1040.17 596.979 1041.31 594.464 1041.65 591.111H1042.97ZM1070.36 584.373H1052.54V600.682H1072.85V602H1051.22V566.453H1072.85V567.771H1052.54V583.055H1070.36V584.373ZM1098.7 599.803L1100.31 593.943L1108.71 566.453H1110.18L1118.53 593.943L1120.11 599.803L1121.77 593.943L1129.1 566.453H1130.54L1120.97 602H1119.48L1110.67 572.361L1109.42 568.602L1108.22 572.361L1099.34 602H1097.85L1088.25 566.453H1089.72L1097.09 593.943L1098.7 599.803ZM1139.25 602H1137.94V566.453H1139.25V602ZM1172.92 567.771H1159.98V602H1158.66V567.771H1145.72V566.453H1172.92V567.771ZM1204.49 602H1203.17V584.373H1180.47V602H1179.15V566.453H1180.47V583.055H1203.17V566.453H1204.49V602ZM1250.14 566.453V590.525C1250.14 594.285 1249.05 597.223 1246.87 599.339C1244.69 601.438 1241.74 602.488 1238.01 602.488C1234.28 602.488 1231.33 601.438 1229.15 599.339C1226.97 597.223 1225.87 594.318 1225.85 590.623V566.453H1227.17V590.477C1227.17 593.764 1228.15 596.368 1230.12 598.289C1232.11 600.21 1234.74 601.17 1238.01 601.17C1241.28 601.17 1243.9 600.21 1245.87 598.289C1247.84 596.368 1248.83 593.756 1248.83 590.452V566.453H1250.14ZM1280.86 593.479C1280.86 591.966 1280.5 590.688 1279.78 589.646C1279.08 588.589 1277.97 587.661 1276.44 586.863C1274.92 586.049 1272.63 585.219 1269.55 584.373C1266.48 583.527 1264.17 582.672 1262.62 581.81C1261.09 580.947 1259.97 579.946 1259.25 578.807C1258.53 577.667 1258.18 576.284 1258.18 574.656C1258.18 572.068 1259.27 569.977 1261.45 568.382C1263.63 566.771 1266.47 565.965 1269.97 565.965C1272.25 565.965 1274.29 566.412 1276.1 567.308C1277.92 568.187 1279.33 569.432 1280.32 571.043C1281.31 572.638 1281.81 574.445 1281.81 576.463H1280.49C1280.49 573.81 1279.51 571.621 1277.56 569.896C1275.61 568.154 1273.08 567.283 1269.97 567.283C1266.84 567.283 1264.31 567.983 1262.38 569.383C1260.45 570.766 1259.49 572.508 1259.49 574.607C1259.49 576.74 1260.33 578.457 1262.01 579.759C1263.69 581.061 1266.45 582.216 1270.31 583.226C1274.17 584.218 1276.99 585.374 1278.78 586.692C1281.06 588.369 1282.2 590.615 1282.2 593.431C1282.2 595.221 1281.69 596.808 1280.69 598.191C1279.68 599.559 1278.24 600.617 1276.39 601.365C1274.53 602.114 1272.45 602.488 1270.14 602.488C1267.57 602.488 1265.26 602.065 1263.21 601.219C1261.15 600.356 1259.61 599.135 1258.57 597.557C1257.54 595.978 1257.03 594.114 1257.03 591.966H1258.35C1258.35 594.879 1259.44 597.142 1261.62 598.753C1263.8 600.364 1266.64 601.17 1270.14 601.17C1273.25 601.17 1275.81 600.462 1277.83 599.046C1279.85 597.614 1280.86 595.758 1280.86 593.479ZM1301.63 592.21H1300.31V566.453H1301.63V592.21ZM1299.83 600.804C1299.83 600.429 1299.96 600.112 1300.22 599.852C1300.48 599.575 1300.79 599.437 1301.17 599.437C1301.54 599.437 1301.86 599.575 1302.12 599.852C1302.4 600.112 1302.54 600.429 1302.54 600.804C1302.54 601.178 1302.4 601.495 1302.12 601.756C1301.86 602.016 1301.54 602.146 1301.17 602.146C1300.79 602.146 1300.48 602.016 1300.22 601.756C1299.96 601.495 1299.83 601.178 1299.83 600.804Z" fill="white"/>
</g>
<defs>
<filter id="filter0_i" x="921.616" y="360.837" width="230.715" height="221.041" filterUnits="userSpaceOnUse" color-interpolation-filters="sRGB">
<feFlood flood-opacity="0" result="BackgroundImageFix"/>
<feBlend mode="normal" in="SourceGraphic" in2="BackgroundImageFix" result="shape"/>
<feColorMatrix in="SourceAlpha" type="matrix" values="0 0 0 0 0 0 0 0 0 0 0 0 0 0 0 0 0 0 127 0" result="hardAlpha"/>
<feOffset dy="4"/>
<feGaussianBlur stdDeviation="2"/>
<feComposite in2="hardAlpha" operator="arithmetic" k2="-1" k3="1"/>
<feColorMatrix type="matrix" values="0 0 0 0 0 0 0 0 0 0 0 0 0 0 0 0 0 0 0.25 0"/>
<feBlend mode="normal" in2="shape" result="effect1_innerShadow"/>
</filter>
<filter id="filter1_i" x="753.596" y="473.709" width="282.995" height="280.011" filterUnits="userSpaceOnUse" color-interpolation-filters="sRGB">
<feFlood flood-opacity="0" result="BackgroundImageFix"/>
<feBlend mode="normal" in="SourceGraphic" in2="BackgroundImageFix" result="shape"/>
<feColorMatrix in="SourceAlpha" type="matrix" values="0 0 0 0 0 0 0 0 0 0 0 0 0 0 0 0 0 0 127 0" result="hardAlpha"/>
<feOffset dy="4"/>
<feGaussianBlur stdDeviation="2"/>
<feComposite in2="hardAlpha" operator="arithmetic" k2="-1" k3="1"/>
<feColorMatrix type="matrix" values="0 0 0 0 0 0 0 0 0 0 0 0 0 0 0 0 0 0 0.25 0"/>
<feBlend mode="normal" in2="shape" result="effect1_innerShadow"/>
</filter>
<linearGradient id="paint0_linear" x1="720" y1="960.714" x2="1613.88" y2="160.307" gradientUnits="userSpaceOnUse">
<stop stop-color="#198DF9" stop-opacity="0.61"/>
<stop offset="0.25868" stop-color="#1887D7" stop-opacity="0.86"/>
<stop offset="0.498264" stop-color="#001AFF" stop-opacity="0.59"/>
<stop offset="1" stop-color="#27C9BF" stop-opacity="0.78"/>
</linearGradient>
<clipPath id="clip0">
<rect width="1440" height="1024" fill="white"/>
</clipPath>
</defs>
</svg>
