<svg width="1484" height="301" viewBox="0 0 1484 301" fill="none" xmlns="http://www.w3.org/2000/svg">
<rect width="1484" height="301" fill="#E5E5E5"/>
<g clip-path="url(#clip0)">
<rect width="1484" height="301" fill="white"/>
<path d="M1063.93 33.6405C1052.66 -23.8225 1146.43 -65.3961 1194.73 -79L1617 -19.6869L1555.55 369.385C1425.5 376.641 1157.41 386.798 1125.38 369.385C1085.36 347.619 1063.93 251.847 1078.03 197.432C1092.12 143.016 1149.63 174.033 1165.41 133.221C1181.2 92.4094 1078.03 105.469 1063.93 33.6405Z" fill="#54DD62"/>
<path d="M1033.93 32.6405C1022.66 -24.8225 1116.43 -66.3961 1164.73 -80L1587 -20.6869L1525.55 368.385C1395.5 375.641 1127.41 385.798 1095.38 368.385C1055.36 346.619 1033.93 250.847 1048.03 196.432C1062.12 142.016 1119.63 173.033 1135.41 132.221C1151.2 91.4094 1048.03 104.469 1033.93 32.6405Z" fill="#54DD62" fill-opacity="0.62"/>
<path d="M433.521 -36.8822C425.976 -104.813 351.778 -125.746 315.623 -127.721L2.35103 -158C11.3337 -124.649 20.8105 -48.4673 -13.1441 -10.5522C-47.0988 27.363 -103.196 19.2884 -127 10.5118V354.118H366.151C393.773 326.91 445.917 266.176 433.521 240.899C418.026 209.303 397.141 223.785 366.151 202.721C335.16 181.657 315.623 152.035 335.16 104.641C354.698 57.2475 442.953 48.032 433.521 -36.8822Z" fill="#FBE739"/>
<path d="M463.521 -36.8822C455.976 -104.813 381.778 -125.746 345.623 -127.721L32.351 -158C41.3337 -124.649 50.8105 -48.4673 16.8559 -10.5522C-17.0988 27.363 -73.1958 19.2884 -97 10.5118V354.118H396.151C423.773 326.91 475.917 266.176 463.521 240.899C448.026 209.303 427.141 223.785 396.151 202.721C365.16 181.657 345.623 152.035 365.16 104.641C384.698 57.2475 472.953 48.032 463.521 -36.8822Z" fill="#FBE739" fill-opacity="0.31"/>
<ellipse cx="347" cy="301.5" rx="115" ry="99.5" fill="#DD06AE" fill-opacity="0.88"/>
<path d="M394.288 239.053C393.2 230.289 387.778 221.653 379.435 218.801C382.725 227.822 382.725 237.718 379.433 246.739C378.151 250.214 376.364 253.944 377.57 257.446C378.32 259.625 380.156 261.291 382.208 262.334C384.259 263.376 386.537 263.873 388.785 264.36L389.228 264.726C392.798 256.651 395.376 247.818 394.288 239.053Z" fill="#F0F0F0"/>
<path d="M379.352 218.966C384.211 224.42 387.231 231.27 387.983 238.541C388.173 240.104 388.115 241.687 387.813 243.231C387.47 244.726 386.734 246.102 385.68 247.216C384.719 248.274 383.613 249.245 382.926 250.518C382.583 251.176 382.383 251.898 382.339 252.638C382.295 253.378 382.407 254.119 382.669 254.813C383.276 256.557 384.473 257.98 385.692 259.33C387.045 260.829 388.474 262.364 389.049 264.351C389.119 264.592 389.488 264.47 389.418 264.229C388.418 260.772 385.067 258.808 383.47 255.694C382.724 254.241 382.411 252.554 383.11 251.02C383.721 249.679 384.861 248.676 385.843 247.614C386.886 246.542 387.652 245.231 388.073 243.795C388.453 242.271 388.571 240.693 388.423 239.129C388.144 235.603 387.314 232.143 385.963 228.875C384.441 225.137 382.292 221.687 379.609 218.674C379.443 218.488 379.187 218.781 379.352 218.966V218.966Z" fill="white"/>
<path d="M387.878 236.186C389.079 235.894 390.137 235.184 390.863 234.182C391.59 233.181 391.937 231.954 391.843 230.719C391.824 230.47 391.435 230.489 391.455 230.739C391.545 231.888 391.221 233.031 390.543 233.962C389.864 234.893 388.876 235.551 387.757 235.816C387.513 235.874 387.637 236.243 387.878 236.186V236.186Z" fill="white"/>
<path d="M386.238 246.744C384.07 245.447 382.469 243.378 381.755 240.951C381.684 240.71 381.315 240.833 381.386 241.073C382.134 243.597 383.804 245.746 386.063 247.091C386.279 247.219 386.452 246.871 386.238 246.744V246.744Z" fill="white"/>
<path d="M384.081 225.505C383.639 225.715 383.153 225.812 382.666 225.787C382.178 225.763 381.704 225.617 381.286 225.363C381.073 225.232 380.899 225.581 381.112 225.711C381.574 225.989 382.098 226.149 382.637 226.178C383.175 226.206 383.713 226.102 384.202 225.875C384.25 225.857 384.29 225.822 384.313 225.776C384.336 225.731 384.34 225.678 384.326 225.629C384.31 225.58 384.275 225.54 384.229 225.517C384.183 225.493 384.129 225.489 384.081 225.505V225.505Z" fill="white"/>
<path d="M354.003 234.455C354.134 234.541 354.265 234.626 354.396 234.715C356.153 235.872 357.814 237.171 359.361 238.598C359.482 238.706 359.604 238.818 359.722 238.93C363.413 242.408 366.427 246.542 368.612 251.122C369.48 252.945 370.208 254.832 370.79 256.766C371.593 259.437 372.252 262.397 373.843 264.582C374.006 264.812 374.183 265.031 374.374 265.239H388.747C388.78 265.222 388.813 265.209 388.845 265.193L389.419 265.219C389.396 265.117 389.37 265.012 389.347 264.91C389.334 264.851 389.318 264.792 389.305 264.733C389.295 264.693 389.285 264.654 389.278 264.618C389.275 264.605 389.272 264.592 389.269 264.582C389.262 264.546 389.252 264.513 389.245 264.48C389.101 263.892 388.953 263.304 388.8 262.716C388.8 262.712 388.8 262.712 388.796 262.709C387.619 258.231 386.058 253.812 383.877 249.772C383.812 249.65 383.746 249.525 383.674 249.404C382.681 247.588 381.541 245.856 380.267 244.226C379.566 243.336 378.821 242.481 378.033 241.667C375.996 239.565 373.641 237.798 371.055 236.43C365.9 233.703 359.932 232.658 354.422 234.324C354.281 234.367 354.144 234.409 354.003 234.455Z" fill="#F0F0F0"/>
<path d="M354.035 234.638C361.192 236.062 367.72 239.709 372.69 245.062C373.781 246.195 374.686 247.493 375.373 248.909C375.998 250.31 376.236 251.852 376.065 253.377C375.933 254.801 375.634 256.243 375.85 257.675C375.972 258.407 376.246 259.104 376.656 259.721C377.065 260.339 377.6 260.863 378.226 261.259C379.759 262.285 381.57 262.699 383.354 263.042C385.335 263.423 387.399 263.787 389.053 265.027C389.253 265.177 389.474 264.857 389.274 264.707C386.397 262.55 382.542 263.002 379.395 261.479C377.926 260.769 376.662 259.611 376.299 257.964C375.981 256.525 376.288 255.038 376.434 253.596C376.623 252.112 376.447 250.603 375.92 249.202C375.307 247.756 374.453 246.425 373.395 245.266C371.053 242.619 368.311 240.356 365.268 238.562C361.806 236.495 358.017 235.037 354.065 234.25C353.82 234.201 353.792 234.59 354.035 234.638V234.638Z" fill="white"/>
<path d="M371.191 243.244C371.974 242.287 372.392 241.082 372.37 239.844C372.348 238.606 371.888 237.417 371.072 236.488C370.906 236.3 370.607 236.55 370.773 236.737C371.535 237.601 371.964 238.709 371.982 239.862C372 241.014 371.606 242.135 370.872 243.022C370.712 243.215 371.033 243.436 371.191 243.244H371.191Z" fill="white"/>
<path d="M376.226 252.663C373.715 252.936 371.194 252.25 369.166 250.742C368.965 250.593 368.744 250.913 368.944 251.062C371.058 252.627 373.683 253.335 376.296 253.046C376.545 253.019 376.474 252.636 376.226 252.663V252.663Z" fill="white"/>
<path d="M361.74 237.007C361.514 237.441 361.184 237.811 360.78 238.086C360.376 238.36 359.91 238.53 359.424 238.579C359.174 238.603 359.246 238.986 359.493 238.962C360.03 238.905 360.544 238.717 360.991 238.415C361.439 238.113 361.805 237.706 362.059 237.229C362.087 237.186 362.098 237.134 362.088 237.084C362.079 237.033 362.051 236.988 362.01 236.958C361.968 236.929 361.916 236.918 361.865 236.927C361.815 236.936 361.77 236.965 361.74 237.007Z" fill="white"/>
<path d="M251.783 82.819H250.471V46.8297C250.471 44.0943 249.934 41.3857 248.889 38.8585C247.844 36.3313 246.312 34.0351 244.382 32.1009C242.451 30.1667 240.159 28.6324 237.636 27.5856C235.114 26.5388 232.41 26 229.68 26H153.571C148.057 26 142.768 28.1945 138.869 32.1008C134.97 36.0071 132.78 41.3052 132.78 46.8296V244.27C132.78 249.794 134.97 255.092 138.869 258.999C142.768 262.905 148.057 265.1 153.571 265.1H229.68C235.194 265.1 240.482 262.905 244.382 258.999C248.281 255.092 250.471 249.794 250.471 244.27V108.437H251.783L251.783 82.819Z" fill="#3F3D56"/>
<path d="M230.519 31.4192H220.584C221.041 32.5413 221.215 33.7588 221.092 34.9644C220.968 36.17 220.551 37.3267 219.876 38.3325C219.201 39.3384 218.29 40.1626 217.222 40.7325C216.155 41.3024 214.964 41.6005 213.754 41.6006H170.152C168.943 41.6005 167.752 41.3024 166.684 40.7325C165.616 40.1626 164.705 39.3384 164.03 38.3325C163.356 37.3267 162.938 36.17 162.815 34.9644C162.691 33.7588 162.866 32.5413 163.323 31.4192H154.044C152.004 31.4192 149.985 31.8215 148.102 32.6032C146.218 33.385 144.506 34.5308 143.064 35.9752C141.623 37.4196 140.479 39.1345 139.699 41.0217C138.918 42.909 138.517 44.9317 138.517 46.9745V244.125C138.517 246.168 138.918 248.191 139.699 250.078C140.479 251.965 141.623 253.68 143.064 255.124C144.506 256.569 146.218 257.715 148.102 258.496C149.985 259.278 152.004 259.68 154.043 259.68H230.519C232.558 259.68 234.577 259.278 236.461 258.496C238.344 257.715 240.056 256.569 241.498 255.124C242.94 253.68 244.083 251.965 244.864 250.078C245.644 248.191 246.046 246.168 246.046 244.125V244.125V46.9745C246.046 44.9317 245.644 42.909 244.864 41.0217C244.083 39.1345 242.94 37.4197 241.498 35.9752C240.056 34.5308 238.344 33.385 236.461 32.6032C234.577 31.8215 232.558 31.4192 230.519 31.4192V31.4192Z" fill="white"/>
<path d="M202.913 84.3818H175.807V86.9037H202.913V84.3818Z" fill="#F9C526"/>
<path d="M223.051 93.1058H175.807V95.6277H223.051V93.1058Z" fill="#E6E6E6"/>
<path d="M223.005 101.83H175.807V104.352H223.005V101.83Z" fill="#E6E6E6"/>
<path d="M170.189 84.4193H150.051V104.594H170.189V84.4193Z" fill="#F9C526"/>
<path d="M202.913 137.341H175.807V139.863H202.913V137.341Z" fill="#F9C526"/>
<path d="M223.051 146.065H175.807V148.587H223.051V146.065Z" fill="#E6E6E6"/>
<path d="M223.005 154.789H175.807V157.311H223.005V154.789Z" fill="#E6E6E6"/>
<path d="M170.189 137.379H150.051V157.554H170.189V137.379Z" fill="#F9C526"/>
<path d="M202.913 190.301H175.807V192.823H202.913V190.301Z" fill="#F9C526"/>
<path d="M223.051 199.025H175.807V201.547H223.051V199.025Z" fill="#E6E6E6"/>
<path d="M223.005 207.749H175.807V210.271H223.005V207.749Z" fill="#E6E6E6"/>
<path d="M170.189 190.338H150.051V210.513H170.189V190.338Z" fill="#F9C526"/>
<path d="M338.925 261.199L334.911 261.42L332.148 246.013L338.072 245.687L338.925 261.199Z" fill="#FFB6B6"/>
<path d="M340.163 265.041L327.219 265.755L327.21 265.591C327.137 264.252 327.597 262.939 328.49 261.94C329.382 260.942 330.635 260.339 331.971 260.265L331.971 260.265L339.877 259.829L340.163 265.041Z" fill="#2F2E41"/>
<path d="M254.762 199.234L254.243 195.24L269.373 191.332L270.14 197.226L254.762 199.234Z" fill="#FFB6B6"/>
<path d="M251.031 200.757L249.355 187.879L249.518 187.858C250.845 187.685 252.186 188.047 253.247 188.864C254.308 189.681 255.001 190.888 255.174 192.217L255.174 192.217L256.197 200.083L251.031 200.757Z" fill="#2F2E41"/>
<path d="M305.511 173.992C305.686 174.039 305.858 174.1 306.023 174.174L319.781 165.485L319.634 161.53L325.564 160.527L326.503 167.504C326.579 168.068 326.471 168.641 326.194 169.138C325.917 169.634 325.487 170.027 324.968 170.258L308.057 177.778C307.966 178.473 307.666 179.123 307.197 179.642C306.728 180.162 306.112 180.526 305.432 180.686C304.752 180.847 304.038 180.796 303.388 180.54C302.737 180.285 302.179 179.837 301.788 179.256C301.398 178.675 301.193 177.989 301.201 177.288C301.21 176.588 301.431 175.907 301.835 175.336C302.239 174.764 302.807 174.329 303.464 174.089C304.12 173.849 304.834 173.815 305.511 173.992Z" fill="#FFB6B6"/>
<path d="M319.153 164.934C318.989 164.8 318.856 164.631 318.763 164.44C318.67 164.249 318.619 164.041 318.614 163.828L318.43 156.41C318.245 155.34 318.49 154.239 319.114 153.349C319.737 152.46 320.687 151.854 321.755 151.665C322.823 151.475 323.923 151.718 324.812 152.34C325.702 152.962 326.31 153.911 326.502 154.981L328.833 162.049C328.9 162.251 328.922 162.465 328.899 162.676C328.875 162.887 328.807 163.091 328.698 163.273C328.589 163.455 328.442 163.612 328.267 163.732C328.092 163.852 327.894 163.933 327.685 163.969L320.342 165.248C320.133 165.284 319.918 165.275 319.713 165.221C319.508 165.167 319.317 165.069 319.153 164.934V164.934Z" fill="#E4E4E4"/>
<path d="M330.592 144.434C336.107 144.434 340.577 139.955 340.577 134.43C340.577 128.905 336.107 124.426 330.592 124.426C325.077 124.426 320.607 128.905 320.607 134.43C320.607 139.955 325.077 144.434 330.592 144.434Z" fill="#2F2E41"/>
<path d="M334.085 128.041C336.367 128.041 338.217 126.187 338.217 123.901C338.217 121.615 336.367 119.762 334.085 119.762C331.803 119.762 329.953 121.615 329.953 123.901C329.953 126.187 331.803 128.041 334.085 128.041Z" fill="#2F2E41"/>
<path d="M339.594 121.659C339.594 120.636 339.216 119.649 338.532 118.889C337.849 118.128 336.908 117.649 335.893 117.542C336.036 117.527 336.179 117.52 336.323 117.52C337.419 117.52 338.47 117.956 339.245 118.732C340.02 119.508 340.455 120.561 340.455 121.659C340.455 122.757 340.02 123.81 339.245 124.586C338.47 125.362 337.419 125.799 336.323 125.799C336.179 125.799 336.036 125.791 335.893 125.776C336.908 125.67 337.849 125.19 338.532 124.43C339.216 123.669 339.594 122.682 339.594 121.659V121.659Z" fill="#2F2E41"/>
<path d="M330.588 145.307C334.075 145.307 336.902 142.475 336.902 138.981C336.902 135.488 334.075 132.656 330.588 132.656C327.1 132.656 324.274 135.488 324.274 138.981C324.274 142.475 327.1 145.307 330.588 145.307Z" fill="#FFB8B8"/>
<path d="M341.098 182.631C341.098 182.631 340.797 190.161 339.594 194.077C338.392 197.993 340.496 253.417 339.444 254.773C338.392 256.128 333.431 255.676 333.431 255.676L328.829 226.8C328.829 226.8 328.019 196.186 316.894 195.433C305.769 194.68 262.323 198.897 262.323 198.897L261.421 192.722L284.723 187.601C284.723 187.601 306.07 180.221 317.796 182.179C329.522 184.137 341.098 182.631 341.098 182.631Z" fill="#2F2E41"/>
<path d="M339.745 146.183C340.947 145.28 343.954 146.485 343.954 146.485L347.261 156.274C347.261 156.274 345.608 164.708 344.104 169.377C342.601 174.046 339.705 194.686 340.306 195.59C340.908 196.493 330.574 189.107 324.411 186.848C318.247 184.589 316.894 182.028 316.894 182.028C316.894 182.028 323.659 172.389 321.404 167.871C319.149 163.353 320.953 158.232 320.953 158.232L320.051 153.111L325.162 150.25C325.162 150.25 338.542 147.087 339.745 146.183Z" fill="#E4E4E4"/>
<path d="M329.43 136.449C333.234 136.449 336.317 134.595 336.317 132.309C336.317 130.023 333.234 128.17 329.43 128.17C325.627 128.17 322.544 130.023 322.544 132.309C322.544 134.595 325.627 136.449 329.43 136.449Z" fill="#2F2E41"/>
<path d="M369.003 148.818C368.928 148.983 368.867 149.155 368.819 149.33L353.392 154.487L350.431 151.866L345.899 155.826L350.691 160.975C351.078 161.392 351.589 161.67 352.148 161.771C352.707 161.871 353.283 161.786 353.79 161.53L370.314 153.19C370.908 153.559 371.6 153.739 372.298 153.705C372.996 153.671 373.667 153.424 374.222 152.999C374.777 152.573 375.19 151.988 375.405 151.322C375.62 150.655 375.628 149.939 375.427 149.268C375.226 148.598 374.826 148.004 374.28 147.567C373.734 147.129 373.068 146.869 372.37 146.82C371.673 146.771 370.977 146.936 370.376 147.293C369.774 147.65 369.296 148.181 369.003 148.818V148.818Z" fill="#FFB6B6"/>
<path d="M352.853 154.77L347.213 159.651C347.052 159.79 346.864 159.892 346.66 159.952C346.457 160.011 346.243 160.025 346.033 159.994C345.823 159.963 345.622 159.888 345.444 159.772C345.267 159.656 345.116 159.503 345.002 159.324L341.022 153.038C340.317 152.211 339.968 151.139 340.052 150.055C340.136 148.971 340.645 147.965 341.468 147.256C342.291 146.548 343.361 146.196 344.444 146.277C345.526 146.358 346.531 146.866 347.24 147.689L352.852 152.531C353.013 152.67 353.142 152.842 353.23 153.035C353.318 153.228 353.364 153.438 353.364 153.65C353.364 153.863 353.319 154.073 353.231 154.266C353.142 154.459 353.014 154.631 352.853 154.77L352.853 154.77Z" fill="#E4E4E4"/>
<g clip-path="url(#clip1)">
<path d="M1267 150.008L1340.26 135.318L1341.85 175.626L1336.12 221.287L1340.26 275.741H1261.25L1263.31 212.561C1263.31 212.561 1245.68 187.616 1256.07 162.473L1267 150.008Z" fill="#F9C526"/>
<path d="M1430.36 54.3897C1430.73 56.0815 1430.72 57.8335 1430.34 59.5223C1429.96 61.211 1429.21 62.7954 1428.15 64.164C1427.1 65.5325 1425.75 66.6518 1424.22 67.4431C1422.68 68.2344 1420.99 68.6784 1419.27 68.7439L1349.01 150.442L1332.68 130.563L1406.87 56.5094C1406.95 53.5951 1408.1 50.8123 1410.09 48.6886C1412.08 46.5648 1414.78 45.2475 1417.68 44.9864C1420.57 44.7253 1423.46 45.5386 1425.8 47.272C1428.14 49.0054 1429.76 51.5385 1430.36 54.3914L1430.36 54.3897Z" fill="#FEB8B8"/>
<path d="M1364.31 141.525C1364.32 142.288 1364.18 143.046 1363.87 143.746C1363.57 144.447 1363.12 145.073 1362.56 145.584L1342.8 163.417C1341.58 164.914 1340.07 166.154 1338.37 167.067C1336.66 167.979 1334.8 168.546 1332.87 168.735C1330.95 168.924 1329.01 168.732 1327.16 168.168C1325.31 167.605 1323.6 166.683 1322.1 165.453C1320.61 164.224 1319.37 162.712 1318.46 161.003C1317.55 159.294 1316.99 157.423 1316.8 155.495C1316.61 153.567 1316.8 151.621 1317.36 149.768C1317.93 147.914 1318.85 146.19 1320.07 144.693L1333.86 121.808C1334.26 121.155 1334.79 120.595 1335.41 120.165C1336.04 119.736 1336.76 119.447 1337.51 119.319C1338.26 119.191 1339.03 119.227 1339.76 119.424C1340.5 119.621 1341.18 119.975 1341.77 120.461L1362.39 137.548C1362.97 138.034 1363.45 138.641 1363.78 139.328C1364.11 140.015 1364.29 140.766 1364.31 141.529L1364.31 141.525Z" fill="#F9C526"/>
<path d="M1152.13 246.38C1152.02 244.652 1152.29 242.921 1152.92 241.308C1153.55 239.696 1154.52 238.242 1155.77 237.048C1157.02 235.854 1158.52 234.949 1160.16 234.398C1161.79 233.847 1163.53 233.662 1165.25 233.858L1246.93 163.658L1260.1 185.77L1175.67 247.82C1175.15 250.689 1173.6 253.268 1171.32 255.068C1169.03 256.868 1166.16 257.764 1163.26 257.586C1160.36 257.409 1157.62 256.17 1155.57 254.104C1153.52 252.038 1152.3 249.29 1152.13 246.379V246.38Z" fill="#FEB8B8"/>
<path d="M1301.05 115.147C1317.52 115.147 1330.87 101.756 1330.87 85.238C1330.87 68.7196 1317.52 55.3288 1301.05 55.3288C1284.58 55.3288 1271.22 68.7196 1271.22 85.238C1271.22 101.756 1284.58 115.147 1301.05 115.147Z" fill="#3F3D56"/>
<path d="M1230.47 170.17C1230.57 169.413 1230.83 168.686 1231.23 168.039C1231.63 167.392 1232.17 166.84 1232.81 166.42L1255.01 151.761C1256.44 150.456 1258.11 149.446 1259.92 148.789C1261.74 148.131 1263.67 147.84 1265.6 147.93C1267.53 148.021 1269.42 148.492 1271.17 149.316C1272.92 150.141 1274.49 151.303 1275.79 152.736C1277.09 154.169 1278.1 155.845 1278.75 157.669C1279.41 159.492 1279.7 161.426 1279.6 163.362C1279.51 165.298 1279.04 167.196 1278.22 168.949C1277.39 170.702 1276.23 172.275 1274.81 173.578C1274.76 173.616 1274.72 173.654 1274.68 173.692L1257.62 194.247C1257.13 194.833 1256.53 195.308 1255.84 195.638C1255.15 195.968 1254.4 196.146 1253.64 196.159C1252.88 196.173 1252.13 196.022 1251.43 195.716C1250.73 195.411 1250.11 194.958 1249.6 194.389L1231.77 174.395C1231.27 173.827 1230.89 173.155 1230.66 172.426C1230.44 171.696 1230.37 170.927 1230.47 170.17H1230.47Z" fill="#F9C526"/>
<path d="M1298.23 131.2C1313.14 131.2 1325.23 119.076 1325.23 104.121C1325.23 89.1652 1313.14 77.0413 1298.23 77.0413C1283.31 77.0413 1271.22 89.1652 1271.22 104.121C1271.22 119.076 1283.31 131.2 1298.23 131.2Z" fill="#FEB8B8"/>
<path d="M1316.61 32C1314.36 35.228 1311.02 37.531 1307.21 38.485C1300.63 40.2517 1307.15 50.1641 1307.15 50.1641C1307.15 50.1641 1304.78 46.5595 1308.2 42.7421C1311.62 38.9246 1317.13 36.315 1316.61 32Z" fill="#3F3D56"/>
<path d="M1305.99 60.8772C1310.58 60.8772 1314.3 57.1454 1314.3 52.542C1314.3 47.9386 1310.58 44.2068 1305.99 44.2068C1301.4 44.2068 1297.68 47.9386 1297.68 52.542C1297.68 57.1454 1301.4 60.8772 1305.99 60.8772Z" fill="#3F3D56"/>
<path d="M1318.41 59.5287C1311.63 56.9586 1300.35 55.6554 1294.55 56.548L1295.34 50.7187C1300.92 53.6109 1312.15 54.9703 1319.2 53.6995L1318.41 59.5287Z" fill="#F9C526"/>
<path d="M1302.75 60.619C1302.75 60.619 1294.26 74.7839 1274.51 80.0867C1254.77 85.3895 1274.35 115.148 1274.35 115.148C1274.35 115.148 1267.23 104.327 1277.5 92.8666C1287.78 81.4067 1304.31 73.5719 1302.75 60.619Z" fill="#3F3D56"/>
<path d="M1305.97 60.7538C1305.97 60.7538 1314.13 80.2101 1323.08 82.0498C1332.04 83.8895 1331.36 114.632 1317.36 119.243C1317.36 119.243 1327.57 101.219 1318.84 89.1323C1310.11 77.0451 1304.6 67.4899 1305.97 60.7538Z" fill="#3F3D56"/>
</g>
<path d="M565.565 91.1592C565.289 94.984 563.873 97.9951 561.317 100.192C558.778 102.39 555.425 103.488 551.259 103.488C546.701 103.488 543.113 101.958 540.492 98.8984C537.888 95.8223 536.586 91.6068 536.586 86.252V84.0791C536.586 80.6611 537.188 77.6501 538.393 75.0459C539.597 72.4417 541.314 70.4479 543.544 69.0645C545.79 67.6647 548.394 66.9648 551.356 66.9648C555.458 66.9648 558.762 68.0635 561.269 70.2607C563.775 72.458 565.224 75.5423 565.614 79.5137H558.29C558.111 77.2188 557.468 75.5586 556.361 74.5332C555.271 73.4915 553.603 72.9707 551.356 72.9707C548.915 72.9707 547.084 73.8496 545.863 75.6074C544.659 77.349 544.04 80.0589 544.008 83.7373V86.4229C544.008 90.264 544.586 93.0716 545.741 94.8457C546.913 96.6198 548.752 97.5068 551.259 97.5068C553.521 97.5068 555.206 96.9941 556.312 95.9688C557.436 94.9271 558.078 93.3239 558.241 91.1592H565.565ZM568.812 89.5967C568.812 85.4788 569.732 82.1992 571.571 79.7578C573.427 77.3164 575.958 76.0957 579.164 76.0957C581.736 76.0957 583.86 77.056 585.536 78.9766V65.5H592.616V103H586.244L585.902 100.192C584.145 102.39 581.882 103.488 579.115 103.488C576.007 103.488 573.508 102.268 571.62 99.8262C569.748 97.3685 568.812 93.9587 568.812 89.5967ZM575.868 90.1094C575.868 92.5833 576.299 94.4795 577.162 95.7979C578.025 97.1162 579.278 97.7754 580.922 97.7754C583.103 97.7754 584.641 96.8558 585.536 95.0166V84.5918C584.657 82.7526 583.135 81.833 580.971 81.833C577.569 81.833 575.868 84.5918 575.868 90.1094ZM596.986 89.5479C596.986 86.9274 597.491 84.5918 598.5 82.541C599.509 80.4902 600.958 78.9033 602.846 77.7803C604.75 76.6572 606.955 76.0957 609.462 76.0957C613.026 76.0957 615.932 77.1862 618.178 79.3672C620.44 81.5482 621.701 84.5104 621.962 88.2539L622.011 90.0605C622.011 94.1133 620.88 97.3685 618.617 99.8262C616.355 102.268 613.319 103.488 609.511 103.488C605.702 103.488 602.659 102.268 600.38 99.8262C598.118 97.3848 596.986 94.0645 596.986 89.8652V89.5479ZM604.042 90.0605C604.042 92.5671 604.514 94.4876 605.458 95.8223C606.402 97.1406 607.753 97.7998 609.511 97.7998C611.22 97.7998 612.554 97.1488 613.515 95.8467C614.475 94.5283 614.955 92.4287 614.955 89.5479C614.955 87.0902 614.475 85.1859 613.515 83.835C612.554 82.484 611.203 81.8086 609.462 81.8086C607.737 81.8086 606.402 82.484 605.458 83.835C604.514 85.1696 604.042 87.2448 604.042 90.0605ZM654.945 98.5078C653.627 100.087 651.763 101.315 649.354 102.194C646.946 103.057 644.276 103.488 641.347 103.488C638.271 103.488 635.569 102.821 633.241 101.486C630.93 100.135 629.14 98.1823 627.87 95.627C626.617 93.0716 625.974 90.0687 625.941 86.6182V84.2012C625.941 80.653 626.535 77.585 627.724 74.9971C628.928 72.3929 630.653 70.4072 632.899 69.04C635.162 67.6566 637.807 66.9648 640.834 66.9648C645.049 66.9648 648.345 67.974 650.722 69.9922C653.098 71.9941 654.506 74.9157 654.945 78.7568H647.816C647.491 76.7223 646.767 75.2331 645.644 74.2891C644.537 73.3451 643.007 72.873 641.054 72.873C638.563 72.873 636.667 73.8089 635.365 75.6807C634.063 77.5524 633.404 80.3356 633.388 84.0303V86.3008C633.388 90.028 634.096 92.8438 635.512 94.748C636.928 96.6523 639.003 97.6045 641.737 97.6045C644.488 97.6045 646.449 97.0186 647.621 95.8467V89.7188H640.956V84.3232H654.945V98.5078ZM689.027 98.5078C687.709 100.087 685.845 101.315 683.437 102.194C681.028 103.057 678.358 103.488 675.429 103.488C672.353 103.488 669.651 102.821 667.323 101.486C665.012 100.135 663.222 98.1823 661.952 95.627C660.699 93.0716 660.056 90.0687 660.023 86.6182V84.2012C660.023 80.653 660.618 77.585 661.806 74.9971C663.01 72.3929 664.735 70.4072 666.981 69.04C669.244 67.6566 671.889 66.9648 674.916 66.9648C679.132 66.9648 682.427 67.974 684.804 69.9922C687.18 71.9941 688.588 74.9157 689.027 78.7568H681.898C681.573 76.7223 680.849 75.2331 679.726 74.2891C678.619 73.3451 677.089 72.873 675.136 72.873C672.646 72.873 670.749 73.8089 669.447 75.6807C668.145 77.5524 667.486 80.3356 667.47 84.0303V86.3008C667.47 90.028 668.178 92.8438 669.594 94.748C671.01 96.6523 673.085 97.6045 675.819 97.6045C678.57 97.6045 680.531 97.0186 681.703 95.8467V89.7188H675.038V84.3232H689.027V98.5078ZM693.422 89.5479C693.422 86.9274 693.926 84.5918 694.936 82.541C695.945 80.4902 697.393 78.9033 699.281 77.7803C701.186 76.6572 703.391 76.0957 705.897 76.0957C709.462 76.0957 712.367 77.1862 714.613 79.3672C716.876 81.5482 718.137 84.5104 718.397 88.2539L718.446 90.0605C718.446 94.1133 717.315 97.3685 715.053 99.8262C712.79 102.268 709.755 103.488 705.946 103.488C702.138 103.488 699.094 102.268 696.815 99.8262C694.553 97.3848 693.422 94.0645 693.422 89.8652V89.5479ZM700.478 90.0605C700.478 92.5671 700.95 94.4876 701.894 95.8223C702.838 97.1406 704.188 97.7998 705.946 97.7998C707.655 97.7998 708.99 97.1488 709.95 95.8467C710.91 94.5283 711.391 92.4287 711.391 89.5479C711.391 87.0902 710.91 85.1859 709.95 83.835C708.99 82.484 707.639 81.8086 705.897 81.8086C704.172 81.8086 702.838 82.484 701.894 83.835C700.95 85.1696 700.478 87.2448 700.478 90.0605ZM760.183 73.3H750.733V67.4H760.183V73.3ZM744.183 73.3H738.633V78.2H772.233V73.3H766.733V67.4H772.583V62.5H738.333V67.4H744.183V73.3ZM746.033 99.7H771.233V88.3H739.433V93.05H764.733V95.3H739.483V106.95H772.433V102.2H746.033V99.7ZM734.683 80.55V85.75H776.283V80.55H734.683ZM809.979 77.65H813.679V92.2H819.929V61.25H813.679V72.4H809.979V62.05H803.829V88.4H809.979V77.65ZM801.629 81.75C797.479 82.55 793.779 82.8 788.879 82.9V78.55H799.929V64.45H782.479V69.6H793.579V73.75H782.529V88.1H785.729C792.579 88.1 797.029 87.95 802.229 86.9L801.629 81.75ZM807.379 90.25H800.779V91.05C800.779 95.8 796.029 100.8 786.129 102.05L788.679 107.15C795.979 106.1 801.229 103.05 804.079 98.8C806.829 103.05 812.129 106.1 819.429 107.15L822.029 102.05C812.079 100.8 807.379 95.8 807.379 91.05V90.25ZM837.975 96.95H856.825V101.6H837.975V96.95ZM831.525 106.75H863.325V91.75H831.525V106.75ZM842.725 67.75H852.175V74.7H842.725V67.75ZM850.725 83.55V79.95H864.175V74.7H858.725V67.75H864.575V62.5H830.325V67.75H836.175V74.7H830.625V79.95H844.125V83.55H826.675V88.75H868.275V83.55H850.725ZM883.021 91.75C880.521 91.75 879.021 88.3 879.021 81.2C879.021 74.15 880.521 70.7 883.021 70.7C885.571 70.7 887.021 74.15 887.021 81.2C887.021 88.3 885.571 91.75 883.021 91.75ZM896.571 78.2H892.921C892.171 69.6 888.471 64.5 883.021 64.5C876.921 64.5 873.071 70.8 873.071 81.2C873.071 91.65 876.921 97.95 883.021 97.95C888.621 97.95 892.371 92.55 892.971 83.55H896.571V105.25H902.721V62H896.571V78.2ZM905.921 61.2V107.25H912.171V61.2H905.921ZM935.968 64.8H929.318V71.45C929.318 80.2 925.818 89.15 918.018 92.75L922.118 98.05C927.268 95.45 930.718 90.65 932.718 84.75C934.618 90.3 937.968 94.8 943.018 97.25L946.918 92C939.318 88.6 935.968 80.15 935.968 71.45V64.8ZM950.718 61.2V75.65H941.868V80.95H950.718V107.4H957.318V61.2H950.718ZM623.711 157V161.5H632.361V165.15H638.961V130.25H632.361V157H623.711ZM614.861 136.6C617.911 136.6 620.061 137.8 620.061 140.05C620.061 142.3 617.911 143.45 614.861 143.45C611.761 143.45 609.611 142.3 609.611 140.05C609.611 137.8 611.761 136.6 614.861 136.6ZM614.861 148.25C621.561 148.25 626.311 144.95 626.311 140.05C626.311 135.15 621.561 131.8 614.861 131.8C608.111 131.8 603.411 135.15 603.411 140.05C603.411 144.95 608.111 148.25 614.861 148.25ZM612.411 170.25V163.95H618.761V155.25C622.461 154.95 626.161 154.55 629.761 153.95L629.311 149.25C619.611 150.5 608.411 150.6 600.011 150.65L600.861 155.9C604.311 155.9 608.161 155.85 612.211 155.65V161.8H605.811V175.5H639.961V170.25H612.411ZM659.507 161.5C656.407 161.5 654.107 159.4 654.107 155.9C654.107 152.4 656.407 150.25 659.507 150.25C662.607 150.25 664.857 152.4 664.857 155.85C664.857 159.4 662.607 161.5 659.507 161.5ZM659.507 144.9C652.807 144.9 647.807 149.45 647.807 155.85C647.807 162.35 652.807 166.9 659.507 166.9C666.157 166.9 671.107 162.35 671.107 155.85C671.107 149.45 666.157 144.9 659.507 144.9ZM662.757 131.05H656.157V137.05H645.957V142.3H672.757V137.05H662.757V131.05ZM688.957 148.25H682.357V130.25H675.757V176.3H682.357V153.7H688.957V148.25ZM729.303 142.7H703.953V131.9H697.353V147.95H729.303V142.7ZM703.553 161.6H696.903V175.3H729.553V170.05H703.553V161.6ZM692.203 152.65V157.95H733.903V152.65H692.203ZM752.75 134.95V140.3H767.8C766.6 150.5 760.9 157.8 750.2 163.3L753.9 168.35C769.2 160.6 774.45 148.75 774.45 134.95H752.75ZM793.15 147.8H786.7V130.2H780.1V176.2H786.7V153.25H793.15V147.8ZM803.746 164.7H828.546V176.1H835.146V159.5H803.746V164.7ZM828.546 130.25V137.65H820.696C820.946 136.2 821.096 134.7 821.096 133.15H799.746V138.4H813.996C812.996 144.65 807.296 149.8 797.096 152.4L799.646 157.55C809.346 154.95 816.046 150.05 819.146 142.95H828.546V147.45H818.396V152.75H828.546V157.55H835.146V130.3L828.546 130.25ZM852.992 160.75C850.492 160.75 848.992 157.3 848.992 150.2C848.992 143.15 850.492 139.7 852.992 139.7C855.542 139.7 856.992 143.15 856.992 150.2C856.992 157.3 855.542 160.75 852.992 160.75ZM866.542 147.2H862.892C862.142 138.6 858.442 133.5 852.992 133.5C846.892 133.5 843.042 139.8 843.042 150.2C843.042 160.65 846.892 166.95 852.992 166.95C858.592 166.95 862.342 161.55 862.942 152.55H866.542V174.25H872.692V131H866.542V147.2ZM875.892 130.2V176.25H882.142V130.2H875.892ZM516.146 211.15V216.5H523.346V232.85H529.946V199.25H523.346V211.15H516.146ZM519.196 221.75C511.946 219.3 508.796 213.65 508.796 208.2V207.6H517.746V202.35H492.996V207.6H502.046V208.25C502.046 214.05 498.746 220.1 491.196 222.55L494.546 227.8C499.896 226 503.496 222.35 505.546 217.8C507.546 221.95 510.946 225.25 515.996 226.9L519.196 221.75ZM506.196 239.25V230.05H499.596V244.5H530.996V239.25H506.196ZM554.342 209.1H563.492V203.65H538.192V209.1H547.742V211.65C547.742 219.25 543.992 227.9 536.442 231.4L540.142 236.65C545.392 234.15 549.092 229.1 551.142 223.1C553.192 228.55 556.792 233.15 561.892 235.5L565.542 230.3C557.992 226.8 554.342 218.65 554.342 211.65V209.1ZM580.192 216.8H573.492V199.25H566.892V245.3H573.492V222.25H580.192V216.8ZM585.988 204V209.25H601.338C600.388 219.45 595.288 226.65 583.538 232.3L586.988 237.5C603.338 229.6 608.088 218.1 608.088 204H585.988ZM615.138 199.2V245.25H621.788V199.2H615.138ZM631.984 204V209.25H647.334C646.384 219.45 641.284 226.65 629.534 232.3L632.984 237.5C649.334 229.6 654.084 218.1 654.084 204H631.984ZM661.134 199.2V245.25H667.784V199.2H661.134ZM705.53 206.75H680.63V217.75H712.83V213.3H687.13V210.9H712.03V200.05H680.53V204.5H705.53V206.75ZM686.73 237.95H712.18V227H680.13V231.45H705.63V233.8H680.18V244.9H713.43V240.45H686.73V237.95ZM675.43 219.95V224.7H717.13V219.95H675.43ZM744.778 208.3H749.428V221.35C747.878 221.45 746.328 221.5 744.778 221.55V208.3ZM760.978 220.45C759.278 220.65 757.528 220.85 755.728 220.95V208.3H759.378V203.05H734.828V208.3H738.428V221.65L733.628 221.7L734.328 227.05C741.978 227.05 752.378 226.85 761.428 225.25L760.978 220.45ZM747.028 230H740.428V244.5H771.778V239.25H747.028V230ZM770.128 212.25V199.25H763.528V233.15H770.128V217.7H776.228V212.25H770.128ZM787.324 209.15H793.224V228.65H787.324V209.15ZM781.174 233.8H799.324V203.95H781.174V233.8ZM813.124 199.2V216.8H809.274V199.95H803.124V243.2H809.274V222.1H813.124V245.25H819.374V199.2H813.124ZM836.92 229.9C834.42 229.9 832.62 227.9 832.62 224.45C832.62 221 834.42 218.95 836.92 218.95C839.42 218.95 841.22 221 841.22 224.45C841.22 227.9 839.42 229.9 836.92 229.9ZM836.92 213.45C831.02 213.45 826.82 218 826.82 224.45C826.82 230.85 831.02 235.4 836.92 235.4C842.82 235.4 847.02 230.85 847.02 224.45C847.02 218 842.82 213.45 836.92 213.45ZM840.17 200.5H833.67V206.2H825.82V211.45H847.82V206.2H840.17V200.5ZM859.12 199.2V218H855.62V200.1H849.47V243.35H855.62V223.3H859.12V245.25H865.37V199.2H859.12ZM882.816 214.45H902.516V220.9H882.816V214.45ZM895.966 234.6V226.15H909.016V202.1H902.516V209.25H882.816V202.1H876.266V226.15H889.366V234.6H871.866V239.95H913.566V234.6H895.966ZM932.562 203.25H926.212V211C926.212 218.85 923.762 227.1 917.012 231.2L920.962 236.15C925.112 233.65 927.812 229.25 929.412 224.15C930.862 228.8 933.312 232.7 937.212 235.1L940.812 230C934.562 225.85 932.562 218.2 932.562 210.75V203.25ZM941.762 214.8H935.962V220.15H941.762V243.25H947.912V200H941.762V214.8ZM951.112 199.25V245.3H957.362V199.25H951.112ZM979.608 225.8C981.208 226.1 982.858 226.25 984.658 226.25C986.458 226.25 988.158 226.1 989.758 225.8V234.6H979.608V225.8ZM984.658 206.7C991.058 206.7 995.358 209.3 995.358 213.9C995.358 218.45 991.058 221.1 984.658 221.1C978.258 221.1 974.008 218.45 974.008 213.9C974.008 209.3 978.258 206.7 984.658 206.7ZM996.308 234.6V223.35C999.758 221.2 1001.86 217.9 1001.86 213.9C1001.86 206.35 994.608 201.5 984.658 201.5C974.758 201.5 967.508 206.35 967.508 213.9C967.458 217.9 969.558 221.2 973.058 223.35V234.6H963.858V239.95H1005.56V234.6H996.308Z" fill="black"/>
</g>
<defs>
<clipPath id="clip0">
<rect width="1484" height="301" fill="white"/>
</clipPath>
<clipPath id="clip1">
<rect width="453" height="245" fill="white" transform="translate(1063 32)"/>
</clipPath>
</defs>
</svg>
